<?xml version="1.0" encoding="UTF-8" standalone="no"?>
<!DOCTYPE svg PUBLIC "-//W3C//DTD SVG 1.1//EN"
 "http://www.w3.org/Graphics/SVG/1.1/DTD/svg11.dtd">
<!-- Generated by graphviz version 2.38.0 (20140413.2041)
 -->
<!-- Title: %3 Pages: 1 -->
<svg width="1581pt" height="288pt"
 viewBox="0.00 0.00 1581.31 288.15" xmlns="http://www.w3.org/2000/svg" xmlns:xlink="http://www.w3.org/1999/xlink">
<g id="graph0" class="graph" transform="scale(1 1) rotate(0) translate(4 284.149)">
<title>%3</title>
<polygon fill="white" stroke="none" points="-4,4 -4,-284.149 1577.31,-284.149 1577.31,4 -4,4"/>
<!-- &#45;1 -->
<g id="node1" class="node"><title>&#45;1</title>
<polygon fill="lightgray" stroke="black" points="637.202,-204.037 613.202,-204.037 613.202,-186.037 637.202,-186.037 637.202,-204.037"/>
<text text-anchor="middle" x="625.202" y="-192.837" font-family="Times New Roman,serif" font-size="9.00">&#45;1</text>
</g>
<!-- 0 -->
<g id="node10" class="node"><title>0</title>
<ellipse fill="lightblue" stroke="black" cx="364.202" cy="-14.8492" rx="14.7" ry="14.7"/>
<text text-anchor="middle" x="364.202" y="-12.6492" font-family="Times New Roman,serif" font-size="9.00">0</text>
</g>
<!-- &#45;1&#45;&gt;0 -->
<g id="edge1" class="edge"><title>&#45;1&#45;&gt;0</title>
<path fill="none" stroke="green" stroke-width="0.429454" stroke-dasharray="1,5" d="M613.048,-186.345C601.459,-179.379 583.288,-169.393 566.202,-163.924 514.42,-147.348 359.706,-169.1 324.202,-127.924 306.142,-106.979 315.028,-91.7885 324.202,-65.6985 328.642,-53.0683 337.783,-41.2704 346.206,-32.3258"/>
<polygon fill="green" stroke="green" stroke-width="0.429454" points="348.687,-34.7945 353.288,-25.2507 343.74,-29.8424 348.687,-34.7945"/>
</g>
<!-- 1 -->
<g id="node11" class="node"><title>1</title>
<ellipse fill="lightblue" stroke="black" cx="896.202" cy="-96.8112" rx="14.7" ry="14.7"/>
<text text-anchor="middle" x="896.202" y="-94.6112" font-family="Times New Roman,serif" font-size="9.00">1</text>
</g>
<!-- &#45;1&#45;&gt;1 -->
<g id="edge2" class="edge"><title>&#45;1&#45;&gt;1</title>
<path fill="none" stroke="red" stroke-width="0.146827" stroke-dasharray="1,5" d="M628.586,-185.987C631.975,-178.975 637.885,-169.137 646.202,-163.924 732.382,-109.905 784.338,-179.16 872.202,-127.924 876.342,-125.51 880.045,-122.086 883.232,-118.408"/>
<polygon fill="red" stroke="red" stroke-width="0.146827" points="886.155,-120.344 889.351,-110.242 880.553,-116.146 886.155,-120.344"/>
</g>
<!-- 2 -->
<g id="node12" class="node"><title>2</title>
<ellipse fill="lightblue" stroke="black" cx="676.202" cy="-96.8112" rx="14.7" ry="14.7"/>
<text text-anchor="middle" x="676.202" y="-94.6112" font-family="Times New Roman,serif" font-size="9.00">2</text>
</g>
<!-- &#45;1&#45;&gt;2 -->
<g id="edge3" class="edge"><title>&#45;1&#45;&gt;2</title>
<path fill="none" stroke="red" stroke-width="0.377169" stroke-dasharray="1,5" d="M629.55,-185.832C637.321,-171.171 653.819,-140.042 664.962,-119.017"/>
<polygon fill="red" stroke="red" stroke-width="0.377169" points="668.064,-120.638 669.655,-110.163 661.879,-117.36 668.064,-120.638"/>
</g>
<!-- 3 -->
<g id="node13" class="node"><title>3</title>
<ellipse fill="lightblue" stroke="black" cx="542.202" cy="-96.8112" rx="14.7" ry="14.7"/>
<text text-anchor="middle" x="542.202" y="-94.6112" font-family="Times New Roman,serif" font-size="9.00">3</text>
</g>
<!-- &#45;1&#45;&gt;3 -->
<g id="edge4" class="edge"><title>&#45;1&#45;&gt;3</title>
<path fill="none" stroke="red" stroke-width="0.512962" stroke-dasharray="1,5" d="M618.125,-185.832C604.905,-170.505 576.162,-137.182 558.08,-116.219"/>
<polygon fill="red" stroke="red" stroke-width="0.512962" points="560.686,-113.882 551.504,-108.596 555.385,-118.454 560.686,-113.882"/>
</g>
<!-- 4 -->
<g id="node14" class="node"><title>4</title>
<ellipse fill="lightblue" stroke="black" cx="628.202" cy="-96.8112" rx="14.7" ry="14.7"/>
<text text-anchor="middle" x="628.202" y="-94.6112" font-family="Times New Roman,serif" font-size="9.00">4</text>
</g>
<!-- &#45;1&#45;&gt;4 -->
<g id="edge5" class="edge"><title>&#45;1&#45;&gt;4</title>
<path fill="none" stroke="red" stroke-width="0.237938" stroke-dasharray="1,5" d="M625.457,-185.832C625.894,-171.822 626.8,-142.775 627.451,-121.876"/>
<polygon fill="red" stroke="red" stroke-width="0.237938" points="630.952,-121.917 627.765,-111.813 623.955,-121.699 630.952,-121.917"/>
</g>
<!-- 6 -->
<g id="node16" class="node"><title>6</title>
<ellipse fill="lightblue" stroke="black" cx="848.202" cy="-96.8112" rx="14.7" ry="14.7"/>
<text text-anchor="middle" x="848.202" y="-94.6112" font-family="Times New Roman,serif" font-size="9.00">6</text>
</g>
<!-- &#45;1&#45;&gt;6 -->
<g id="edge6" class="edge"><title>&#45;1&#45;&gt;6</title>
<path fill="none" stroke="red" stroke-width="0.937234" stroke-dasharray="1,5" d="M628.773,-185.797C632.217,-178.858 638.102,-169.239 646.202,-163.924 713.684,-119.645 755.338,-170.023 824.202,-127.924 828.291,-125.424 831.971,-121.963 835.152,-118.275"/>
<polygon fill="red" stroke="red" stroke-width="0.937234" points="838.068,-120.221 841.281,-110.124 832.473,-116.014 838.068,-120.221"/>
</g>
<!-- 8 -->
<g id="node18" class="node"><title>8</title>
<ellipse fill="lightblue" stroke="black" cx="800.202" cy="-96.8112" rx="14.7" ry="14.7"/>
<text text-anchor="middle" x="800.202" y="-94.6112" font-family="Times New Roman,serif" font-size="9.00">8</text>
</g>
<!-- &#45;1&#45;&gt;8 -->
<g id="edge7" class="edge"><title>&#45;1&#45;&gt;8</title>
<path fill="none" stroke="green" stroke-width="0.142761" stroke-dasharray="1,5" d="M629.209,-185.93C632.854,-179.263 638.79,-169.963 646.202,-163.924 685.72,-131.726 743.274,-112.634 775.67,-103.79"/>
<polygon fill="green" stroke="green" stroke-width="0.142761" points="776.844,-107.101 785.629,-101.179 775.069,-100.329 776.844,-107.101"/>
</g>
<!-- 212165 -->
<g id="node20" class="node"><title>212165</title>
<ellipse fill="white" stroke="black" cx="364.202" cy="-96.8112" rx="31.2258" ry="31.2258"/>
<text text-anchor="middle" x="364.202" y="-94.6112" font-family="Times New Roman,serif" font-size="9.00">212165</text>
</g>
<!-- &#45;1&#45;&gt;212165 -->
<g id="edge75" class="edge"><title>&#45;1&#45;&gt;212165</title>
<path fill="none" stroke="green" stroke-width="0.16386" d="M612.845,-186.91C601.112,-180.342 582.843,-170.626 566.202,-163.924 514.946,-143.282 499.637,-145.353 447.202,-127.924 432.687,-123.099 416.878,-117.461 402.988,-112.376"/>
<polygon fill="green" stroke="green" stroke-width="0.16386" points="403.853,-108.965 393.26,-108.791 401.432,-115.533 403.853,-108.965"/>
</g>
<!-- &#45;2 -->
<g id="node2" class="node"><title>&#45;2</title>
<polygon fill="lightgray" stroke="black" points="721.202,-204.037 697.202,-204.037 697.202,-186.037 721.202,-186.037 721.202,-204.037"/>
<text text-anchor="middle" x="709.202" y="-192.837" font-family="Times New Roman,serif" font-size="9.00">&#45;2</text>
</g>
<!-- &#45;2&#45;&gt;0 -->
<g id="edge8" class="edge"><title>&#45;2&#45;&gt;0</title>
<path fill="none" stroke="red" stroke-width="0.643234" stroke-dasharray="1,5" d="M711.699,-185.789C717.977,-163.207 731.759,-99.7938 700.202,-65.6985 658.281,-20.4064 460.308,-15.8531 389.478,-15.699"/>
<polygon fill="red" stroke="red" stroke-width="0.643234" points="389.243,-12.1991 379.246,-15.7065 389.248,-19.1991 389.243,-12.1991"/>
</g>
<!-- &#45;2&#45;&gt;1 -->
<g id="edge9" class="edge"><title>&#45;2&#45;&gt;1</title>
<path fill="none" stroke="green" stroke-width="0.267411" d="M721.621,-187.059C733.398,-180.597 751.696,-170.953 768.202,-163.924 813.204,-144.76 832.267,-156.167 872.202,-127.924 876.051,-125.201 879.601,-121.693 882.725,-118.039"/>
<polygon fill="green" stroke="green" stroke-width="0.267411" points="885.537,-120.124 888.832,-110.054 879.977,-115.871 885.537,-120.124"/>
</g>
<!-- &#45;2&#45;&gt;2 -->
<g id="edge10" class="edge"><title>&#45;2&#45;&gt;2</title>
<path fill="none" stroke="green" stroke-width="0.170121" stroke-dasharray="1,5" d="M706.388,-185.832C701.486,-171.537 691.214,-141.588 684.021,-120.612"/>
<polygon fill="green" stroke="green" stroke-width="0.170121" points="687.329,-119.467 680.774,-111.144 680.707,-121.738 687.329,-119.467"/>
</g>
<!-- &#45;2&#45;&gt;3 -->
<g id="edge11" class="edge"><title>&#45;2&#45;&gt;3</title>
<path fill="none" stroke="red" stroke-width="0.34187" stroke-dasharray="1,5" d="M705.195,-185.929C701.551,-179.261 695.615,-169.96 688.202,-163.924 656.705,-138.278 641.147,-144.801 604.202,-127.924 590.936,-121.864 576.249,-114.749 564.501,-108.957"/>
<polygon fill="red" stroke="red" stroke-width="0.34187" points="565.933,-105.761 555.419,-104.455 562.824,-112.033 565.933,-105.761"/>
</g>
<!-- &#45;2&#45;&gt;4 -->
<g id="edge12" class="edge"><title>&#45;2&#45;&gt;4</title>
<path fill="none" stroke="green" stroke-width="0.807075" d="M704.044,-185.829C700.002,-179.609 694.094,-170.96 688.202,-163.924 673.673,-146.576 667.277,-144.798 652.202,-127.924 649.195,-124.559 646.106,-120.875 643.186,-117.274"/>
<polygon fill="green" stroke="green" stroke-width="0.807075" points="645.753,-114.877 636.8,-109.212 640.266,-119.224 645.753,-114.877"/>
</g>
<!-- &#45;2&#45;&gt;6 -->
<g id="edge13" class="edge"><title>&#45;2&#45;&gt;6</title>
<path fill="none" stroke="green" stroke-width="0.397343" stroke-dasharray="1,5" d="M721.573,-187.682C747.572,-174.205 806.909,-142.782 824.202,-127.924 827.778,-124.851 831.205,-121.186 834.295,-117.487"/>
<polygon fill="green" stroke="green" stroke-width="0.397343" points="837.082,-119.604 840.443,-109.557 831.55,-115.315 837.082,-119.604"/>
</g>
<!-- 7 -->
<g id="node17" class="node"><title>7</title>
<ellipse fill="lightblue" stroke="black" cx="1044.2" cy="-14.8492" rx="14.7" ry="14.7"/>
<text text-anchor="middle" x="1044.2" y="-12.6492" font-family="Times New Roman,serif" font-size="9.00">7</text>
</g>
<!-- &#45;2&#45;&gt;7 -->
<g id="edge14" class="edge"><title>&#45;2&#45;&gt;7</title>
<path fill="none" stroke="red" stroke-width="0.239975" stroke-dasharray="1,5" d="M712.416,-185.738C722.589,-159.891 754.68,-81.6151 776.202,-65.6985 814.719,-37.2131 959.925,-22.6056 1018.99,-17.741"/>
<polygon fill="red" stroke="red" stroke-width="0.239975" points="1019.59,-21.2041 1029.28,-16.9207 1019.03,-14.2262 1019.59,-21.2041"/>
</g>
<!-- &#45;2&#45;&gt;8 -->
<g id="edge15" class="edge"><title>&#45;2&#45;&gt;8</title>
<path fill="none" stroke="red" stroke-width="0.270785" stroke-dasharray="1,5" d="M715.889,-185.972C721.05,-179.826 728.431,-171.209 735.202,-163.924 750.606,-147.349 755.353,-144.074 771.202,-127.924 775.105,-123.946 779.276,-119.646 783.202,-115.574"/>
<polygon fill="red" stroke="red" stroke-width="0.270785" points="785.911,-117.806 790.317,-108.171 780.864,-112.956 785.911,-117.806"/>
</g>
<!-- &#45;3 -->
<g id="node3" class="node"><title>&#45;3</title>
<polygon fill="lightgray" stroke="black" points="679.202,-204.037 655.202,-204.037 655.202,-186.037 679.202,-186.037 679.202,-204.037"/>
<text text-anchor="middle" x="667.202" y="-192.837" font-family="Times New Roman,serif" font-size="9.00">&#45;3</text>
</g>
<!-- &#45;3&#45;&gt;0 -->
<g id="edge16" class="edge"><title>&#45;3&#45;&gt;0</title>
<path fill="none" stroke="green" stroke-width="0.160654" stroke-dasharray="1,5" d="M663.57,-185.887C660.086,-179.006 654.179,-169.421 646.202,-163.924 591.882,-126.489 561.21,-157.42 502.202,-127.924 452.877,-103.269 405.184,-58.4389 380.87,-33.6034"/>
<polygon fill="green" stroke="green" stroke-width="0.160654" points="383.285,-31.0649 373.825,-26.2934 378.245,-35.9226 383.285,-31.0649"/>
</g>
<!-- &#45;3&#45;&gt;1 -->
<g id="edge17" class="edge"><title>&#45;3&#45;&gt;1</title>
<path fill="none" stroke="green" stroke-width="0.568865" stroke-dasharray="1,5" d="M670.764,-185.784C674.203,-178.837 680.085,-169.213 688.202,-163.924 758.016,-118.431 800.969,-171.162 872.202,-127.924 876.298,-125.437 879.983,-121.982 883.164,-118.295"/>
<polygon fill="green" stroke="green" stroke-width="0.568865" points="886.082,-120.239 889.291,-110.142 880.486,-116.034 886.082,-120.239"/>
</g>
<!-- &#45;3&#45;&gt;2 -->
<g id="edge18" class="edge"><title>&#45;3&#45;&gt;2</title>
<path fill="none" stroke="green" stroke-width="0.60417" d="M667.969,-185.832C669.279,-171.822 671.996,-142.775 673.951,-121.876"/>
<polygon fill="green" stroke="green" stroke-width="0.60417" points="677.445,-122.095 674.892,-111.813 670.476,-121.443 677.445,-122.095"/>
</g>
<!-- &#45;3&#45;&gt;3 -->
<g id="edge19" class="edge"><title>&#45;3&#45;&gt;3</title>
<path fill="none" stroke="red" stroke-width="0.544109" stroke-dasharray="1,5" d="M663.128,-186.009C659.443,-179.391 653.485,-170.117 646.202,-163.924 618.034,-139.972 601.168,-149.584 571.202,-127.924 566.613,-124.607 562.129,-120.517 558.111,-116.431"/>
<polygon fill="red" stroke="red" stroke-width="0.544109" points="560.409,-113.76 551.055,-108.786 555.265,-118.508 560.409,-113.76"/>
</g>
<!-- &#45;3&#45;&gt;4 -->
<g id="edge20" class="edge"><title>&#45;3&#45;&gt;4</title>
<path fill="none" stroke="red" stroke-width="0.156076" stroke-dasharray="1,5" d="M663.876,-185.832C658.051,-171.459 645.811,-141.26 637.304,-120.269"/>
<polygon fill="red" stroke="red" stroke-width="0.156076" points="640.471,-118.767 633.471,-110.814 633.984,-121.396 640.471,-118.767"/>
</g>
<!-- 5 -->
<g id="node15" class="node"><title>5</title>
<ellipse fill="lightblue" stroke="black" cx="719.202" cy="-14.8492" rx="14.7" ry="14.7"/>
<text text-anchor="middle" x="719.202" y="-12.6492" font-family="Times New Roman,serif" font-size="9.00">5</text>
</g>
<!-- &#45;3&#45;&gt;5 -->
<g id="edge21" class="edge"><title>&#45;3&#45;&gt;5</title>
<path fill="none" stroke="green" stroke-width="0.258781" stroke-dasharray="1,5" d="M663.53,-185.944C660.02,-179.101 654.098,-169.537 646.202,-163.924 598.036,-129.683 553.886,-175.03 518.202,-127.924 501.502,-105.879 501.161,-87.4809 518.202,-65.6985 539.826,-38.0557 645.371,-23.5827 694.259,-18.2694"/>
<polygon fill="green" stroke="green" stroke-width="0.258781" points="694.735,-21.7388 704.318,-17.2193 694.008,-14.7766 694.735,-21.7388"/>
</g>
<!-- &#45;3&#45;&gt;6 -->
<g id="edge22" class="edge"><title>&#45;3&#45;&gt;6</title>
<path fill="none" stroke="green" stroke-width="0.173916" stroke-dasharray="1,5" d="M670.852,-185.914C674.348,-179.051 680.263,-169.476 688.202,-163.924 739.44,-128.089 771.844,-162.102 824.202,-127.924 828.215,-125.304 831.862,-121.79 835.034,-118.089"/>
<polygon fill="green" stroke="green" stroke-width="0.173916" points="837.941,-120.048 841.176,-109.959 832.355,-115.828 837.941,-120.048"/>
</g>
<!-- &#45;3&#45;&gt;7 -->
<g id="edge23" class="edge"><title>&#45;3&#45;&gt;7</title>
<path fill="none" stroke="green" stroke-width="0.330493" stroke-dasharray="1,5" d="M662.36,-185.957C658.398,-179.648 652.446,-170.823 646.202,-163.924 629.705,-145.695 614.475,-150.26 604.202,-127.924 592.645,-102.798 585.78,-86.3254 604.202,-65.6985 632.038,-34.5304 929.996,-20.3467 1019.14,-16.7804"/>
<polygon fill="green" stroke="green" stroke-width="0.330493" points="1019.32,-20.2763 1029.18,-16.3891 1019.05,-13.2817 1019.32,-20.2763"/>
</g>
<!-- &#45;3&#45;&gt;8 -->
<g id="edge24" class="edge"><title>&#45;3&#45;&gt;8</title>
<path fill="none" stroke="green" stroke-width="0.13235" stroke-dasharray="1,5" d="M671.567,-185.904C675.346,-179.399 681.284,-170.337 688.202,-163.924 715.151,-138.941 753.102,-119.003 777.173,-107.792"/>
<polygon fill="green" stroke="green" stroke-width="0.13235" points="778.905,-110.85 786.568,-103.533 776.015,-104.475 778.905,-110.85"/>
</g>
<!-- &#45;4 -->
<g id="node4" class="node"><title>&#45;4</title>
<polygon fill="lightgray" stroke="black" points="820.202,-280.149 796.202,-280.149 796.202,-262.149 820.202,-262.149 820.202,-280.149"/>
<text text-anchor="middle" x="808.202" y="-268.949" font-family="Times New Roman,serif" font-size="9.00">&#45;4</text>
</g>
<!-- &#45;4&#45;&gt;1 -->
<g id="edge25" class="edge"><title>&#45;4&#45;&gt;1</title>
<path fill="none" stroke="red" stroke-width="0.21192" stroke-dasharray="1,5" d="M820.213,-268.753C854.51,-264.494 951.614,-250.458 970.202,-226.149 987,-204.18 981.499,-189.167 970.202,-163.924 959.534,-140.089 935.556,-121.301 917.769,-109.94"/>
<polygon fill="red" stroke="red" stroke-width="0.21192" points="919.498,-106.895 909.136,-104.688 915.86,-112.876 919.498,-106.895"/>
</g>
<!-- &#45;4&#45;&gt;3 -->
<g id="edge26" class="edge"><title>&#45;4&#45;&gt;3</title>
<path fill="none" stroke="red" stroke-width="0.185606" stroke-dasharray="1,5" d="M796.077,-270.253C746.504,-270.398 560.159,-268.107 524.202,-226.149 498.532,-196.197 516.467,-147.074 530.319,-119.089"/>
<polygon fill="red" stroke="red" stroke-width="0.185606" points="533.465,-120.625 534.97,-110.138 527.253,-117.398 533.465,-120.625"/>
</g>
<!-- &#45;4&#45;&gt;4 -->
<g id="edge27" class="edge"><title>&#45;4&#45;&gt;4</title>
<path fill="none" stroke="green" stroke-width="0.114469" stroke-dasharray="1,5" d="M796.063,-269.457C755.927,-266.891 628.667,-256.455 604.202,-226.149 579.11,-195.069 599.936,-145.965 615.352,-118.378"/>
<polygon fill="green" stroke="green" stroke-width="0.114469" points="618.469,-119.982 620.495,-109.583 612.426,-116.449 618.469,-119.982"/>
</g>
<!-- &#45;4&#45;&gt;5 -->
<g id="edge28" class="edge"><title>&#45;4&#45;&gt;5</title>
<path fill="none" stroke="green" stroke-width="0.123236" stroke-dasharray="1,5" d="M796.13,-270.607C749.292,-271.991 575.666,-273.47 444.202,-226.149 368.17,-198.782 329.945,-198.838 291.202,-127.924 277.942,-103.654 272.812,-86.3543 291.202,-65.6985 318.154,-35.4249 606.234,-20.6819 693.981,-16.8713"/>
<polygon fill="green" stroke="green" stroke-width="0.123236" points="694.261,-20.3626 704.104,-16.4419 693.965,-13.3689 694.261,-20.3626"/>
</g>
<!-- &#45;4&#45;&gt;6 -->
<g id="edge29" class="edge"><title>&#45;4&#45;&gt;6</title>
<path fill="none" stroke="red" stroke-width="0.152403" stroke-dasharray="1,5" d="M820.39,-267.719C839.255,-263.229 874.939,-251.659 890.202,-226.149 911.505,-190.542 883.275,-142.825 863.821,-116.763"/>
<polygon fill="red" stroke="red" stroke-width="0.152403" points="866.54,-114.558 857.644,-108.804 861.01,-118.85 866.54,-114.558"/>
</g>
<!-- &#45;4&#45;&gt;7 -->
<g id="edge30" class="edge"><title>&#45;4&#45;&gt;7</title>
<path fill="none" stroke="red" stroke-width="0.428839" stroke-dasharray="1,5" d="M820.292,-269.534C902.595,-265.074 1379.74,-234.772 1464.2,-127.924 1481.35,-106.228 1482.57,-86.3744 1464.2,-65.6985 1437.81,-35.9845 1155.64,-20.8751 1069.22,-16.9207"/>
<polygon fill="red" stroke="red" stroke-width="0.428839" points="1069.16,-13.4149 1059.02,-16.4647 1068.85,-20.408 1069.16,-13.4149"/>
</g>
<!-- &#45;4&#45;&gt;8 -->
<g id="edge31" class="edge"><title>&#45;4&#45;&gt;8</title>
<path fill="none" stroke="green" stroke-width="0.552931" stroke-dasharray="1,5" d="M797.318,-262.129C787.592,-254.224 774.009,-241.171 768.202,-226.149 758.229,-200.354 762.021,-190.88 768.202,-163.924 771.881,-147.879 779.986,-131.204 787.119,-118.615"/>
<polygon fill="green" stroke="green" stroke-width="0.552931" points="790.217,-120.251 792.294,-109.862 784.192,-116.689 790.217,-120.251"/>
</g>
<!-- 236581 -->
<g id="node21" class="node"><title>236581</title>
<ellipse fill="white" stroke="black" cx="808.202" cy="-195.037" rx="31.2258" ry="31.2258"/>
<text text-anchor="middle" x="808.202" y="-192.837" font-family="Times New Roman,serif" font-size="9.00">236581</text>
</g>
<!-- &#45;4&#45;&gt;236581 -->
<g id="edge77" class="edge"><title>&#45;4&#45;&gt;236581</title>
<path fill="none" stroke="red" stroke-width="0.897383" d="M808.202,-261.935C808.202,-255.557 808.202,-246.197 808.202,-236.522"/>
<polygon fill="red" stroke="red" stroke-width="0.897383" points="811.702,-236.438 808.202,-226.438 804.702,-236.438 811.702,-236.438"/>
</g>
<!-- 300421 -->
<g id="node22" class="node"><title>300421</title>
<ellipse fill="white" stroke="black" cx="1542.2" cy="-195.037" rx="31.2258" ry="31.2258"/>
<text text-anchor="middle" x="1542.2" y="-192.837" font-family="Times New Roman,serif" font-size="9.00">300421</text>
</g>
<!-- &#45;4&#45;&gt;300421 -->
<g id="edge83" class="edge"><title>&#45;4&#45;&gt;300421</title>
<path fill="none" stroke="green" stroke-width="0.239282" d="M820.422,-270.232C901.689,-270.651 1364.81,-271.017 1497.2,-226.149 1501.31,-224.758 1505.4,-222.89 1509.34,-220.763"/>
<polygon fill="green" stroke="green" stroke-width="0.239282" points="1511.44,-223.581 1518.21,-215.431 1507.84,-217.581 1511.44,-223.581"/>
</g>
<!-- &#45;5 -->
<g id="node5" class="node"><title>&#45;5</title>
<polygon fill="lightgray" stroke="black" points="557.202,-204.037 533.202,-204.037 533.202,-186.037 557.202,-186.037 557.202,-204.037"/>
<text text-anchor="middle" x="545.202" y="-192.837" font-family="Times New Roman,serif" font-size="9.00">&#45;5</text>
</g>
<!-- &#45;5&#45;&gt;0 -->
<g id="edge32" class="edge"><title>&#45;5&#45;&gt;0</title>
<path fill="none" stroke="green" stroke-width="0.206071" stroke-dasharray="1,5" d="M533.102,-186.172C521.55,-179.082 503.405,-169.013 486.202,-163.924 411.862,-141.93 191.115,-185.501 139.202,-127.924 120.683,-107.384 121.89,-87.2656 139.202,-65.6985 164.045,-34.7486 285.509,-21.831 338.92,-17.5844"/>
<polygon fill="green" stroke="green" stroke-width="0.206071" points="339.517,-21.0494 349.225,-16.8065 338.99,-14.0693 339.517,-21.0494"/>
</g>
<!-- &#45;5&#45;&gt;1 -->
<g id="edge33" class="edge"><title>&#45;5&#45;&gt;1</title>
<path fill="none" stroke="red" stroke-width="0.143552" stroke-dasharray="1,5" d="M557.337,-186.29C568.914,-179.284 587.077,-169.272 604.202,-163.924 718.918,-128.095 767.651,-187.191 872.202,-127.924 876.371,-125.56 880.087,-122.159 883.277,-118.487"/>
<polygon fill="red" stroke="red" stroke-width="0.143552" points="886.204,-120.417 889.391,-110.312 880.599,-116.224 886.204,-120.417"/>
</g>
<!-- &#45;5&#45;&gt;2 -->
<g id="edge34" class="edge"><title>&#45;5&#45;&gt;2</title>
<path fill="none" stroke="red" stroke-width="0.294911" stroke-dasharray="1,5" d="M557.339,-188.287C578.181,-178.052 621.492,-155.168 652.202,-127.924 655.729,-124.795 659.134,-121.104 662.217,-117.399"/>
<polygon fill="red" stroke="red" stroke-width="0.294911" points="665.001,-119.52 668.373,-109.476 659.474,-115.225 665.001,-119.52"/>
</g>
<!-- &#45;5&#45;&gt;3 -->
<g id="edge35" class="edge"><title>&#45;5&#45;&gt;3</title>
<path fill="none" stroke="red" stroke-width="0.466564" stroke-dasharray="1,5" d="M544.946,-185.832C544.509,-171.822 543.603,-142.775 542.952,-121.876"/>
<polygon fill="red" stroke="red" stroke-width="0.466564" points="546.448,-121.699 542.638,-111.813 539.452,-121.917 546.448,-121.699"/>
</g>
<!-- &#45;5&#45;&gt;4 -->
<g id="edge36" class="edge"><title>&#45;5&#45;&gt;4</title>
<path fill="none" stroke="green" stroke-width="0.554667" d="M552.278,-185.832C565.499,-170.505 594.242,-137.182 612.324,-116.219"/>
<polygon fill="green" stroke="green" stroke-width="0.554667" points="615.018,-118.454 618.9,-108.596 609.718,-113.882 615.018,-118.454"/>
</g>
<!-- &#45;5&#45;&gt;5 -->
<g id="edge37" class="edge"><title>&#45;5&#45;&gt;5</title>
<path fill="none" stroke="red" stroke-width="0.261187" stroke-dasharray="1,5" d="M532.954,-186.621C521.299,-179.85 503.083,-169.996 486.202,-163.924 416.799,-138.959 370.353,-185.457 324.202,-127.924 306.897,-106.351 305.911,-86.4422 324.202,-65.6985 348.811,-37.7887 611.49,-21.5618 694.327,-17.1106"/>
<polygon fill="red" stroke="red" stroke-width="0.261187" points="694.557,-20.6034 704.359,-16.5822 694.189,-13.6131 694.557,-20.6034"/>
</g>
<!-- &#45;5&#45;&gt;7 -->
<g id="edge38" class="edge"><title>&#45;5&#45;&gt;7</title>
<path fill="none" stroke="red" stroke-width="0.293742" stroke-dasharray="1,5" d="M539.349,-185.888C524.075,-163.559 486.333,-100.73 518.202,-65.6985 535.305,-46.8971 917.183,-23.2794 1019.29,-17.2836"/>
<polygon fill="red" stroke="red" stroke-width="0.293742" points="1019.52,-20.7759 1029.3,-16.6995 1019.12,-13.7877 1019.52,-20.7759"/>
</g>
<!-- &#45;5&#45;&gt;8 -->
<g id="edge39" class="edge"><title>&#45;5&#45;&gt;8</title>
<path fill="none" stroke="green" stroke-width="0.49584" stroke-dasharray="1,5" d="M557.608,-187.029C569.376,-180.546 587.668,-170.887 604.202,-163.924 664.748,-138.424 738.852,-115.607 776.217,-104.661"/>
<polygon fill="green" stroke="green" stroke-width="0.49584" points="777.532,-107.924 786.16,-101.775 775.581,-101.201 777.532,-107.924"/>
</g>
<!-- &#45;6 -->
<g id="node6" class="node"><title>&#45;6</title>
<polygon fill="lightgray" stroke="black" points="477.202,-204.037 453.202,-204.037 453.202,-186.037 477.202,-186.037 477.202,-204.037"/>
<text text-anchor="middle" x="465.202" y="-192.837" font-family="Times New Roman,serif" font-size="9.00">&#45;6</text>
</g>
<!-- &#45;6&#45;&gt;0 -->
<g id="edge40" class="edge"><title>&#45;6&#45;&gt;0</title>
<path fill="none" stroke="green" stroke-width="0.346584" stroke-dasharray="1,5" d="M452.808,-194.27C386.558,-195.233 75.0365,-196.056 16.2016,-127.924 -74.7801,-22.5647 245.539,-15.4725 339.208,-15.6034"/>
<polygon fill="green" stroke="green" stroke-width="0.346584" points="339.213,-19.1033 349.229,-15.6473 339.244,-12.1034 339.213,-19.1033"/>
</g>
<!-- &#45;6&#45;&gt;2 -->
<g id="edge41" class="edge"><title>&#45;6&#45;&gt;2</title>
<path fill="none" stroke="red" stroke-width="0.5495" stroke-dasharray="1,5" d="M477.529,-186.835C489.241,-180.214 507.495,-170.462 524.202,-163.924 579.233,-142.386 602.966,-160.607 652.202,-127.924 656.194,-125.273 659.833,-121.746 663.003,-118.041"/>
<polygon fill="red" stroke="red" stroke-width="0.5495" points="665.907,-120.003 669.148,-109.916 660.324,-115.78 665.907,-120.003"/>
</g>
<!-- &#45;6&#45;&gt;3 -->
<g id="edge42" class="edge"><title>&#45;6&#45;&gt;3</title>
<path fill="none" stroke="green" stroke-width="0.449105" stroke-dasharray="1,5" d="M471.767,-185.832C483.913,-170.653 510.184,-137.823 526.984,-116.829"/>
<polygon fill="green" stroke="green" stroke-width="0.449105" points="529.811,-118.897 533.326,-108.902 524.346,-114.523 529.811,-118.897"/>
</g>
<!-- &#45;6&#45;&gt;4 -->
<g id="edge43" class="edge"><title>&#45;6&#45;&gt;4</title>
<path fill="none" stroke="red" stroke-width="0.546262" stroke-dasharray="1,5" d="M477.453,-186.804C505.065,-170.504 572.433,-130.734 606.991,-110.333"/>
<polygon fill="red" stroke="red" stroke-width="0.546262" points="608.976,-113.225 615.808,-105.128 605.417,-107.197 608.976,-113.225"/>
</g>
<!-- &#45;6&#45;&gt;5 -->
<g id="edge44" class="edge"><title>&#45;6&#45;&gt;5</title>
<path fill="none" stroke="red" stroke-width="0.546015" stroke-dasharray="1,5" d="M452.909,-193.252C421.976,-190.537 340.976,-178.669 307.202,-127.924 291.878,-104.901 288.858,-86.3952 307.202,-65.6985 333.011,-36.5777 608.653,-21.1068 694.096,-16.9857"/>
<polygon fill="red" stroke="red" stroke-width="0.546015" points="694.374,-20.4765 704.198,-16.509 694.044,-13.4843 694.374,-20.4765"/>
</g>
<!-- &#45;6&#45;&gt;6 -->
<g id="edge45" class="edge"><title>&#45;6&#45;&gt;6</title>
<path fill="none" stroke="green" stroke-width="0.282162" stroke-dasharray="1,5" d="M477.32,-186.235C488.885,-179.19 507.04,-169.151 524.202,-163.924 652.664,-124.794 706.913,-193.324 824.202,-127.924 828.387,-125.59 832.111,-122.202 835.303,-118.533"/>
<polygon fill="green" stroke="green" stroke-width="0.282162" points="838.233,-120.459 841.414,-110.353 832.625,-116.269 838.233,-120.459"/>
</g>
<!-- &#45;6&#45;&gt;7 -->
<g id="edge74" class="edge"><title>&#45;6&#45;&gt;7</title>
<path fill="none" stroke="red" stroke-width="0.15641" d="M452.938,-192.605C424.35,-188.532 353.497,-174.016 324.202,-127.924 309.367,-104.584 305.333,-85.9181 324.202,-65.6985 336.338,-52.6932 893.773,-23.5218 1019.28,-17.1108"/>
<polygon fill="red" stroke="red" stroke-width="0.15641" points="1019.63,-20.5977 1029.44,-16.5936 1019.28,-13.6068 1019.63,-20.5977"/>
</g>
<!-- &#45;6&#45;&gt;8 -->
<g id="edge46" class="edge"><title>&#45;6&#45;&gt;8</title>
<path fill="none" stroke="red" stroke-width="0.307443" d="M477.426,-186.556C489.065,-179.738 507.27,-169.853 524.202,-163.924 599.557,-137.536 622.785,-147.455 700.202,-127.924 726.7,-121.239 756.661,-111.987 776.821,-105.508"/>
<polygon fill="red" stroke="red" stroke-width="0.307443" points="777.968,-108.816 786.4,-102.401 775.808,-102.157 777.968,-108.816"/>
</g>
<!-- 321581 -->
<g id="node23" class="node"><title>321581</title>
<ellipse fill="white" stroke="black" cx="56.2016" cy="-96.8112" rx="31.2258" ry="31.2258"/>
<text text-anchor="middle" x="56.2016" y="-94.6112" font-family="Times New Roman,serif" font-size="9.00">321581</text>
</g>
<!-- &#45;6&#45;&gt;321581 -->
<g id="edge85" class="edge"><title>&#45;6&#45;&gt;321581</title>
<path fill="none" stroke="green" stroke-width="0.24128" d="M453.082,-193.615C406.068,-191.615 231.879,-180.832 101.202,-127.924 97.071,-126.251 92.9271,-124.166 88.9164,-121.877"/>
<polygon fill="green" stroke="green" stroke-width="0.24128" points="90.7542,-118.899 80.4061,-116.625 87.0778,-124.856 90.7542,-118.899"/>
</g>
<!-- &#45;7 -->
<g id="node7" class="node"><title>&#45;7</title>
<polygon fill="lightgray" stroke="black" points="961.202,-204.037 937.202,-204.037 937.202,-186.037 961.202,-186.037 961.202,-204.037"/>
<text text-anchor="middle" x="949.202" y="-192.837" font-family="Times New Roman,serif" font-size="9.00">&#45;7</text>
</g>
<!-- &#45;7&#45;&gt;0 -->
<g id="edge47" class="edge"><title>&#45;7&#45;&gt;0</title>
<path fill="none" stroke="green" stroke-width="0.22346" d="M950.261,-185.827C952.721,-162.784 956.125,-97.142 920.202,-65.6985 879.787,-30.3247 492.475,-18.835 389.332,-16.3897"/>
<polygon fill="green" stroke="green" stroke-width="0.22346" points="389.297,-12.8881 379.219,-16.1577 389.136,-19.8862 389.297,-12.8881"/>
</g>
<!-- &#45;7&#45;&gt;1 -->
<g id="edge48" class="edge"><title>&#45;7&#45;&gt;1</title>
<path fill="none" stroke="red" stroke-width="0.201255" stroke-dasharray="1,5" d="M944.683,-185.832C936.607,-171.171 919.462,-140.042 907.882,-119.017"/>
<polygon fill="red" stroke="red" stroke-width="0.201255" points="910.895,-117.234 903.005,-110.163 904.764,-120.611 910.895,-117.234"/>
</g>
<!-- &#45;7&#45;&gt;2 -->
<g id="edge49" class="edge"><title>&#45;7&#45;&gt;2</title>
<path fill="none" stroke="green" stroke-width="0.206606" stroke-dasharray="1,5" d="M936.836,-186.932C925.096,-180.38 906.823,-170.674 890.202,-163.924 881.124,-160.237 753.677,-121.371 699.885,-105.008"/>
<polygon fill="green" stroke="green" stroke-width="0.206606" points="700.751,-101.613 690.166,-102.053 698.715,-108.311 700.751,-101.613"/>
</g>
<!-- &#45;7&#45;&gt;3 -->
<g id="edge50" class="edge"><title>&#45;7&#45;&gt;3</title>
<path fill="none" stroke="red" stroke-width="1.12491" stroke-dasharray="1,5" d="M937.076,-186.257C925.506,-179.229 907.348,-169.201 890.202,-163.924 767.755,-126.239 727.015,-164.396 604.202,-127.924 590.042,-123.719 575.122,-116.568 563.468,-110.29"/>
<polygon fill="red" stroke="red" stroke-width="1.12491" points="564.973,-107.121 554.535,-105.305 561.562,-113.234 564.973,-107.121"/>
</g>
<!-- &#45;7&#45;&gt;4 -->
<g id="edge51" class="edge"><title>&#45;7&#45;&gt;4</title>
<path fill="none" stroke="red" stroke-width="0.279704" d="M937.045,-186.355C925.454,-179.395 907.281,-169.414 890.202,-163.924 788.353,-131.184 744.828,-181.452 652.202,-127.924 648.052,-125.526 644.345,-122.11 641.157,-118.433"/>
<polygon fill="red" stroke="red" stroke-width="0.279704" points="643.835,-116.171 635.039,-110.265 638.232,-120.367 643.835,-116.171"/>
</g>
<!-- &#45;7&#45;&gt;5 -->
<g id="edge52" class="edge"><title>&#45;7&#45;&gt;5</title>
<path fill="none" stroke="green" stroke-width="0.153364" stroke-dasharray="1,5" d="M961.275,-188.407C979.929,-178.949 1015.08,-157.918 1029.2,-127.924 1040.98,-102.903 1047.14,-86.7492 1029.2,-65.6985 992.531,-22.6606 811.723,-16.6399 744.464,-15.9042"/>
<polygon fill="green" stroke="green" stroke-width="0.153364" points="744.358,-12.4033 734.331,-15.8249 744.303,-19.4031 744.358,-12.4033"/>
</g>
<!-- &#45;7&#45;&gt;6 -->
<g id="edge53" class="edge"><title>&#45;7&#45;&gt;6</title>
<path fill="none" stroke="green" stroke-width="0.247119" d="M943.063,-185.888C938.078,-179.54 930.671,-170.698 923.202,-163.924 902.65,-145.285 892.383,-146.963 872.202,-127.924 868.919,-124.827 865.699,-121.27 862.737,-117.711"/>
<polygon fill="green" stroke="green" stroke-width="0.247119" points="865.312,-115.322 856.384,-109.616 859.805,-119.644 865.312,-115.322"/>
</g>
<!-- &#45;7&#45;&gt;7 -->
<g id="edge54" class="edge"><title>&#45;7&#45;&gt;7</title>
<path fill="none" stroke="green" stroke-width="0.693387" stroke-dasharray="1,5" d="M961.486,-186.723C973.168,-180.023 991.402,-170.218 1008.2,-163.924 1069.98,-140.78 1111.6,-179.922 1152.2,-127.924 1169.22,-106.125 1167.11,-88.9941 1152.2,-65.6985 1133.99,-37.2357 1094.94,-24.7928 1069.13,-19.519"/>
<polygon fill="green" stroke="green" stroke-width="0.693387" points="1069.44,-16.0185 1058.97,-17.6719 1068.19,-22.9054 1069.44,-16.0185"/>
</g>
<!-- &#45;7&#45;&gt;8 -->
<g id="edge55" class="edge"><title>&#45;7&#45;&gt;8</title>
<path fill="none" stroke="green" stroke-width="0.487501" stroke-dasharray="1,5" d="M936.872,-187.688C906.288,-171.918 829.045,-131.939 824.202,-127.924 820.572,-124.915 817.12,-121.278 814.024,-117.587"/>
<polygon fill="green" stroke="green" stroke-width="0.487501" points="816.77,-115.416 807.884,-109.647 811.232,-119.699 816.77,-115.416"/>
</g>
<!-- 201376 -->
<g id="node19" class="node"><title>201376</title>
<ellipse fill="white" stroke="black" cx="1112.2" cy="-96.8112" rx="31.2258" ry="31.2258"/>
<text text-anchor="middle" x="1112.2" y="-94.6112" font-family="Times New Roman,serif" font-size="9.00">201376</text>
</g>
<!-- &#45;7&#45;&gt;201376 -->
<g id="edge72" class="edge"><title>&#45;7&#45;&gt;201376</title>
<path fill="none" stroke="green" stroke-width="0.225383" d="M961.445,-187.59C983.082,-176.106 1029.37,-151.13 1067.2,-127.924 1070.81,-125.712 1074.54,-123.347 1078.23,-120.952"/>
<polygon fill="green" stroke="green" stroke-width="0.225383" points="1080.3,-123.784 1086.73,-115.364 1076.45,-117.935 1080.3,-123.784"/>
</g>
<!-- &#45;8 -->
<g id="node8" class="node"><title>&#45;8</title>
<polygon fill="lightgray" stroke="black" points="881.202,-204.037 857.202,-204.037 857.202,-186.037 881.202,-186.037 881.202,-204.037"/>
<text text-anchor="middle" x="869.202" y="-192.837" font-family="Times New Roman,serif" font-size="9.00">&#45;8</text>
</g>
<!-- &#45;8&#45;&gt;1 -->
<g id="edge56" class="edge"><title>&#45;8&#45;&gt;1</title>
<path fill="none" stroke="green" stroke-width="0.270315" stroke-dasharray="1,5" d="M871.504,-185.832C875.475,-171.68 883.751,-142.184 889.627,-121.243"/>
<polygon fill="green" stroke="green" stroke-width="0.270315" points="893.035,-122.05 892.367,-111.477 886.296,-120.159 893.035,-122.05"/>
</g>
<!-- &#45;8&#45;&gt;2 -->
<g id="edge57" class="edge"><title>&#45;8&#45;&gt;2</title>
<path fill="none" stroke="red" stroke-width="0.354001" stroke-dasharray="1,5" d="M865.253,-185.856C861.645,-179.144 855.728,-169.819 848.202,-163.924 824.337,-145.234 741.553,-117.987 700.157,-105.093"/>
<polygon fill="red" stroke="red" stroke-width="0.354001" points="700.941,-101.672 690.354,-102.067 698.877,-108.361 700.941,-101.672"/>
</g>
<!-- &#45;8&#45;&gt;3 -->
<g id="edge58" class="edge"><title>&#45;8&#45;&gt;3</title>
<path fill="none" stroke="red" stroke-width="0.179937" stroke-dasharray="1,5" d="M865.832,-185.965C862.452,-178.937 856.548,-169.089 848.202,-163.924 754.988,-106.24 708.946,-160.246 604.202,-127.924 590.087,-123.569 575.17,-116.412 563.505,-110.169"/>
<polygon fill="red" stroke="red" stroke-width="0.179937" points="565.005,-106.999 554.56,-105.22 561.616,-113.124 565.005,-106.999"/>
</g>
<!-- &#45;8&#45;&gt;4 -->
<g id="edge59" class="edge"><title>&#45;8&#45;&gt;4</title>
<path fill="none" stroke="red" stroke-width="0.23642" stroke-dasharray="1,5" d="M865.788,-186.034C862.379,-179.053 856.456,-169.235 848.202,-163.924 773.719,-116 728.178,-173.442 652.202,-127.924 648.091,-125.461 644.4,-122.016 641.217,-118.332"/>
<polygon fill="red" stroke="red" stroke-width="0.23642" points="643.895,-116.07 635.092,-110.175 638.297,-120.273 643.895,-116.07"/>
</g>
<!-- &#45;8&#45;&gt;5 -->
<g id="edge80" class="edge"><title>&#45;8&#45;&gt;5</title>
<path fill="none" stroke="green" stroke-width="0.519862" d="M877.453,-186.027C898.563,-164.573 950.781,-104.788 920.202,-65.6985 898.577,-38.0557 793.032,-23.5827 744.145,-18.2694"/>
<polygon fill="green" stroke="green" stroke-width="0.519862" points="744.395,-14.7766 734.086,-17.2193 743.668,-21.7388 744.395,-14.7766"/>
</g>
<!-- &#45;8&#45;&gt;6 -->
<g id="edge60" class="edge"><title>&#45;8&#45;&gt;6</title>
<path fill="none" stroke="green" stroke-width="0.468637" stroke-dasharray="1,5" d="M867.411,-185.832C864.337,-171.745 857.944,-142.453 853.378,-121.53"/>
<polygon fill="green" stroke="green" stroke-width="0.468637" points="856.736,-120.5 851.184,-111.477 849.897,-121.993 856.736,-120.5"/>
</g>
<!-- &#45;8&#45;&gt;7 -->
<g id="edge61" class="edge"><title>&#45;8&#45;&gt;7</title>
<path fill="none" stroke="red" stroke-width="0.424912" stroke-dasharray="1,5" d="M878.433,-185.653C891.987,-173.267 917.968,-149.243 939.202,-127.924 971.376,-95.6199 1007.42,-56.4663 1027.8,-34.0272"/>
<polygon fill="red" stroke="red" stroke-width="0.424912" points="1030.45,-36.3205 1034.57,-26.5601 1025.26,-31.6202 1030.45,-36.3205"/>
</g>
<!-- &#45;8&#45;&gt;8 -->
<g id="edge62" class="edge"><title>&#45;8&#45;&gt;8</title>
<path fill="none" stroke="green" stroke-width="0.122074" stroke-dasharray="1,5" d="M863.539,-185.827C859.336,-179.756 853.449,-171.298 848.202,-163.924 837.11,-148.337 824.382,-130.823 814.821,-117.739"/>
<polygon fill="green" stroke="green" stroke-width="0.122074" points="817.497,-115.469 808.766,-109.466 811.848,-119.603 817.497,-115.469"/>
</g>
<!-- &#45;9 -->
<g id="node9" class="node"><title>&#45;9</title>
<polygon fill="lightgray" stroke="black" points="1041.2,-204.037 1017.2,-204.037 1017.2,-186.037 1041.2,-186.037 1041.2,-204.037"/>
<text text-anchor="middle" x="1029.2" y="-192.837" font-family="Times New Roman,serif" font-size="9.00">&#45;9</text>
</g>
<!-- &#45;9&#45;&gt;0 -->
<g id="edge63" class="edge"><title>&#45;9&#45;&gt;0</title>
<path fill="none" stroke="red" stroke-width="0.108598" stroke-dasharray="1,5" d="M1041.49,-191.738C1067.46,-186.142 1127.57,-169.125 1152.2,-127.924 1166.39,-104.186 1171.13,-85.8619 1152.2,-65.6985 1138.81,-51.4352 522.365,-22.9561 389.334,-16.9694"/>
<polygon fill="red" stroke="red" stroke-width="0.108598" points="389.108,-13.4559 378.961,-16.5042 388.794,-20.4488 389.108,-13.4559"/>
</g>
<!-- &#45;9&#45;&gt;1 -->
<g id="edge64" class="edge"><title>&#45;9&#45;&gt;1</title>
<path fill="none" stroke="green" stroke-width="0.206256" stroke-dasharray="1,5" d="M1023.38,-186.022C1018.45,-179.584 1010.98,-170.556 1003.2,-163.924 976.424,-141.093 940.958,-120.807 918.354,-108.91"/>
<polygon fill="green" stroke="green" stroke-width="0.206256" points="919.725,-105.679 909.234,-104.198 916.512,-111.898 919.725,-105.679"/>
</g>
<!-- &#45;9&#45;&gt;2 -->
<g id="edge65" class="edge"><title>&#45;9&#45;&gt;2</title>
<path fill="none" stroke="red" stroke-width="0.110492" stroke-dasharray="1,5" d="M1017,-186.485C1005.38,-179.617 987.187,-169.698 970.202,-163.924 887.174,-135.698 861.424,-148.597 776.202,-127.924 749.643,-121.481 719.693,-112.186 699.552,-105.631"/>
<polygon fill="red" stroke="red" stroke-width="0.110492" points="700.576,-102.284 689.983,-102.483 698.388,-108.933 700.576,-102.284"/>
</g>
<!-- &#45;9&#45;&gt;3 -->
<g id="edge66" class="edge"><title>&#45;9&#45;&gt;3</title>
<path fill="none" stroke="red" stroke-width="0.320716" stroke-dasharray="1,5" d="M1017.11,-186.151C1005.56,-179.046 987.418,-168.968 970.202,-163.924 813.343,-117.971 761.508,-172.323 604.202,-127.924 589.986,-123.912 575.065,-116.768 563.423,-110.445"/>
<polygon fill="red" stroke="red" stroke-width="0.320716" points="564.933,-107.278 554.503,-105.413 561.494,-113.375 564.933,-107.278"/>
</g>
<!-- &#45;9&#45;&gt;4 -->
<g id="edge67" class="edge"><title>&#45;9&#45;&gt;4</title>
<path fill="none" stroke="green" stroke-width="0.272653" d="M1017.09,-186.208C1005.53,-179.145 987.381,-169.094 970.202,-163.924 834,-122.934 776.662,-196.777 652.202,-127.924 648.008,-125.604 644.281,-122.222 641.088,-118.555"/>
<polygon fill="green" stroke="green" stroke-width="0.272653" points="643.766,-116.291 634.978,-110.372 638.157,-120.479 643.766,-116.291"/>
</g>
<!-- &#45;9&#45;&gt;5 -->
<g id="edge68" class="edge"><title>&#45;9&#45;&gt;5</title>
<path fill="none" stroke="red" stroke-width="0.156344" stroke-dasharray="1,5" d="M1041.34,-193.196C1071.9,-190.35 1151.9,-178.198 1185.2,-127.924 1200.47,-104.867 1203.69,-86.2678 1185.2,-65.6985 1155.48,-32.6246 836.692,-19.6859 744.214,-16.6121"/>
<polygon fill="red" stroke="red" stroke-width="0.156344" points="744.2,-13.1099 734.092,-16.2854 743.974,-20.1063 744.2,-13.1099"/>
</g>
<!-- &#45;9&#45;&gt;6 -->
<g id="edge69" class="edge"><title>&#45;9&#45;&gt;6</title>
<path fill="none" stroke="red" stroke-width="0.313986" stroke-dasharray="1,5" d="M1016.75,-187.13C1004.95,-180.718 986.641,-171.108 970.202,-163.924 927.683,-145.344 909.832,-155.072 872.202,-127.924 868.378,-125.165 864.839,-121.641 861.719,-117.982"/>
<polygon fill="red" stroke="red" stroke-width="0.313986" points="864.467,-115.814 855.608,-110.003 858.91,-120.07 864.467,-115.814"/>
</g>
<!-- &#45;9&#45;&gt;7 -->
<g id="edge70" class="edge"><title>&#45;9&#45;&gt;7</title>
<path fill="none" stroke="green" stroke-width="0.361848" stroke-dasharray="1,5" d="M1041.32,-193.468C1094.52,-190.693 1306.57,-176.672 1346.2,-127.924 1363.65,-106.465 1364.09,-86.7864 1346.2,-65.6985 1310.7,-23.8512 1135.89,-17.0806 1069.68,-16.0264"/>
<polygon fill="green" stroke="green" stroke-width="0.361848" points="1069.37,-12.5223 1059.33,-15.8951 1069.28,-19.5217 1069.37,-12.5223"/>
</g>
<!-- &#45;9&#45;&gt;8 -->
<g id="edge71" class="edge"><title>&#45;9&#45;&gt;8</title>
<path fill="none" stroke="green" stroke-width="0.267374" stroke-dasharray="1,5" d="M1016.92,-186.71C1005.24,-180.002 987.012,-170.191 970.202,-163.924 907.579,-140.579 880.474,-163.979 824.202,-127.924 820.166,-125.338 816.509,-121.84 813.335,-118.142"/>
<polygon fill="green" stroke="green" stroke-width="0.267374" points="816.013,-115.881 807.197,-110.006 810.425,-120.097 816.013,-115.881"/>
</g>
<!-- 237146 -->
<g id="node24" class="node"><title>237146</title>
<ellipse fill="white" stroke="black" cx="1424.2" cy="-96.8112" rx="31.2258" ry="31.2258"/>
<text text-anchor="middle" x="1424.2" y="-94.6112" font-family="Times New Roman,serif" font-size="9.00">237146</text>
</g>
<!-- &#45;9&#45;&gt;237146 -->
<g id="edge79" class="edge"><title>&#45;9&#45;&gt;237146</title>
<path fill="none" stroke="green" stroke-width="0.329019" d="M1041.48,-193.489C1087.59,-191.071 1254.14,-179.071 1379.2,-127.924 1383.33,-126.237 1387.47,-124.142 1391.48,-121.849"/>
<polygon fill="green" stroke="green" stroke-width="0.329019" points="1393.32,-124.825 1399.98,-116.591 1389.64,-118.87 1393.32,-124.825"/>
</g>
<!-- 292672 -->
<g id="node25" class="node"><title>292672</title>
<ellipse fill="white" stroke="black" cx="1306.2" cy="-96.8112" rx="31.2258" ry="31.2258"/>
<text text-anchor="middle" x="1306.2" y="-94.6112" font-family="Times New Roman,serif" font-size="9.00">292672</text>
</g>
<!-- &#45;9&#45;&gt;292672 -->
<g id="edge81" class="edge"><title>&#45;9&#45;&gt;292672</title>
<path fill="none" stroke="green" stroke-width="0.209891" d="M1041.25,-191.98C1076.4,-185.694 1181.39,-164.881 1261.2,-127.924 1265.25,-126.051 1269.33,-123.84 1273.31,-121.479"/>
<polygon fill="green" stroke="green" stroke-width="0.209891" points="1275.19,-124.434 1281.79,-116.145 1271.46,-118.509 1275.19,-124.434"/>
</g>
<!-- 201376&#45;&gt;7 -->
<g id="edge73" class="edge"><title>201376&#45;&gt;7</title>
<path fill="none" stroke="red" stroke-width="0.245608" d="M1092.53,-72.6829C1082.18,-60.5089 1069.66,-45.7832 1059.95,-34.3718"/>
<polygon fill="red" stroke="red" stroke-width="0.245608" points="1062.6,-32.0826 1053.46,-26.7321 1057.27,-36.6174 1062.6,-32.0826"/>
</g>
<!-- 212165&#45;&gt;0 -->
<g id="edge76" class="edge"><title>212165&#45;&gt;0</title>
<path fill="none" stroke="green" stroke-width="0.139752" d="M364.202,-65.581C364.202,-57.1891 364.202,-48.1868 364.202,-40.1791"/>
<polygon fill="green" stroke="green" stroke-width="0.139752" points="367.702,-40.0268 364.202,-30.0268 360.702,-40.0269 367.702,-40.0268"/>
</g>
<!-- 236581&#45;&gt;8 -->
<g id="edge78" class="edge"><title>236581&#45;&gt;8</title>
<path fill="none" stroke="green" stroke-width="0.121305" d="M805.692,-163.854C804.572,-150.383 803.27,-134.724 802.216,-122.035"/>
<polygon fill="green" stroke="green" stroke-width="0.121305" points="805.679,-121.455 801.363,-111.779 798.704,-122.035 805.679,-121.455"/>
</g>
<!-- 300421&#45;&gt;7 -->
<g id="edge84" class="edge"><title>300421&#45;&gt;7</title>
<path fill="none" stroke="red" stroke-width="0.268118" d="M1540.5,-163.905C1537.09,-134.014 1526.96,-89.3514 1497.2,-65.6985 1463.46,-38.8788 1158.93,-21.5986 1069.06,-17.0503"/>
<polygon fill="red" stroke="red" stroke-width="0.268118" points="1069.13,-13.5496 1058.97,-16.5478 1068.78,-20.541 1069.13,-13.5496"/>
</g>
<!-- 321581&#45;&gt;0 -->
<g id="edge86" class="edge"><title>321581&#45;&gt;0</title>
<path fill="none" stroke="green" stroke-width="0.460485" d="M80.4215,-77.0349C86.8872,-72.7575 94.0679,-68.6186 101.202,-65.6985 184.195,-31.7263 291.505,-20.6456 339.316,-17.2486"/>
<polygon fill="green" stroke="green" stroke-width="0.460485" points="339.617,-20.7365 349.366,-16.5875 339.157,-13.7516 339.617,-20.7365"/>
</g>
<!-- 292672&#45;&gt;5 -->
<g id="edge82" class="edge"><title>292672&#45;&gt;5</title>
<path fill="none" stroke="red" stroke-width="0.429138" d="M1282.16,-76.5579C1275.69,-72.2896 1268.47,-68.2744 1261.2,-65.6985 1163.85,-31.1825 837.517,-19.2646 744.276,-16.5198"/>
<polygon fill="red" stroke="red" stroke-width="0.429138" points="744.187,-13.0159 734.092,-16.2296 743.988,-20.0131 744.187,-13.0159"/>
</g>
</g>
</svg>
