<?xml version="1.0" encoding="UTF-8" standalone="no"?>
<!DOCTYPE svg PUBLIC "-//W3C//DTD SVG 1.1//EN"
 "http://www.w3.org/Graphics/SVG/1.1/DTD/svg11.dtd">
<!-- Generated by graphviz version 2.38.0 (20140413.2041)
 -->
<!-- Title: %3 Pages: 1 -->
<svg width="2544pt" height="485pt"
 viewBox="0.00 0.00 2544.02 484.60" xmlns="http://www.w3.org/2000/svg" xmlns:xlink="http://www.w3.org/1999/xlink">
<g id="graph0" class="graph" transform="scale(1 1) rotate(0) translate(4 480.6)">
<title>%3</title>
<polygon fill="white" stroke="none" points="-4,4 -4,-480.6 2540.02,-480.6 2540.02,4 -4,4"/>
<!-- &#45;1 -->
<g id="node1" class="node"><title>&#45;1</title>
<polygon fill="lightgray" stroke="black" points="234.489,-400.487 210.489,-400.487 210.489,-382.487 234.489,-382.487 234.489,-400.487"/>
<text text-anchor="middle" x="222.489" y="-389.287" font-family="Times New Roman,serif" font-size="9.00">&#45;1</text>
</g>
<!-- 0 -->
<g id="node10" class="node"><title>0</title>
<ellipse fill="lightblue" stroke="black" cx="941.489" cy="-195.037" rx="14.7" ry="14.7"/>
<text text-anchor="middle" x="941.489" y="-192.837" font-family="Times New Roman,serif" font-size="9.00">0</text>
</g>
<!-- &#45;1&#45;&gt;0 -->
<g id="edge1" class="edge"><title>&#45;1&#45;&gt;0</title>
<path fill="none" stroke="green" stroke-width="0.4502" stroke-dasharray="1,5" d="M225.994,-382.338C236.568,-358.872 270.652,-290.984 322.489,-262.149 375.221,-232.816 807.039,-204.347 916.395,-197.559"/>
<polygon fill="green" stroke="green" stroke-width="0.4502" points="916.726,-201.045 926.492,-196.937 916.296,-194.058 916.726,-201.045"/>
</g>
<!-- 2 -->
<g id="node12" class="node"><title>2</title>
<ellipse fill="lightblue" stroke="black" cx="720.489" cy="-14.8492" rx="14.7" ry="14.7"/>
<text text-anchor="middle" x="720.489" y="-12.6492" font-family="Times New Roman,serif" font-size="9.00">2</text>
</g>
<!-- &#45;1&#45;&gt;2 -->
<g id="edge2" class="edge"><title>&#45;1&#45;&gt;2</title>
<path fill="none" stroke="green" stroke-width="0.340899" stroke-dasharray="1,5" d="M212.891,-382.269C200.321,-370.803 178.896,-348.662 170.489,-324.375 161.442,-298.24 156.789,-286.174 170.489,-262.149 283.538,-63.8986 603.256,-24.675 695.367,-17.4089"/>
<polygon fill="green" stroke="green" stroke-width="0.340899" points="695.725,-20.8922 705.443,-16.6727 695.214,-13.9108 695.725,-20.8922"/>
</g>
<!-- 6 -->
<g id="node16" class="node"><title>6</title>
<ellipse fill="lightblue" stroke="black" cx="1216.49" cy="-96.8112" rx="14.7" ry="14.7"/>
<text text-anchor="middle" x="1216.49" y="-94.6112" font-family="Times New Roman,serif" font-size="9.00">6</text>
</g>
<!-- &#45;1&#45;&gt;6 -->
<g id="edge3" class="edge"><title>&#45;1&#45;&gt;6</title>
<path fill="none" stroke="red" stroke-width="0.161226" stroke-dasharray="1,5" d="M222.159,-382.324C221.714,-359.957 223.61,-297.042 256.489,-262.149 352.124,-160.655 418.069,-192.854 554.489,-163.924 679.995,-137.308 1086.2,-107.099 1191.42,-99.5767"/>
<polygon fill="red" stroke="red" stroke-width="0.161226" points="1191.96,-103.047 1201.69,-98.846 1191.47,-96.0643 1191.96,-103.047"/>
</g>
<!-- 7 -->
<g id="node17" class="node"><title>7</title>
<ellipse fill="lightblue" stroke="black" cx="1219.49" cy="-195.037" rx="14.7" ry="14.7"/>
<text text-anchor="middle" x="1219.49" y="-192.837" font-family="Times New Roman,serif" font-size="9.00">7</text>
</g>
<!-- &#45;1&#45;&gt;7 -->
<g id="edge4" class="edge"><title>&#45;1&#45;&gt;7</title>
<path fill="none" stroke="green" stroke-width="0.394884" stroke-dasharray="1,5" d="M234.01,-382.306C250.528,-370.361 281.582,-347.088 305.489,-324.375 332.248,-298.952 327.19,-278.073 360.489,-262.149 520.434,-185.665 985.649,-269.778 1157.49,-226.149 1171.81,-222.514 1186.73,-215.384 1198.35,-208.974"/>
<polygon fill="green" stroke="green" stroke-width="0.394884" points="1200.32,-211.875 1207.24,-203.851 1196.83,-205.808 1200.32,-211.875"/>
</g>
<!-- 8 -->
<g id="node18" class="node"><title>8</title>
<ellipse fill="lightblue" stroke="black" cx="1960.49" cy="-14.8492" rx="14.7" ry="14.7"/>
<text text-anchor="middle" x="1960.49" y="-12.6492" font-family="Times New Roman,serif" font-size="9.00">8</text>
</g>
<!-- &#45;1&#45;&gt;8 -->
<g id="edge5" class="edge"><title>&#45;1&#45;&gt;8</title>
<path fill="none" stroke="red" stroke-width="0.31136" stroke-dasharray="1,5" d="M219.772,-382.334C213.051,-360.523 198.027,-299.931 224.489,-262.149 365.024,-61.4924 499.523,-114.995 739.489,-65.6985 979.738,-16.3438 1782.02,-15.4777 1935.12,-15.7727"/>
<polygon fill="red" stroke="red" stroke-width="0.31136" points="1935.37,-19.2731 1945.38,-15.7962 1935.39,-12.2732 1935.37,-19.2731"/>
</g>
<!-- 326257 -->
<g id="node33" class="node"><title>326257</title>
<ellipse fill="white" stroke="black" cx="65.4886" cy="-96.8112" rx="31.2258" ry="31.2258"/>
<text text-anchor="middle" x="65.4886" y="-94.6112" font-family="Times New Roman,serif" font-size="9.00">326257</text>
</g>
<!-- &#45;1&#45;&gt;326257 -->
<g id="edge107" class="edge"><title>&#45;1&#45;&gt;326257</title>
<path fill="none" stroke="green" stroke-width="0.152447" d="M210.128,-388.092C183.926,-382.308 122.886,-364.947 94.4886,-324.375 55.6154,-268.835 55.7284,-186.437 60.0935,-137.821"/>
<polygon fill="green" stroke="green" stroke-width="0.152447" points="63.5942,-137.988 61.1093,-127.689 56.6291,-137.29 63.5942,-137.988"/>
</g>
<!-- 80502 -->
<g id="node34" class="node"><title>80502</title>
<ellipse fill="white" stroke="black" cx="932.489" cy="-293.262" rx="27.6545" ry="27.6545"/>
<text text-anchor="middle" x="932.489" y="-291.062" font-family="Times New Roman,serif" font-size="9.00">80502</text>
</g>
<!-- &#45;1&#45;&gt;80502 -->
<g id="edge100" class="edge"><title>&#45;1&#45;&gt;80502</title>
<path fill="none" stroke="red" stroke-width="0.252988" stroke-dasharray="1,5" d="M234.896,-388.217C265.155,-382.745 345.201,-368.673 412.489,-360.375 592.718,-338.149 640.646,-355.872 819.489,-324.375 845.671,-319.764 874.634,-311.991 896.682,-305.498"/>
<polygon fill="red" stroke="red" stroke-width="0.252988" points="897.715,-308.842 906.291,-302.62 895.707,-302.136 897.715,-308.842"/>
</g>
<!-- &#45;2 -->
<g id="node2" class="node"><title>&#45;2</title>
<polygon fill="lightgray" stroke="black" points="1169.49,-400.487 1145.49,-400.487 1145.49,-382.487 1169.49,-382.487 1169.49,-400.487"/>
<text text-anchor="middle" x="1157.49" y="-389.287" font-family="Times New Roman,serif" font-size="9.00">&#45;2</text>
</g>
<!-- &#45;2&#45;&gt;0 -->
<g id="edge6" class="edge"><title>&#45;2&#45;&gt;0</title>
<path fill="none" stroke="green" stroke-width="0.137413" stroke-dasharray="1,5" d="M1145.28,-389.348C1097.9,-384.65 927.201,-365.083 895.489,-324.375 869.238,-290.678 902.859,-240.711 924.983,-214.16"/>
<polygon fill="green" stroke="green" stroke-width="0.137413" points="927.786,-216.269 931.672,-206.412 922.488,-211.695 927.786,-216.269"/>
</g>
<!-- 1 -->
<g id="node11" class="node"><title>1</title>
<ellipse fill="lightblue" stroke="black" cx="1564.49" cy="-195.037" rx="14.7" ry="14.7"/>
<text text-anchor="middle" x="1564.49" y="-192.837" font-family="Times New Roman,serif" font-size="9.00">1</text>
</g>
<!-- &#45;2&#45;&gt;1 -->
<g id="edge7" class="edge"><title>&#45;2&#45;&gt;1</title>
<path fill="none" stroke="red" stroke-width="0.277012" stroke-dasharray="1,5" d="M1169.77,-389.597C1224.81,-385.395 1448.32,-365.985 1502.49,-324.375 1536.39,-298.329 1552.77,-248.98 1559.84,-219.648"/>
<polygon fill="red" stroke="red" stroke-width="0.277012" points="1563.27,-220.35 1562.04,-209.827 1556.44,-218.822 1563.27,-220.35"/>
</g>
<!-- &#45;2&#45;&gt;2 -->
<g id="edge8" class="edge"><title>&#45;2&#45;&gt;2</title>
<path fill="none" stroke="red" stroke-width="0.876287" stroke-dasharray="1,5" d="M1145.46,-389.475C1079.93,-383.843 767.78,-355.501 739.489,-324.375 665.905,-243.417 697.467,-95.7474 713.375,-38.9549"/>
<polygon fill="red" stroke="red" stroke-width="0.876287" points="716.795,-39.7282 716.224,-29.1488 710.073,-37.7755 716.795,-39.7282"/>
</g>
<!-- 3 -->
<g id="node13" class="node"><title>3</title>
<ellipse fill="lightblue" stroke="black" cx="2003.49" cy="-96.8112" rx="14.7" ry="14.7"/>
<text text-anchor="middle" x="2003.49" y="-94.6112" font-family="Times New Roman,serif" font-size="9.00">3</text>
</g>
<!-- &#45;2&#45;&gt;3 -->
<g id="edge9" class="edge"><title>&#45;2&#45;&gt;3</title>
<path fill="none" stroke="red" stroke-width="0.463928" stroke-dasharray="1,5" d="M1169.51,-388.536C1198.48,-383.26 1273.06,-366.189 1317.49,-324.375 1375.23,-270.033 1330.65,-209.562 1395.49,-163.924 1491.62,-96.2616 1876.34,-96.1872 1978.48,-97.4009"/>
<polygon fill="red" stroke="red" stroke-width="0.463928" points="1978.45,-100.901 1988.5,-97.5354 1978.54,-93.9013 1978.45,-100.901"/>
</g>
<!-- 4 -->
<g id="node14" class="node"><title>4</title>
<ellipse fill="lightblue" stroke="black" cx="1419.49" cy="-195.037" rx="14.7" ry="14.7"/>
<text text-anchor="middle" x="1419.49" y="-192.837" font-family="Times New Roman,serif" font-size="9.00">4</text>
</g>
<!-- &#45;2&#45;&gt;4 -->
<g id="edge10" class="edge"><title>&#45;2&#45;&gt;4</title>
<path fill="none" stroke="green" stroke-width="0.27138" stroke-dasharray="1,5" d="M1169.85,-389.362C1202.9,-385.762 1294.59,-371.816 1350.49,-324.375 1383.64,-296.237 1403.38,-248.025 1412.77,-219.382"/>
<polygon fill="green" stroke="green" stroke-width="0.27138" points="1416.13,-220.377 1415.77,-209.788 1409.45,-218.289 1416.13,-220.377"/>
</g>
<!-- 5 -->
<g id="node15" class="node"><title>5</title>
<ellipse fill="lightblue" stroke="black" cx="1834.49" cy="-195.037" rx="14.7" ry="14.7"/>
<text text-anchor="middle" x="1834.49" y="-192.837" font-family="Times New Roman,serif" font-size="9.00">5</text>
</g>
<!-- &#45;2&#45;&gt;5 -->
<g id="edge11" class="edge"><title>&#45;2&#45;&gt;5</title>
<path fill="none" stroke="red" stroke-width="0.624796" stroke-dasharray="1,5" d="M1169.59,-390.411C1263.58,-389.699 1874.83,-382.83 1928.49,-324.375 1947.19,-304.001 1942.53,-285.976 1928.49,-262.149 1911.72,-233.698 1889.68,-246.266 1863.49,-226.149 1859.07,-222.755 1854.69,-218.687 1850.73,-214.656"/>
<polygon fill="red" stroke="red" stroke-width="0.624796" points="1853.1,-212.063 1843.72,-207.136 1847.98,-216.837 1853.1,-212.063"/>
</g>
<!-- &#45;2&#45;&gt;6 -->
<g id="edge12" class="edge"><title>&#45;2&#45;&gt;6</title>
<path fill="none" stroke="red" stroke-width="0.216388" stroke-dasharray="1,5" d="M1158.45,-382.172C1162,-352.348 1175.18,-248.054 1195.49,-163.924 1199,-149.382 1204.05,-133.386 1208.31,-120.772"/>
<polygon fill="red" stroke="red" stroke-width="0.216388" points="1211.71,-121.671 1211.66,-111.076 1205.09,-119.385 1211.71,-121.671"/>
</g>
<!-- 50910 -->
<g id="node28" class="node"><title>50910</title>
<ellipse fill="white" stroke="black" cx="1044.49" cy="-293.262" rx="27.6545" ry="27.6545"/>
<text text-anchor="middle" x="1044.49" y="-291.062" font-family="Times New Roman,serif" font-size="9.00">50910</text>
</g>
<!-- &#45;2&#45;&gt;50910 -->
<g id="edge70" class="edge"><title>&#45;2&#45;&gt;50910</title>
<path fill="none" stroke="green" stroke-width="1.0433" d="M1147.85,-382.283C1131.45,-368.318 1097.51,-339.414 1072.99,-318.53"/>
<polygon fill="green" stroke="green" stroke-width="1.0433" points="1074.95,-315.607 1065.07,-311.789 1070.42,-320.937 1074.95,-315.607"/>
</g>
<!-- 97383 -->
<g id="node30" class="node"><title>97383</title>
<ellipse fill="white" stroke="black" cx="1120.49" cy="-195.037" rx="27.6545" ry="27.6545"/>
<text text-anchor="middle" x="1120.49" y="-192.837" font-family="Times New Roman,serif" font-size="9.00">97383</text>
</g>
<!-- &#45;2&#45;&gt;97383 -->
<g id="edge79" class="edge"><title>&#45;2&#45;&gt;97383</title>
<path fill="none" stroke="red" stroke-width="0.139898" d="M1155.9,-382.132C1151.05,-356.654 1136.25,-278.851 1127.39,-232.301"/>
<polygon fill="red" stroke="red" stroke-width="0.139898" points="1130.8,-231.481 1125.49,-222.312 1123.92,-232.79 1130.8,-231.481"/>
</g>
<!-- &#45;2&#45;&gt;80502 -->
<g id="edge75" class="edge"><title>&#45;2&#45;&gt;80502</title>
<path fill="none" stroke="green" stroke-width="0.423966" d="M1145.39,-385.314C1112.12,-371.085 1018.31,-330.967 967.029,-309.034"/>
<polygon fill="green" stroke="green" stroke-width="0.423966" points="968.242,-305.746 957.671,-305.032 965.489,-312.182 968.242,-305.746"/>
</g>
<!-- &#45;3 -->
<g id="node3" class="node"><title>&#45;3</title>
<polygon fill="lightgray" stroke="black" points="434.489,-476.6 410.489,-476.6 410.489,-458.6 434.489,-458.6 434.489,-476.6"/>
<text text-anchor="middle" x="422.489" y="-465.4" font-family="Times New Roman,serif" font-size="9.00">&#45;3</text>
</g>
<!-- &#45;3&#45;&gt;0 -->
<g id="edge13" class="edge"><title>&#45;3&#45;&gt;0</title>
<path fill="none" stroke="green" stroke-width="0.407623" stroke-dasharray="1,5" d="M434.727,-459.122C448.777,-450.488 472.465,-435.779 492.489,-422.6 597.515,-353.473 612.274,-316.844 725.489,-262.149 791.455,-230.281 876.164,-209.718 917.137,-200.931"/>
<polygon fill="green" stroke="green" stroke-width="0.407623" points="917.959,-204.335 927.028,-198.857 916.523,-197.483 917.959,-204.335"/>
</g>
<!-- &#45;3&#45;&gt;1 -->
<g id="edge14" class="edge"><title>&#45;3&#45;&gt;1</title>
<path fill="none" stroke="green" stroke-width="0.199692" stroke-dasharray="1,5" d="M434.501,-466.495C525.517,-465.621 1107.62,-458.674 1279.49,-422.6 1399.97,-397.31 1458.79,-418.21 1538.49,-324.375 1563.43,-295.005 1566.74,-248.265 1566.13,-220.032"/>
<polygon fill="green" stroke="green" stroke-width="0.199692" points="1569.62,-219.703 1565.72,-209.852 1562.63,-219.984 1569.62,-219.703"/>
</g>
<!-- &#45;3&#45;&gt;2 -->
<g id="edge15" class="edge"><title>&#45;3&#45;&gt;2</title>
<path fill="none" stroke="green" stroke-width="0.368064" stroke-dasharray="1,5" d="M410.189,-465.771C361.5,-462.331 182.478,-448.156 132.489,-422.6 61.3156,-386.215 6.48862,-374.196 6.48862,-294.262 6.48862,-294.262 6.48862,-294.262 6.48862,-194.037 6.48862,-136.376 -16.7911,-104.906 25.4886,-65.6985 75.4885,-19.3322 576.559,-15.9711 695.336,-15.8288"/>
<polygon fill="green" stroke="green" stroke-width="0.368064" points="695.611,-19.3288 705.609,-15.8237 695.608,-12.3288 695.611,-19.3288"/>
</g>
<!-- &#45;3&#45;&gt;3 -->
<g id="edge16" class="edge"><title>&#45;3&#45;&gt;3</title>
<path fill="none" stroke="green" stroke-width="0.125797" stroke-dasharray="1,5" d="M434.498,-466.586C584.783,-466.376 2098.34,-463.258 2291.49,-422.6 2403.47,-399.028 2465.85,-419.481 2529.49,-324.375 2548.79,-295.534 2510.93,-164.319 2510.49,-163.924 2436.57,-97.7459 2161.2,-154.045 2065.49,-127.924 2051.24,-124.035 2036.32,-116.895 2024.68,-110.544"/>
<polygon fill="green" stroke="green" stroke-width="0.125797" points="2026.19,-107.378 2015.77,-105.483 2022.74,-113.465 2026.19,-107.378"/>
</g>
<!-- &#45;3&#45;&gt;4 -->
<g id="edge17" class="edge"><title>&#45;3&#45;&gt;4</title>
<path fill="none" stroke="red" stroke-width="0.432924" stroke-dasharray="1,5" d="M434.701,-466.525C520.138,-465.906 1029.28,-460.647 1178.49,-422.6 1277.55,-397.34 1321.36,-403.18 1386.49,-324.375 1411.2,-294.473 1417.68,-248.284 1419.22,-220.236"/>
<polygon fill="red" stroke="red" stroke-width="0.432924" points="1422.72,-220.231 1419.6,-210.105 1415.72,-219.966 1422.72,-220.231"/>
</g>
<!-- &#45;3&#45;&gt;6 -->
<g id="edge18" class="edge"><title>&#45;3&#45;&gt;6</title>
<path fill="none" stroke="red" stroke-width="0.587868" stroke-dasharray="1,5" d="M410.063,-459.706C398.055,-452.282 380.536,-439.259 372.489,-422.6 341.456,-358.357 328.317,-321.78 367.489,-262.149 371.261,-256.407 587.844,-165.671 594.489,-163.924 710.649,-133.378 1090.48,-106.258 1191.58,-99.4501"/>
<polygon fill="red" stroke="red" stroke-width="0.587868" points="1192,-102.93 1201.75,-98.7711 1191.54,-95.9454 1192,-102.93"/>
</g>
<!-- &#45;3&#45;&gt;7 -->
<g id="edge19" class="edge"><title>&#45;3&#45;&gt;7</title>
<path fill="none" stroke="green" stroke-width="0.396772" stroke-dasharray="1,5" d="M417.45,-458.582C399.046,-428.193 339.295,-318.957 393.489,-262.149 452.149,-200.659 1075.14,-247.142 1157.49,-226.149 1171.8,-222.5 1186.73,-215.369 1198.35,-208.962"/>
<polygon fill="green" stroke="green" stroke-width="0.396772" points="1200.32,-211.864 1207.24,-203.843 1196.83,-205.797 1200.32,-211.864"/>
</g>
<!-- &#45;3&#45;&gt;8 -->
<g id="edge20" class="edge"><title>&#45;3&#45;&gt;8</title>
<path fill="none" stroke="green" stroke-width="0.384116" stroke-dasharray="1,5" d="M410.246,-466.119C367.841,-464.172 228.351,-455.338 201.489,-422.6 89.176,-285.722 211.633,-124.935 378.489,-65.6985 531.144,-11.5028 1744.8,-14.8531 1935.35,-15.7191"/>
<polygon fill="green" stroke="green" stroke-width="0.384116" points="1935.49,-19.2197 1945.5,-15.7674 1935.52,-12.2198 1935.49,-19.2197"/>
</g>
<!-- 204134 -->
<g id="node29" class="node"><title>204134</title>
<ellipse fill="white" stroke="black" cx="433.489" cy="-293.262" rx="31.2258" ry="31.2258"/>
<text text-anchor="middle" x="433.489" y="-291.062" font-family="Times New Roman,serif" font-size="9.00">204134</text>
</g>
<!-- &#45;3&#45;&gt;204134 -->
<g id="edge91" class="edge"><title>&#45;3&#45;&gt;204134</title>
<path fill="none" stroke="red" stroke-width="0.363705" stroke-dasharray="1,5" d="M420.097,-458.583C417.622,-449.834 413.921,-435.367 412.489,-422.6 409.405,-395.117 408.252,-387.704 412.489,-360.375 413.938,-351.023 416.476,-341.184 419.298,-332.037"/>
<polygon fill="red" stroke="red" stroke-width="0.363705" points="422.655,-333.032 422.434,-322.439 416.001,-330.858 422.655,-333.032"/>
</g>
<!-- 292854 -->
<g id="node35" class="node"><title>292854</title>
<ellipse fill="white" stroke="black" cx="452.489" cy="-391.487" rx="31.2258" ry="31.2258"/>
<text text-anchor="middle" x="452.489" y="-389.287" font-family="Times New Roman,serif" font-size="9.00">292854</text>
</g>
<!-- &#45;3&#45;&gt;292854 -->
<g id="edge101" class="edge"><title>&#45;3&#45;&gt;292854</title>
<path fill="none" stroke="red" stroke-width="0.249374" d="M425.814,-458.386C428.669,-451.331 433.002,-440.628 437.35,-429.886"/>
<polygon fill="red" stroke="red" stroke-width="0.249374" points="440.63,-431.11 441.138,-420.528 434.142,-428.484 440.63,-431.11"/>
</g>
<!-- &#45;4 -->
<g id="node4" class="node"><title>&#45;4</title>
<polygon fill="lightgray" stroke="black" points="1905.49,-400.487 1881.49,-400.487 1881.49,-382.487 1905.49,-382.487 1905.49,-400.487"/>
<text text-anchor="middle" x="1893.49" y="-389.287" font-family="Times New Roman,serif" font-size="9.00">&#45;4</text>
</g>
<!-- &#45;4&#45;&gt;0 -->
<g id="edge21" class="edge"><title>&#45;4&#45;&gt;0</title>
<path fill="none" stroke="green" stroke-width="0.762481" stroke-dasharray="1,5" d="M1881.41,-390.009C1800.07,-386.688 1331.38,-365.969 1195.49,-324.375 1140.29,-307.48 1132.94,-288.313 1081.49,-262.149 1040.52,-241.316 991.816,-218.816 963.992,-206.172"/>
<polygon fill="green" stroke="green" stroke-width="0.762481" points="965.291,-202.918 954.738,-201.981 962.403,-209.295 965.291,-202.918"/>
</g>
<!-- &#45;4&#45;&gt;1 -->
<g id="edge22" class="edge"><title>&#45;4&#45;&gt;1</title>
<path fill="none" stroke="green" stroke-width="0.235892" stroke-dasharray="1,5" d="M1882.58,-382.404C1853.82,-361.266 1773.19,-303.147 1701.49,-262.149 1690.8,-256.038 1623,-223.753 1586.95,-206.666"/>
<polygon fill="green" stroke="green" stroke-width="0.235892" points="1588.24,-203.402 1577.7,-202.284 1585.24,-209.728 1588.24,-203.402"/>
</g>
<!-- &#45;4&#45;&gt;3 -->
<g id="edge23" class="edge"><title>&#45;4&#45;&gt;3</title>
<path fill="none" stroke="green" stroke-width="0.331842" d="M1905.63,-388.891C1949.05,-382.915 2095.44,-360.339 2122.49,-324.375 2139.11,-302.273 2131.01,-288.458 2122.49,-262.149 2111.98,-229.73 2049.38,-152.438 2019.43,-116.623"/>
<polygon fill="green" stroke="green" stroke-width="0.331842" points="2022.01,-114.258 2012.9,-108.854 2016.66,-118.761 2022.01,-114.258"/>
</g>
<!-- &#45;4&#45;&gt;4 -->
<g id="edge24" class="edge"><title>&#45;4&#45;&gt;4</title>
<path fill="none" stroke="green" stroke-width="0.622659" d="M1881.38,-388.984C1842.37,-383.844 1716.96,-364.991 1621.49,-324.375 1549.19,-293.618 1473.48,-238.273 1438.85,-211.447"/>
<polygon fill="green" stroke="green" stroke-width="0.622659" points="1440.61,-208.383 1430.58,-204.977 1436.3,-213.896 1440.61,-208.383"/>
</g>
<!-- &#45;4&#45;&gt;5 -->
<g id="edge25" class="edge"><title>&#45;4&#45;&gt;5</title>
<path fill="none" stroke="green" stroke-width="0.116638" stroke-dasharray="1,5" d="M1905.67,-383.906C1922.99,-373.765 1954.01,-352.509 1966.49,-324.375 1977.7,-299.094 1982.5,-284.701 1966.49,-262.149 1938.42,-222.605 1904.31,-252.327 1863.49,-226.149 1858.72,-223.093 1854.17,-219.104 1850.14,-215.034"/>
<polygon fill="green" stroke="green" stroke-width="0.116638" points="1852.45,-212.366 1843.12,-207.332 1847.27,-217.081 1852.45,-212.366"/>
</g>
<!-- &#45;4&#45;&gt;6 -->
<g id="edge26" class="edge"><title>&#45;4&#45;&gt;6</title>
<path fill="none" stroke="green" stroke-width="0.120207" stroke-dasharray="1,5" d="M1905.68,-390.783C1941.3,-390.902 2045.4,-385.778 2089.49,-324.375 2105.62,-301.91 2104.16,-285.595 2089.49,-262.149 2070.09,-231.142 2048.2,-242.514 2015.49,-226.149 1961.41,-199.092 1952.5,-180.99 1894.49,-163.924 1768.2,-126.773 1348.83,-104.24 1241.62,-98.9951"/>
<polygon fill="green" stroke="green" stroke-width="0.120207" points="1241.59,-95.4899 1231.44,-98.5034 1241.26,-102.482 1241.59,-95.4899"/>
</g>
<!-- &#45;4&#45;&gt;8 -->
<g id="edge27" class="edge"><title>&#45;4&#45;&gt;8</title>
<path fill="none" stroke="red" stroke-width="0.131831" d="M1905.68,-389.142C1955.61,-383.43 2143.97,-359.848 2190.49,-324.375 2229.77,-294.423 2229.85,-273.901 2242.49,-226.149 2260.74,-157.199 2291.37,-120.304 2245.49,-65.6985 2212.34,-26.2459 2049.25,-18.0125 1985.8,-16.2984"/>
<polygon fill="red" stroke="red" stroke-width="0.131831" points="1985.58,-12.7923 1975.5,-16.0548 1985.42,-19.7904 1985.58,-12.7923"/>
</g>
<!-- 266002 -->
<g id="node20" class="node"><title>266002</title>
<ellipse fill="white" stroke="black" cx="1661.49" cy="-293.262" rx="31.2258" ry="31.2258"/>
<text text-anchor="middle" x="1661.49" y="-291.062" font-family="Times New Roman,serif" font-size="9.00">266002</text>
</g>
<!-- &#45;4&#45;&gt;266002 -->
<g id="edge96" class="edge"><title>&#45;4&#45;&gt;266002</title>
<path fill="none" stroke="red" stroke-width="0.229341" d="M1881.25,-387.31C1850.75,-379.148 1769.28,-355.861 1706.49,-324.375 1702.71,-322.479 1698.86,-320.319 1695.1,-318.046"/>
<polygon fill="red" stroke="red" stroke-width="0.229341" points="1696.84,-315.006 1686.52,-312.611 1693.09,-320.919 1696.84,-315.006"/>
</g>
<!-- 116683 -->
<g id="node26" class="node"><title>116683</title>
<ellipse fill="white" stroke="black" cx="1235.49" cy="-293.262" rx="31.2258" ry="31.2258"/>
<text text-anchor="middle" x="1235.49" y="-291.062" font-family="Times New Roman,serif" font-size="9.00">116683</text>
</g>
<!-- &#45;4&#45;&gt;116683 -->
<g id="edge103" class="edge"><title>&#45;4&#45;&gt;116683</title>
<path fill="none" stroke="red" stroke-width="0.202187" stroke-dasharray="1,5" d="M1881.28,-390.065C1804.88,-387.289 1391.92,-370.33 1275.49,-324.375 1272.59,-323.231 1269.72,-321.817 1266.93,-320.231"/>
<polygon fill="red" stroke="red" stroke-width="0.202187" points="1268.63,-317.163 1258.32,-314.7 1264.84,-323.052 1268.63,-317.163"/>
</g>
<!-- 173527 -->
<g id="node27" class="node"><title>173527</title>
<ellipse fill="white" stroke="black" cx="2202.49" cy="-195.037" rx="31.2258" ry="31.2258"/>
<text text-anchor="middle" x="2202.49" y="-192.837" font-family="Times New Roman,serif" font-size="9.00">173527</text>
</g>
<!-- &#45;4&#45;&gt;173527 -->
<g id="edge93" class="edge"><title>&#45;4&#45;&gt;173527</title>
<path fill="none" stroke="green" stroke-width="0.706917" stroke-dasharray="1,5" d="M1905.56,-389.054C1952.48,-383.256 2122,-360.128 2160.49,-324.375 2184.89,-301.708 2195.14,-264.679 2199.43,-236.207"/>
<polygon fill="green" stroke="green" stroke-width="0.706917" points="2202.92,-236.519 2200.76,-226.147 2195.98,-235.603 2202.92,-236.519"/>
</g>
<!-- &#45;5 -->
<g id="node5" class="node"><title>&#45;5</title>
<polygon fill="lightgray" stroke="black" points="2080.49,-302.262 2056.49,-302.262 2056.49,-284.262 2080.49,-284.262 2080.49,-302.262"/>
<text text-anchor="middle" x="2068.49" y="-291.062" font-family="Times New Roman,serif" font-size="9.00">&#45;5</text>
</g>
<!-- &#45;5&#45;&gt;0 -->
<g id="edge28" class="edge"><title>&#45;5&#45;&gt;0</title>
<path fill="none" stroke="green" stroke-width="0.202836" stroke-dasharray="1,5" d="M2056.4,-289.607C2028.31,-283.559 1956.41,-268.774 1895.49,-262.149 1536.36,-223.096 1441.84,-271.773 1083.49,-226.149 1041.59,-220.815 993.695,-209.56 965.608,-202.422"/>
<polygon fill="green" stroke="green" stroke-width="0.202836" points="966.425,-199.018 955.868,-199.909 964.676,-205.796 966.425,-199.018"/>
</g>
<!-- &#45;5&#45;&gt;1 -->
<g id="edge29" class="edge"><title>&#45;5&#45;&gt;1</title>
<path fill="none" stroke="red" stroke-width="0.216086" stroke-dasharray="1,5" d="M2056.03,-289.883C1989.9,-277.257 1679.59,-218.011 1589.23,-200.76"/>
<polygon fill="red" stroke="red" stroke-width="0.216086" points="1589.81,-197.308 1579.33,-198.871 1588.5,-204.184 1589.81,-197.308"/>
</g>
<!-- &#45;5&#45;&gt;2 -->
<g id="edge30" class="edge"><title>&#45;5&#45;&gt;2</title>
<path fill="none" stroke="green" stroke-width="0.166779" stroke-dasharray="1,5" d="M2058.58,-284.214C2050.97,-278.077 2040.15,-269.464 2030.49,-262.149 2000.76,-239.653 1928.95,-178.147 1894.49,-163.924 1675.19,-73.4108 895.954,-25.6897 745.674,-17.2232"/>
<polygon fill="green" stroke="green" stroke-width="0.166779" points="745.771,-13.7233 735.592,-16.6613 745.381,-20.7125 745.771,-13.7233"/>
</g>
<!-- &#45;5&#45;&gt;3 -->
<g id="edge31" class="edge"><title>&#45;5&#45;&gt;3</title>
<path fill="none" stroke="green" stroke-width="1.01451" stroke-dasharray="1,5" d="M2065.7,-283.907C2056.31,-255.835 2025.7,-164.248 2011.21,-120.923"/>
<polygon fill="green" stroke="green" stroke-width="1.01451" points="2014.47,-119.628 2007.98,-111.253 2007.83,-121.847 2014.47,-119.628"/>
</g>
<!-- &#45;5&#45;&gt;4 -->
<g id="edge32" class="edge"><title>&#45;5&#45;&gt;4</title>
<path fill="none" stroke="green" stroke-width="1.54086" d="M2056.37,-289.846C2028.22,-284.301 1956.19,-270.5 1895.49,-262.149 1738.38,-240.538 1696.72,-253.368 1540.49,-226.149 1506.31,-220.194 1467.5,-209.892 1443.25,-203.02"/>
<polygon fill="green" stroke="green" stroke-width="1.54086" points="1444.08,-199.618 1433.51,-200.22 1442.15,-206.346 1444.08,-199.618"/>
</g>
<!-- &#45;5&#45;&gt;5 -->
<g id="edge33" class="edge"><title>&#45;5&#45;&gt;5</title>
<path fill="none" stroke="green" stroke-width="0.143075" d="M2063.59,-284.012C2059.02,-277.066 2051.55,-267.443 2042.49,-262.149 1972.41,-221.23 1934.65,-265.15 1863.49,-226.149 1858.4,-223.359 1853.66,-219.372 1849.54,-215.208"/>
<polygon fill="green" stroke="green" stroke-width="0.143075" points="1852.15,-212.873 1842.88,-207.744 1846.93,-217.535 1852.15,-212.873"/>
</g>
<!-- &#45;5&#45;&gt;6 -->
<g id="edge34" class="edge"><title>&#45;5&#45;&gt;6</title>
<path fill="none" stroke="red" stroke-width="0.337209" stroke-dasharray="1,5" d="M2060.13,-283.997C2052.85,-277.234 2041.74,-267.88 2030.49,-262.149 1977.45,-235.132 1949.96,-260.693 1901.49,-226.149 1874.11,-206.641 1887.42,-181.045 1858.49,-163.924 1804.48,-131.962 1353.3,-105.308 1241.48,-99.1507"/>
<polygon fill="red" stroke="red" stroke-width="0.337209" points="1241.65,-95.6545 1231.47,-98.6044 1241.26,-102.644 1241.65,-95.6545"/>
</g>
<!-- &#45;5&#45;&gt;7 -->
<g id="edge35" class="edge"><title>&#45;5&#45;&gt;7</title>
<path fill="none" stroke="red" stroke-width="0.127227" stroke-dasharray="1,5" d="M2056.39,-289.723C2028.27,-283.92 1956.31,-269.613 1895.49,-262.149 1674.35,-235.012 1616.67,-252.968 1395.49,-226.149 1341.06,-219.55 1277.84,-207.697 1243.94,-200.999"/>
<polygon fill="red" stroke="red" stroke-width="0.127227" points="1244.51,-197.543 1234.02,-199.018 1243.14,-204.408 1244.51,-197.543"/>
</g>
<!-- &#45;5&#45;&gt;8 -->
<g id="edge36" class="edge"><title>&#45;5&#45;&gt;8</title>
<path fill="none" stroke="green" stroke-width="0.423204" stroke-dasharray="1,5" d="M2061.8,-284.087C2052.09,-271.962 2033.89,-248.26 2021.49,-226.149 1998.27,-184.736 1992.88,-173.474 1979.49,-127.924 1970.78,-98.3108 1965.62,-63.0481 1962.92,-40.0929"/>
<polygon fill="green" stroke="green" stroke-width="0.423204" points="1966.37,-39.4449 1961.79,-29.8914 1959.42,-40.2161 1966.37,-39.4449"/>
</g>
<!-- 283818 -->
<g id="node24" class="node"><title>283818</title>
<ellipse fill="white" stroke="black" cx="2105.49" cy="-96.8112" rx="31.2258" ry="31.2258"/>
<text text-anchor="middle" x="2105.49" y="-94.6112" font-family="Times New Roman,serif" font-size="9.00">283818</text>
</g>
<!-- &#45;5&#45;&gt;283818 -->
<g id="edge98" class="edge"><title>&#45;5&#45;&gt;283818</title>
<path fill="none" stroke="red" stroke-width="0.114305" d="M2070.11,-284.124C2072.6,-271.653 2077.48,-247.058 2081.49,-226.149 2087.17,-196.507 2093.44,-162.98 2098.14,-137.629"/>
<polygon fill="red" stroke="red" stroke-width="0.114305" points="2101.61,-138.118 2099.99,-127.648 2094.73,-136.843 2101.61,-138.118"/>
</g>
<!-- &#45;5&#45;&gt;173527 -->
<g id="edge86" class="edge"><title>&#45;5&#45;&gt;173527</title>
<path fill="none" stroke="green" stroke-width="0.855327" d="M2079.91,-284.058C2099.5,-269.993 2140.19,-240.776 2169.31,-219.86"/>
<polygon fill="green" stroke="green" stroke-width="0.855327" points="2171.49,-222.607 2177.57,-213.931 2167.4,-216.921 2171.49,-222.607"/>
</g>
<!-- &#45;6 -->
<g id="node6" class="node"><title>&#45;6</title>
<polygon fill="lightgray" stroke="black" points="839.489,-400.487 815.489,-400.487 815.489,-382.487 839.489,-382.487 839.489,-400.487"/>
<text text-anchor="middle" x="827.489" y="-389.287" font-family="Times New Roman,serif" font-size="9.00">&#45;6</text>
</g>
<!-- &#45;6&#45;&gt;0 -->
<g id="edge37" class="edge"><title>&#45;6&#45;&gt;0</title>
<path fill="none" stroke="red" stroke-width="0.131966" stroke-dasharray="1,5" d="M815.236,-385.635C795.052,-376.884 755.456,-356.342 739.489,-324.375 727.131,-299.634 723.257,-284.541 739.489,-262.149 780.617,-205.413 871.886,-196.471 916.272,-195.636"/>
<polygon fill="red" stroke="red" stroke-width="0.131966" points="916.509,-199.135 926.487,-195.574 916.466,-192.135 916.509,-199.135"/>
</g>
<!-- &#45;6&#45;&gt;1 -->
<g id="edge38" class="edge"><title>&#45;6&#45;&gt;1</title>
<path fill="none" stroke="red" stroke-width="0.138484" stroke-dasharray="1,5" d="M839.564,-389.426C905.632,-383.536 1223.79,-354.045 1317.49,-324.375 1407.01,-296.03 1502.93,-236.779 1543.96,-209.867"/>
<polygon fill="red" stroke="red" stroke-width="0.138484" points="1545.9,-212.782 1552.31,-204.343 1542.04,-206.946 1545.9,-212.782"/>
</g>
<!-- &#45;6&#45;&gt;2 -->
<g id="edge39" class="edge"><title>&#45;6&#45;&gt;2</title>
<path fill="none" stroke="green" stroke-width="0.354023" stroke-dasharray="1,5" d="M815.213,-390.323C774.613,-389.232 642.274,-381.256 554.489,-324.375 508.165,-294.359 496.336,-278.382 478.489,-226.149 469.546,-199.979 464.967,-188.049 478.489,-163.924 526.151,-78.8837 644.766,-36.8289 696.133,-22.1242"/>
<polygon fill="green" stroke="green" stroke-width="0.354023" points="697.314,-25.4291 706.024,-19.3958 695.453,-18.6811 697.314,-25.4291"/>
</g>
<!-- &#45;6&#45;&gt;3 -->
<g id="edge40" class="edge"><title>&#45;6&#45;&gt;3</title>
<path fill="none" stroke="green" stroke-width="0.31343" stroke-dasharray="1,5" d="M815.179,-386.832C792.538,-379.362 744.837,-359.974 725.489,-324.375 712.282,-300.076 711.058,-285.741 725.489,-262.149 775.504,-180.381 825.029,-189.199 917.489,-163.924 1022.92,-135.103 1825.46,-104.354 1978.37,-98.7229"/>
<polygon fill="green" stroke="green" stroke-width="0.31343" points="1978.74,-102.212 1988.6,-98.3478 1978.48,-95.2164 1978.74,-102.212"/>
</g>
<!-- &#45;6&#45;&gt;4 -->
<g id="edge41" class="edge"><title>&#45;6&#45;&gt;4</title>
<path fill="none" stroke="red" stroke-width="0.737726" stroke-dasharray="1,5" d="M839.869,-387.368C866.349,-380.178 929.335,-360.247 969.489,-324.375 993.654,-302.785 980.508,-280.096 1007.49,-262.149 1095.83,-203.386 1138.75,-243.097 1243.49,-226.149 1297.61,-217.392 1360.95,-206.363 1394.94,-200.38"/>
<polygon fill="red" stroke="red" stroke-width="0.737726" points="1395.66,-203.808 1404.9,-198.624 1394.44,-196.914 1395.66,-203.808"/>
</g>
<!-- &#45;6&#45;&gt;5 -->
<g id="edge42" class="edge"><title>&#45;6&#45;&gt;5</title>
<path fill="none" stroke="red" stroke-width="0.73766" stroke-dasharray="1,5" d="M839.544,-389.095C880.868,-384.367 1020.64,-368.762 1136.49,-360.375 1178.59,-357.327 1866.35,-354.923 1895.49,-324.375 1914.58,-304.361 1906.89,-287.343 1895.49,-262.149 1885.49,-240.058 1870.45,-244.408 1854.49,-226.149 1851.94,-223.237 1849.46,-219.982 1847.17,-216.718"/>
<polygon fill="red" stroke="red" stroke-width="0.73766" points="1850.03,-214.697 1841.59,-208.286 1844.19,-218.558 1850.03,-214.697"/>
</g>
<!-- &#45;6&#45;&gt;6 -->
<g id="edge43" class="edge"><title>&#45;6&#45;&gt;6</title>
<path fill="none" stroke="green" stroke-width="0.182874" stroke-dasharray="1,5" d="M815.487,-390.806C779.943,-391.013 674.934,-386.172 630.489,-324.375 588.851,-266.481 582.974,-217.1 630.489,-163.924 649.553,-142.588 1082.26,-108.094 1191.58,-99.6979"/>
<polygon fill="green" stroke="green" stroke-width="0.182874" points="1191.96,-103.179 1201.67,-98.9267 1191.43,-96.1991 1191.96,-103.179"/>
</g>
<!-- &#45;6&#45;&gt;7 -->
<g id="edge44" class="edge"><title>&#45;6&#45;&gt;7</title>
<path fill="none" stroke="red" stroke-width="0.337687" d="M829.082,-382.484C834.134,-359.412 852.088,-292.486 895.489,-262.149 991.825,-194.81 1045.01,-260.248 1157.49,-226.149 1171.62,-221.864 1186.54,-214.71 1198.2,-208.451"/>
<polygon fill="red" stroke="red" stroke-width="0.337687" points="1200.1,-211.401 1207.14,-203.485 1196.7,-205.281 1200.1,-211.401"/>
</g>
<!-- &#45;6&#45;&gt;8 -->
<g id="edge45" class="edge"><title>&#45;6&#45;&gt;8</title>
<path fill="none" stroke="green" stroke-width="0.815952" d="M815.264,-388.89C771.558,-382.908 624.166,-360.318 596.489,-324.375 552.977,-267.869 548.215,-218.19 594.489,-163.924 627.344,-125.394 769.515,-136.09 819.489,-127.924 985.357,-100.819 1025.53,-84.9937 1192.49,-65.6985 1483.27,-32.093 1838.8,-19.498 1935.31,-16.5639"/>
<polygon fill="green" stroke="green" stroke-width="0.815952" points="1935.65,-20.0556 1945.54,-16.2601 1935.44,-13.0587 1935.65,-20.0556"/>
</g>
<!-- 312587 -->
<g id="node19" class="node"><title>312587</title>
<ellipse fill="white" stroke="black" cx="779.489" cy="-293.262" rx="31.2258" ry="31.2258"/>
<text text-anchor="middle" x="779.489" y="-291.062" font-family="Times New Roman,serif" font-size="9.00">312587</text>
</g>
<!-- &#45;6&#45;&gt;312587 -->
<g id="edge105" class="edge"><title>&#45;6&#45;&gt;312587</title>
<path fill="none" stroke="red" stroke-width="0.27228" d="M823.396,-382.283C817.707,-370.878 807.048,-349.509 797.656,-330.683"/>
<polygon fill="red" stroke="red" stroke-width="0.27228" points="800.771,-329.086 793.175,-321.699 794.507,-332.21 800.771,-329.086"/>
</g>
<!-- &#45;6&#45;&gt;116683 -->
<g id="edge81" class="edge"><title>&#45;6&#45;&gt;116683</title>
<path fill="none" stroke="green" stroke-width="0.178526" d="M839.699,-387.608C892.938,-375.051 1106.09,-324.78 1195.6,-303.67"/>
<polygon fill="green" stroke="green" stroke-width="0.178526" points="1196.45,-307.066 1205.38,-301.364 1194.84,-300.253 1196.45,-307.066"/>
</g>
<!-- &#45;6&#45;&gt;50910 -->
<g id="edge72" class="edge"><title>&#45;6&#45;&gt;50910</title>
<path fill="none" stroke="green" stroke-width="0.459704" stroke-dasharray="1,5" d="M839.843,-387.037C869.131,-378.603 944.653,-355.344 1002.49,-324.375 1006.51,-322.22 1010.6,-319.732 1014.56,-317.129"/>
<polygon fill="green" stroke="green" stroke-width="0.459704" points="1016.72,-319.892 1022.96,-311.331 1012.74,-314.13 1016.72,-319.892"/>
</g>
<!-- &#45;7 -->
<g id="node7" class="node"><title>&#45;7</title>
<polygon fill="lightgray" stroke="black" points="1308.49,-302.262 1284.49,-302.262 1284.49,-284.262 1308.49,-284.262 1308.49,-302.262"/>
<text text-anchor="middle" x="1296.49" y="-291.062" font-family="Times New Roman,serif" font-size="9.00">&#45;7</text>
</g>
<!-- &#45;7&#45;&gt;0 -->
<g id="edge46" class="edge"><title>&#45;7&#45;&gt;0</title>
<path fill="none" stroke="green" stroke-width="1.24749" stroke-dasharray="1,5" d="M1292.94,-283.994C1289.5,-277.037 1283.63,-267.406 1275.49,-262.149 1202.56,-215.036 1168.63,-243.156 1083.49,-226.149 1042.07,-217.876 994.026,-207.53 965.78,-201.37"/>
<polygon fill="green" stroke="green" stroke-width="1.24749" points="966.496,-197.944 955.979,-199.228 965.001,-204.783 966.496,-197.944"/>
</g>
<!-- &#45;7&#45;&gt;1 -->
<g id="edge47" class="edge"><title>&#45;7&#45;&gt;1</title>
<path fill="none" stroke="green" stroke-width="0.154785" stroke-dasharray="1,5" d="M1308.7,-287.877C1350.16,-272.99 1486.02,-224.211 1541.04,-204.456"/>
<polygon fill="green" stroke="green" stroke-width="0.154785" points="1542.39,-207.689 1550.62,-201.015 1540.03,-201.101 1542.39,-207.689"/>
</g>
<!-- &#45;7&#45;&gt;2 -->
<g id="edge48" class="edge"><title>&#45;7&#45;&gt;2</title>
<path fill="none" stroke="green" stroke-width="0.46694" stroke-dasharray="1,5" d="M1297.52,-283.892C1301.18,-250.036 1309.83,-122.349 1240.49,-65.6985 1201.77,-34.0695 843.964,-19.9438 745.478,-16.6344"/>
<polygon fill="green" stroke="green" stroke-width="0.46694" points="745.389,-13.1297 735.28,-16.2996 745.159,-20.126 745.389,-13.1297"/>
</g>
<!-- &#45;7&#45;&gt;3 -->
<g id="edge49" class="edge"><title>&#45;7&#45;&gt;3</title>
<path fill="none" stroke="green" stroke-width="0.179095" stroke-dasharray="1,5" d="M1297.91,-284.195C1302.46,-260.95 1319.04,-193.601 1362.49,-163.924 1414.23,-128.58 1866.35,-104.463 1978.43,-98.9926"/>
<polygon fill="green" stroke="green" stroke-width="0.179095" points="1978.65,-102.486 1988.47,-98.5084 1978.31,-95.4943 1978.65,-102.486"/>
</g>
<!-- &#45;7&#45;&gt;4 -->
<g id="edge50" class="edge"><title>&#45;7&#45;&gt;4</title>
<path fill="none" stroke="green" stroke-width="0.366398" stroke-dasharray="1,5" d="M1306.98,-284.058C1327.54,-267.97 1373.45,-232.053 1399.83,-211.416"/>
<polygon fill="green" stroke="green" stroke-width="0.366398" points="1402.24,-213.972 1407.96,-205.054 1397.93,-208.459 1402.24,-213.972"/>
</g>
<!-- &#45;7&#45;&gt;5 -->
<g id="edge51" class="edge"><title>&#45;7&#45;&gt;5</title>
<path fill="none" stroke="red" stroke-width="0.143806" stroke-dasharray="1,5" d="M1308.74,-290.071C1377.49,-277.774 1715.75,-217.274 1810.04,-200.409"/>
<polygon fill="red" stroke="red" stroke-width="0.143806" points="1810.84,-203.822 1820.07,-198.616 1809.61,-196.932 1810.84,-203.822"/>
</g>
<!-- &#45;7&#45;&gt;6 -->
<g id="edge52" class="edge"><title>&#45;7&#45;&gt;6</title>
<path fill="none" stroke="red" stroke-width="0.605614" stroke-dasharray="1,5" d="M1293.05,-283.907C1281.42,-255.641 1243.3,-162.98 1225.63,-120.032"/>
<polygon fill="red" stroke="red" stroke-width="0.605614" points="1228.84,-118.636 1221.8,-110.72 1222.37,-121.3 1228.84,-118.636"/>
</g>
<!-- &#45;7&#45;&gt;7 -->
<g id="edge53" class="edge"><title>&#45;7&#45;&gt;7</title>
<path fill="none" stroke="green" stroke-width="0.583313" d="M1291.16,-284.191C1287.03,-278.042 1281.09,-269.423 1275.49,-262.149 1262.7,-245.525 1247.22,-227.394 1235.79,-214.331"/>
<polygon fill="green" stroke="green" stroke-width="0.583313" points="1238.16,-211.732 1228.92,-206.546 1232.91,-216.361 1238.16,-211.732"/>
</g>
<!-- &#45;8 -->
<g id="node8" class="node"><title>&#45;8</title>
<polygon fill="lightgray" stroke="black" points="2282.49,-400.487 2258.49,-400.487 2258.49,-382.487 2282.49,-382.487 2282.49,-400.487"/>
<text text-anchor="middle" x="2270.49" y="-389.287" font-family="Times New Roman,serif" font-size="9.00">&#45;8</text>
</g>
<!-- &#45;8&#45;&gt;0 -->
<g id="edge54" class="edge"><title>&#45;8&#45;&gt;0</title>
<path fill="none" stroke="green" stroke-width="0.302027" stroke-dasharray="1,5" d="M2258.38,-389.421C2180.7,-382.56 1751.64,-344.272 1621.49,-324.375 1485.16,-303.532 1453.24,-286.47 1317.49,-262.149 1213.91,-243.593 1187,-245.071 1083.49,-226.149 1041.94,-218.555 993.937,-207.998 965.734,-201.613"/>
<polygon fill="green" stroke="green" stroke-width="0.302027" points="966.477,-198.193 955.949,-199.385 964.922,-205.018 966.477,-198.193"/>
</g>
<!-- &#45;8&#45;&gt;1 -->
<g id="edge55" class="edge"><title>&#45;8&#45;&gt;1</title>
<path fill="none" stroke="red" stroke-width="0.270373" stroke-dasharray="1,5" d="M2258.36,-390.522C2207.16,-390.273 2004.38,-385.292 1853.49,-324.375 1808.73,-306.307 1808.87,-281.112 1764.49,-262.149 1689.47,-230.095 1652.24,-271.605 1584.49,-226.149 1581.07,-223.855 1578.09,-220.758 1575.55,-217.42"/>
<polygon fill="red" stroke="red" stroke-width="0.270373" points="1578.47,-215.49 1570.13,-208.95 1572.57,-219.26 1578.47,-215.49"/>
</g>
<!-- &#45;8&#45;&gt;2 -->
<g id="edge56" class="edge"><title>&#45;8&#45;&gt;2</title>
<path fill="none" stroke="red" stroke-width="0.831305" d="M2282.65,-387.431C2306.64,-380.686 2359.69,-362.044 2382.49,-324.375 2419.43,-263.335 2435.05,-217.102 2387.49,-163.924 2339.49,-110.257 2126.22,-166.593 2065.49,-127.924 2038.15,-110.521 2055.44,-82.0897 2027.49,-65.6985 1970.08,-32.0341 921.416,-18.2189 745.446,-16.1333"/>
<polygon fill="red" stroke="red" stroke-width="0.831305" points="745.387,-12.6325 735.347,-16.0153 745.305,-19.632 745.387,-12.6325"/>
</g>
<!-- &#45;8&#45;&gt;3 -->
<g id="edge57" class="edge"><title>&#45;8&#45;&gt;3</title>
<path fill="none" stroke="green" stroke-width="0.338764" d="M2282.61,-385.07C2301.78,-375.771 2338.56,-354.788 2354.49,-324.375 2387.6,-261.16 2408.12,-217.065 2360.49,-163.924 2311.55,-109.319 2098.3,-160.265 2032.49,-127.924 2027.2,-125.323 2022.34,-121.34 2018.18,-117.114"/>
<polygon fill="green" stroke="green" stroke-width="0.338764" points="2020.72,-114.701 2011.49,-109.49 2015.46,-119.316 2020.72,-114.701"/>
</g>
<!-- &#45;8&#45;&gt;4 -->
<g id="edge58" class="edge"><title>&#45;8&#45;&gt;4</title>
<path fill="none" stroke="green" stroke-width="0.753011" stroke-dasharray="1,5" d="M2258.38,-389.505C2186.22,-383.574 1814.69,-351.862 1772.49,-324.375 1745.33,-306.69 1761.18,-280.527 1734.49,-262.149 1662.26,-212.415 1626.19,-244.747 1540.49,-226.149 1506.58,-218.791 1467.7,-208.843 1443.37,-202.432"/>
<polygon fill="green" stroke="green" stroke-width="0.753011" points="1444.14,-199.017 1433.58,-199.838 1442.35,-205.784 1444.14,-199.017"/>
</g>
<!-- &#45;8&#45;&gt;5 -->
<g id="edge59" class="edge"><title>&#45;8&#45;&gt;5</title>
<path fill="none" stroke="green" stroke-width="0.323494" stroke-dasharray="1,5" d="M2258.26,-389.054C2223.17,-384.499 2119.97,-367.998 2047.49,-324.375 2014.31,-304.404 2019.71,-282.062 1986.49,-262.149 1937.63,-232.862 1912.21,-255.653 1863.49,-226.149 1858.65,-223.217 1854.06,-219.276 1850.03,-215.213"/>
<polygon fill="green" stroke="green" stroke-width="0.323494" points="1852.34,-212.546 1843.03,-207.484 1847.15,-217.245 1852.34,-212.546"/>
</g>
<!-- &#45;8&#45;&gt;6 -->
<g id="edge60" class="edge"><title>&#45;8&#45;&gt;6</title>
<path fill="none" stroke="red" stroke-width="0.572842" stroke-dasharray="1,5" d="M2263.18,-382.204C2232.06,-347.578 2105.82,-213.901 1969.49,-163.924 1831.17,-113.216 1356.26,-100.6 1241.57,-98.2641"/>
<polygon fill="red" stroke="red" stroke-width="0.572842" points="1241.4,-94.7602 1231.33,-98.0639 1241.26,-101.759 1241.4,-94.7602"/>
</g>
<!-- &#45;8&#45;&gt;7 -->
<g id="edge61" class="edge"><title>&#45;8&#45;&gt;7</title>
<path fill="none" stroke="green" stroke-width="0.137768" stroke-dasharray="1,5" d="M2258.42,-389.666C2183.1,-384.454 1779.28,-355.213 1734.49,-324.375 1708.7,-306.623 1727.32,-279.829 1701.49,-262.149 1644.98,-223.481 1463.26,-235.926 1395.49,-226.149 1341.22,-218.321 1277.94,-206.937 1243.99,-200.646"/>
<polygon fill="green" stroke="green" stroke-width="0.137768" points="1244.52,-197.185 1234.05,-198.794 1243.24,-204.067 1244.52,-197.185"/>
</g>
<!-- &#45;8&#45;&gt;8 -->
<g id="edge62" class="edge"><title>&#45;8&#45;&gt;8</title>
<path fill="none" stroke="green" stroke-width="0.230606" d="M2282.56,-389.325C2329.4,-384.539 2498.17,-364.688 2529.49,-324.375 2550.34,-297.526 2513.44,-167.523 2510.49,-163.924 2437.74,-75.0572 2382.03,-96.8217 2271.49,-65.6985 2167.56,-36.4372 2038.93,-22.6587 1985.54,-17.887"/>
<polygon fill="green" stroke="green" stroke-width="0.230606" points="1985.59,-14.3782 1975.32,-17.0032 1984.98,-21.3522 1985.59,-14.3782"/>
</g>
<!-- 95125 -->
<g id="node21" class="node"><title>95125</title>
<ellipse fill="white" stroke="black" cx="2473.49" cy="-195.037" rx="27.6545" ry="27.6545"/>
<text text-anchor="middle" x="2473.49" y="-192.837" font-family="Times New Roman,serif" font-size="9.00">95125</text>
</g>
<!-- &#45;8&#45;&gt;95125 -->
<g id="edge77" class="edge"><title>&#45;8&#45;&gt;95125</title>
<path fill="none" stroke="red" stroke-width="0.685345" stroke-dasharray="1,5" d="M2282.64,-389.073C2327.5,-383.579 2482.75,-362.065 2511.49,-324.375 2533.61,-295.364 2514.31,-253.664 2496.06,-225.752"/>
<polygon fill="red" stroke="red" stroke-width="0.685345" points="2498.76,-223.495 2490.23,-217.208 2492.98,-227.441 2498.76,-223.495"/>
</g>
<!-- 55327 -->
<g id="node22" class="node"><title>55327</title>
<ellipse fill="white" stroke="black" cx="2317.49" cy="-293.262" rx="27.6545" ry="27.6545"/>
<text text-anchor="middle" x="2317.49" y="-291.062" font-family="Times New Roman,serif" font-size="9.00">55327</text>
</g>
<!-- &#45;8&#45;&gt;55327 -->
<g id="edge73" class="edge"><title>&#45;8&#45;&gt;55327</title>
<path fill="none" stroke="red" stroke-width="0.229114" stroke-dasharray="1,5" d="M2274.5,-382.283C2280.37,-370.253 2291.66,-347.137 2301.2,-327.613"/>
<polygon fill="red" stroke="red" stroke-width="0.229114" points="2304.46,-328.902 2305.71,-318.381 2298.17,-325.83 2304.46,-328.902"/>
</g>
<!-- 198256 -->
<g id="node32" class="node"><title>198256</title>
<ellipse fill="white" stroke="black" cx="2471.49" cy="-293.262" rx="31.2258" ry="31.2258"/>
<text text-anchor="middle" x="2471.49" y="-291.062" font-family="Times New Roman,serif" font-size="9.00">198256</text>
</g>
<!-- &#45;8&#45;&gt;198256 -->
<g id="edge89" class="edge"><title>&#45;8&#45;&gt;198256</title>
<path fill="none" stroke="red" stroke-width="0.480963" d="M2282.59,-386.252C2309.29,-376.713 2374.99,-352.196 2426.49,-324.375 2430.21,-322.364 2434.01,-320.13 2437.76,-317.813"/>
<polygon fill="red" stroke="red" stroke-width="0.480963" points="2439.78,-320.67 2446.31,-312.322 2436,-314.78 2439.78,-320.67"/>
</g>
<!-- &#45;9 -->
<g id="node9" class="node"><title>&#45;9</title>
<polygon fill="lightgray" stroke="black" points="1886.49,-302.262 1862.49,-302.262 1862.49,-284.262 1886.49,-284.262 1886.49,-302.262"/>
<text text-anchor="middle" x="1874.49" y="-291.062" font-family="Times New Roman,serif" font-size="9.00">&#45;9</text>
</g>
<!-- &#45;9&#45;&gt;0 -->
<g id="edge63" class="edge"><title>&#45;9&#45;&gt;0</title>
<path fill="none" stroke="red" stroke-width="0.131909" stroke-dasharray="1,5" d="M1862.39,-289.665C1834.29,-283.741 1762.36,-269.197 1701.49,-262.149 1428.18,-230.507 1356.17,-262.791 1083.49,-226.149 1041.63,-220.525 993.721,-209.359 965.622,-202.318"/>
<polygon fill="red" stroke="red" stroke-width="0.131909" points="966.431,-198.912 955.877,-199.841 964.707,-205.697 966.431,-198.912"/>
</g>
<!-- &#45;9&#45;&gt;1 -->
<g id="edge64" class="edge"><title>&#45;9&#45;&gt;1</title>
<path fill="none" stroke="green" stroke-width="0.252244" stroke-dasharray="1,5" d="M1869.82,-284.205C1865.29,-277.187 1857.77,-267.345 1848.49,-262.149 1762.04,-213.749 1723.11,-255.522 1628.49,-226.149 1613.87,-221.611 1598.31,-214.351 1586.19,-208.097"/>
<polygon fill="green" stroke="green" stroke-width="0.252244" points="1587.77,-204.972 1577.3,-203.368 1584.49,-211.153 1587.77,-204.972"/>
</g>
<!-- &#45;9&#45;&gt;3 -->
<g id="edge65" class="edge"><title>&#45;9&#45;&gt;3</title>
<path fill="none" stroke="green" stroke-width="0.272879" stroke-dasharray="1,5" d="M1867.86,-284.145C1862.73,-277.971 1855.36,-269.343 1848.49,-262.149 1832.42,-245.324 1819.68,-247.521 1810.49,-226.149 1799.56,-200.744 1794.41,-186.426 1810.49,-163.924 1849.32,-109.577 1935.67,-99.4233 1978.46,-97.8443"/>
<polygon fill="green" stroke="green" stroke-width="0.272879" points="1978.67,-101.34 1988.59,-97.6034 1978.51,-94.3424 1978.67,-101.34"/>
</g>
<!-- &#45;9&#45;&gt;5 -->
<g id="edge66" class="edge"><title>&#45;9&#45;&gt;5</title>
<path fill="none" stroke="red" stroke-width="0.304387" stroke-dasharray="1,5" d="M1871.08,-284.058C1865.1,-269.685 1852.55,-239.485 1843.82,-218.494"/>
<polygon fill="red" stroke="red" stroke-width="0.304387" points="1846.96,-216.929 1839.89,-209.039 1840.5,-219.616 1846.96,-216.929"/>
</g>
<!-- &#45;9&#45;&gt;6 -->
<g id="edge67" class="edge"><title>&#45;9&#45;&gt;6</title>
<path fill="none" stroke="green" stroke-width="0.139756" stroke-dasharray="1,5" d="M1869.24,-284.008C1864.55,-277.252 1857.1,-267.903 1848.49,-262.149 1806.06,-233.817 1787.33,-243.88 1739.49,-226.149 1671.43,-200.923 1658.18,-184.219 1588.49,-163.924 1460.72,-126.715 1301.84,-106.961 1241.39,-100.364"/>
<polygon fill="green" stroke="green" stroke-width="0.139756" points="1241.6,-96.8659 1231.28,-99.284 1240.86,-103.826 1241.6,-96.8659"/>
</g>
<!-- &#45;9&#45;&gt;7 -->
<g id="edge68" class="edge"><title>&#45;9&#45;&gt;7</title>
<path fill="none" stroke="red" stroke-width="0.144264" stroke-dasharray="1,5" d="M1862.21,-289.161C1837.96,-283.137 1782.11,-269.778 1734.49,-262.149 1584.88,-238.185 1545.57,-246.936 1395.49,-226.149 1341.18,-218.628 1277.91,-207.126 1243.98,-200.734"/>
<polygon fill="red" stroke="red" stroke-width="0.144264" points="1244.52,-197.274 1234.04,-198.85 1243.22,-204.152 1244.52,-197.274"/>
</g>
<!-- &#45;9&#45;&gt;8 -->
<g id="edge69" class="edge"><title>&#45;9&#45;&gt;8</title>
<path fill="none" stroke="green" stroke-width="0.368363" stroke-dasharray="1,5" d="M1862.41,-286.391C1844.13,-276.743 1810.14,-255.625 1796.49,-226.149 1784.86,-201.056 1785.26,-189.196 1796.49,-163.924 1825.81,-97.9563 1900.64,-48.9596 1938.23,-27.6296"/>
<polygon fill="green" stroke="green" stroke-width="0.368363" points="1940.3,-30.4846 1947.36,-22.5818 1936.91,-24.3591 1940.3,-30.4846"/>
</g>
<!-- 161844 -->
<g id="node25" class="node"><title>161844</title>
<ellipse fill="white" stroke="black" cx="779.489" cy="-96.8112" rx="31.2258" ry="31.2258"/>
<text text-anchor="middle" x="779.489" y="-94.6112" font-family="Times New Roman,serif" font-size="9.00">161844</text>
</g>
<!-- 7&#45;&gt;161844 -->
<g id="edge84" class="edge"><title>7&#45;&gt;161844</title>
<path fill="none" stroke="green" stroke-width="0.503775" d="M1207.1,-186.733C1194.88,-179.847 1175.48,-169.739 1157.49,-163.924 1038.7,-125.528 891.293,-107.92 820.801,-101.239"/>
<polygon fill="green" stroke="green" stroke-width="0.503775" points="820.847,-97.7283 810.568,-100.295 820.204,-104.699 820.847,-97.7283"/>
</g>
<!-- 312587&#45;&gt;0 -->
<g id="edge106" class="edge"><title>312587&#45;&gt;0</title>
<path fill="none" stroke="green" stroke-width="0.201009" d="M804.972,-274.726C811.29,-270.513 818.085,-266.093 824.489,-262.149 857.139,-242.04 896.09,-220.501 919.795,-207.657"/>
<polygon fill="green" stroke="green" stroke-width="0.201009" points="921.529,-210.698 928.668,-202.87 918.205,-204.538 921.529,-210.698"/>
</g>
<!-- 266002&#45;&gt;8 -->
<g id="edge97" class="edge"><title>266002&#45;&gt;8</title>
<path fill="none" stroke="red" stroke-width="0.163721" d="M1673.14,-264.272C1694.32,-216.684 1743.61,-119.907 1814.49,-65.6985 1851.22,-37.6063 1904.81,-24.7328 1935.81,-19.3276"/>
<polygon fill="red" stroke="red" stroke-width="0.163721" points="1936.46,-22.7683 1945.77,-17.7145 1935.34,-15.8583 1936.46,-22.7683"/>
</g>
<!-- 266002&#45;&gt;97383 -->
<g id="edge109" class="edge"><title>266002&#45;&gt;97383</title>
<path fill="none" stroke="green" stroke-width="0.180084" stroke-dasharray="1,5" d="M1637.46,-272.976C1630.99,-268.709 1623.76,-264.702 1616.49,-262.149 1439.29,-199.962 1378.18,-269.611 1195.49,-226.149 1181.57,-222.837 1166.83,-217.384 1154.14,-212.021"/>
<polygon fill="green" stroke="green" stroke-width="0.180084" points="1155.45,-208.773 1144.88,-207.976 1152.65,-215.187 1155.45,-208.773"/>
</g>
<!-- 95125&#45;&gt;3 -->
<g id="edge78" class="edge"><title>95125&#45;&gt;3</title>
<path fill="none" stroke="red" stroke-width="0.240442" d="M2448.42,-182.743C2432.9,-176.223 2412.4,-168.444 2393.49,-163.924 2250.85,-129.825 2206.4,-168.555 2065.49,-127.924 2051.3,-123.832 2036.38,-116.685 2024.73,-110.38"/>
<polygon fill="red" stroke="red" stroke-width="0.240442" points="2026.24,-107.213 2015.8,-105.368 2022.81,-113.316 2026.24,-107.213"/>
</g>
<!-- 55327&#45;&gt;5 -->
<g id="edge74" class="edge"><title>55327&#45;&gt;5</title>
<path fill="none" stroke="green" stroke-width="0.799966" stroke-dasharray="1,5" d="M2290.49,-286.882C2204.93,-269.837 1940.68,-217.192 1858.88,-200.896"/>
<polygon fill="green" stroke="green" stroke-width="0.799966" points="1859.49,-197.448 1849,-198.927 1858.12,-204.313 1859.49,-197.448"/>
</g>
<!-- 190702 -->
<g id="node31" class="node"><title>190702</title>
<ellipse fill="white" stroke="black" cx="2320.49" cy="-195.037" rx="31.2258" ry="31.2258"/>
<text text-anchor="middle" x="2320.49" y="-192.837" font-family="Times New Roman,serif" font-size="9.00">190702</text>
</g>
<!-- 55327&#45;&gt;190702 -->
<g id="edge88" class="edge"><title>55327&#45;&gt;190702</title>
<path fill="none" stroke="green" stroke-width="0.281256" d="M2318.32,-265.458C2318.6,-256.555 2318.92,-246.432 2319.22,-236.723"/>
<polygon fill="green" stroke="green" stroke-width="0.281256" points="2322.73,-236.531 2319.54,-226.427 2315.73,-236.313 2322.73,-236.531"/>
</g>
<!-- 220579 -->
<g id="node23" class="node"><title>220579</title>
<ellipse fill="white" stroke="black" cx="2185.49" cy="-96.8112" rx="31.2258" ry="31.2258"/>
<text text-anchor="middle" x="2185.49" y="-94.6112" font-family="Times New Roman,serif" font-size="9.00">220579</text>
</g>
<!-- 220579&#45;&gt;8 -->
<g id="edge95" class="edge"><title>220579&#45;&gt;8</title>
<path fill="none" stroke="red" stroke-width="0.596907" d="M2161.92,-75.7605C2156.74,-72.028 2151.11,-68.4446 2145.49,-65.6985 2091.58,-39.3759 2021.82,-25.4012 1985.29,-19.4403"/>
<polygon fill="red" stroke="red" stroke-width="0.596907" points="1985.49,-15.93 1975.07,-17.8428 1984.41,-22.8459 1985.49,-15.93"/>
</g>
<!-- 283818&#45;&gt;8 -->
<g id="edge99" class="edge"><title>283818&#45;&gt;8</title>
<path fill="none" stroke="green" stroke-width="0.460293" d="M2080.15,-78.0373C2073.83,-73.8316 2066.99,-69.4748 2060.49,-65.6985 2034.54,-50.6302 2003.44,-35.5712 1982.89,-26.0118"/>
<polygon fill="green" stroke="green" stroke-width="0.460293" points="1984.26,-22.7912 1973.71,-21.7849 1981.33,-29.1487 1984.26,-22.7912"/>
</g>
<!-- 161844&#45;&gt;2 -->
<g id="edge104" class="edge"><title>161844&#45;&gt;2</title>
<path fill="none" stroke="green" stroke-width="0.268936" stroke-dasharray="1,5" d="M761.466,-71.3855C752.994,-59.9034 743.026,-46.3934 735.042,-35.5734"/>
<polygon fill="green" stroke="green" stroke-width="0.268936" points="737.633,-33.1896 728.879,-27.2209 732,-37.3457 737.633,-33.1896"/>
</g>
<!-- 116683&#45;&gt;7 -->
<g id="edge82" class="edge"><title>116683&#45;&gt;7</title>
<path fill="none" stroke="red" stroke-width="0.238739" d="M1230.51,-262.343C1228.23,-248.637 1225.57,-232.62 1223.43,-219.762"/>
<polygon fill="red" stroke="red" stroke-width="0.238739" points="1226.87,-219.115 1221.78,-209.825 1219.97,-220.264 1226.87,-219.115"/>
</g>
<!-- 173527&#45;&gt;8 -->
<g id="edge87" class="edge"><title>173527&#45;&gt;8</title>
<path fill="none" stroke="green" stroke-width="0.58788" stroke-dasharray="1,5" d="M2218.05,-168.071C2232.79,-139.723 2249.4,-94.5332 2225.49,-65.6985 2195.1,-29.0636 2045.79,-19.1763 1985.65,-16.6588"/>
<polygon fill="green" stroke="green" stroke-width="0.58788" points="1985.64,-13.1558 1975.51,-16.2698 1985.37,-20.1506 1985.64,-13.1558"/>
</g>
<!-- 173527&#45;&gt;220579 -->
<g id="edge94" class="edge"><title>173527&#45;&gt;220579</title>
<path fill="none" stroke="red" stroke-width="0.432934" d="M2197.2,-164.118C2195.73,-155.79 2194.11,-146.61 2192.55,-137.804"/>
<polygon fill="red" stroke="red" stroke-width="0.432934" points="2195.96,-136.95 2190.77,-127.712 2189.06,-138.168 2195.96,-136.95"/>
</g>
<!-- 50910&#45;&gt;0 -->
<g id="edge71" class="edge"><title>50910&#45;&gt;0</title>
<path fill="none" stroke="red" stroke-width="0.126204" stroke-dasharray="1,5" d="M1024.63,-273.709C1005.77,-256.091 977.671,-229.839 959.462,-212.828"/>
<polygon fill="red" stroke="red" stroke-width="0.126204" points="961.557,-209.995 951.86,-205.726 956.778,-215.11 961.557,-209.995"/>
</g>
<!-- 50910&#45;&gt;1 -->
<g id="edge85" class="edge"><title>50910&#45;&gt;1</title>
<path fill="none" stroke="green" stroke-width="0.145798" stroke-dasharray="1,5" d="M1071.41,-286.447C1101.55,-280.042 1151.89,-269.656 1195.49,-262.149 1305.25,-243.252 1334.2,-247.625 1443.49,-226.149 1477.53,-219.459 1516.38,-209.342 1540.67,-202.712"/>
<polygon fill="green" stroke="green" stroke-width="0.145798" points="1541.72,-206.052 1550.43,-200.02 1539.86,-199.304 1541.72,-206.052"/>
</g>
<!-- 204134&#45;&gt;0 -->
<g id="edge92" class="edge"><title>204134&#45;&gt;0</title>
<path fill="none" stroke="red" stroke-width="0.441749" d="M457.619,-273.26C464.086,-268.987 471.29,-264.906 478.489,-262.149 636.834,-201.5 844.935,-195.805 916.25,-195.766"/>
<polygon fill="red" stroke="red" stroke-width="0.441749" points="916.48,-199.267 926.492,-195.8 916.504,-192.267 916.48,-199.267"/>
</g>
<!-- 97383&#45;&gt;6 -->
<g id="edge80" class="edge"><title>97383&#45;&gt;6</title>
<path fill="none" stroke="green" stroke-width="0.31119" stroke-dasharray="1,5" d="M1139.92,-174.564C1157.24,-157.197 1182.38,-132.001 1199.07,-115.274"/>
<polygon fill="green" stroke="green" stroke-width="0.31119" points="1201.92,-117.365 1206.51,-107.814 1196.97,-112.422 1201.92,-117.365"/>
</g>
<!-- 198256&#45;&gt;95125 -->
<g id="edge90" class="edge"><title>198256&#45;&gt;95125</title>
<path fill="none" stroke="red" stroke-width="0.176404" d="M2472.12,-262.08C2472.31,-252.851 2472.52,-242.595 2472.72,-232.971"/>
<polygon fill="red" stroke="red" stroke-width="0.176404" points="2476.22,-232.925 2472.93,-222.855 2469.22,-232.78 2476.22,-232.925"/>
</g>
<!-- 326257&#45;&gt;2 -->
<g id="edge108" class="edge"><title>326257&#45;&gt;2</title>
<path fill="none" stroke="green" stroke-width="0.174127" d="M89.5084,-76.5066C95.9779,-72.2393 103.21,-68.2374 110.489,-65.6985 221.333,-27.0321 595.294,-17.9764 695.571,-16.222"/>
<polygon fill="green" stroke="green" stroke-width="0.174127" points="695.726,-19.72 705.666,-16.0543 695.61,-12.721 695.726,-19.72"/>
</g>
<!-- 80502&#45;&gt;4 -->
<g id="edge76" class="edge"><title>80502&#45;&gt;4</title>
<path fill="none" stroke="green" stroke-width="0.346327" d="M953.097,-274.453C959.563,-269.731 966.982,-265.126 974.489,-262.149 1086.62,-217.685 1124.24,-244.323 1243.49,-226.149 1297.69,-217.889 1361,-206.67 1394.97,-200.522"/>
<polygon fill="green" stroke="green" stroke-width="0.346327" points="1395.7,-203.946 1404.92,-198.715 1394.45,-197.059 1395.7,-203.946"/>
</g>
<!-- 80502&#45;&gt;97383 -->
<g id="edge83" class="edge"><title>80502&#45;&gt;97383</title>
<path fill="none" stroke="red" stroke-width="0.252528" stroke-dasharray="1,5" d="M954.178,-275.478C960.551,-270.889 967.651,-266.097 974.489,-262.149 1010.86,-241.15 1055.1,-221.93 1085.28,-209.692"/>
<polygon fill="red" stroke="red" stroke-width="0.252528" points="1086.97,-212.787 1094.94,-205.816 1084.36,-206.289 1086.97,-212.787"/>
</g>
<!-- 292854&#45;&gt;204134 -->
<g id="edge102" class="edge"><title>292854&#45;&gt;204134</title>
<path fill="none" stroke="red" stroke-width="0.724664" d="M446.633,-360.831C444.953,-352.326 443.095,-342.913 441.317,-333.908"/>
<polygon fill="red" stroke="red" stroke-width="0.724664" points="444.729,-333.118 439.358,-323.986 437.861,-334.474 444.729,-333.118"/>
</g>
</g>
</svg>
