<?xml version="1.0" encoding="UTF-8" standalone="no"?>
<!DOCTYPE svg PUBLIC "-//W3C//DTD SVG 1.1//EN"
 "http://www.w3.org/Graphics/SVG/1.1/DTD/svg11.dtd">
<!-- Generated by graphviz version 2.38.0 (20140413.2041)
 -->
<!-- Title: %3 Pages: 1 -->
<svg width="1862pt" height="386pt"
 viewBox="0.00 0.00 1861.76 386.37" xmlns="http://www.w3.org/2000/svg" xmlns:xlink="http://www.w3.org/1999/xlink">
<g id="graph0" class="graph" transform="scale(1 1) rotate(0) translate(4 382.375)">
<title>%3</title>
<polygon fill="white" stroke="none" points="-4,4 -4,-382.375 1857.76,-382.375 1857.76,4 -4,4"/>
<!-- &#45;1 -->
<g id="node1" class="node"><title>&#45;1</title>
<polygon fill="lightgray" stroke="black" points="1290.64,-378.375 1266.64,-378.375 1266.64,-360.375 1290.64,-360.375 1290.64,-378.375"/>
<text text-anchor="middle" x="1278.64" y="-367.175" font-family="Times New Roman,serif" font-size="9.00">&#45;1</text>
</g>
<!-- 0 -->
<g id="node10" class="node"><title>0</title>
<ellipse fill="lightblue" stroke="black" cx="867.644" cy="-14.8492" rx="14.7" ry="14.7"/>
<text text-anchor="middle" x="867.644" y="-12.6492" font-family="Times New Roman,serif" font-size="9.00">0</text>
</g>
<!-- &#45;1&#45;&gt;0 -->
<g id="edge1" class="edge"><title>&#45;1&#45;&gt;0</title>
<path fill="none" stroke="red" stroke-width="0.364332" stroke-dasharray="1,5" d="M1290.72,-368.412C1339.22,-368.282 1518.98,-365.028 1553.64,-324.375 1571.59,-303.331 1566.26,-286.762 1553.64,-262.149 1485.48,-129.114 1419.91,-120.024 1280.64,-65.6985 1244.42,-51.5689 976.931,-25.94 892.858,-18.1538"/>
<polygon fill="red" stroke="red" stroke-width="0.364332" points="892.96,-14.6485 882.681,-17.2156 892.317,-21.6189 892.96,-14.6485"/>
</g>
<!-- 1 -->
<g id="node11" class="node"><title>1</title>
<ellipse fill="lightblue" stroke="black" cx="420.644" cy="-195.037" rx="14.7" ry="14.7"/>
<text text-anchor="middle" x="420.644" y="-192.837" font-family="Times New Roman,serif" font-size="9.00">1</text>
</g>
<!-- &#45;1&#45;&gt;1 -->
<g id="edge2" class="edge"><title>&#45;1&#45;&gt;1</title>
<path fill="none" stroke="green" stroke-width="0.519069" d="M1266.36,-368.237C1162.25,-367.016 430.94,-357.276 399.644,-324.375 372.223,-295.547 392.504,-245.594 407.808,-217.26"/>
<polygon fill="green" stroke="green" stroke-width="0.519069" points="411.05,-218.637 412.927,-208.21 404.957,-215.191 411.05,-218.637"/>
</g>
<!-- 3 -->
<g id="node13" class="node"><title>3</title>
<ellipse fill="lightblue" stroke="black" cx="1052.64" cy="-195.037" rx="14.7" ry="14.7"/>
<text text-anchor="middle" x="1052.64" y="-192.837" font-family="Times New Roman,serif" font-size="9.00">3</text>
</g>
<!-- &#45;1&#45;&gt;3 -->
<g id="edge3" class="edge"><title>&#45;1&#45;&gt;3</title>
<path fill="none" stroke="green" stroke-width="0.622293" stroke-dasharray="1,5" d="M1266.59,-366.855C1241.95,-363.245 1184.9,-352.276 1146.64,-324.375 1141.34,-320.509 1092.12,-251.673 1067.1,-216.447"/>
<polygon fill="green" stroke="green" stroke-width="0.622293" points="1069.66,-214.01 1061.02,-207.879 1063.95,-218.06 1069.66,-214.01"/>
</g>
<!-- 4 -->
<g id="node14" class="node"><title>4</title>
<ellipse fill="lightblue" stroke="black" cx="1276.64" cy="-195.037" rx="14.7" ry="14.7"/>
<text text-anchor="middle" x="1276.64" y="-192.837" font-family="Times New Roman,serif" font-size="9.00">4</text>
</g>
<!-- &#45;1&#45;&gt;4 -->
<g id="edge4" class="edge"><title>&#45;1&#45;&gt;4</title>
<path fill="none" stroke="red" stroke-width="0.283529" stroke-dasharray="1,5" d="M1290.78,-368.246C1337.12,-367.476 1501.88,-362.087 1533.64,-324.375 1551.46,-303.222 1550.59,-284.006 1533.64,-262.149 1505.07,-225.293 1360.96,-205.383 1301.92,-198.667"/>
<polygon fill="red" stroke="red" stroke-width="0.283529" points="1301.94,-195.148 1291.62,-197.531 1301.18,-202.106 1301.94,-195.148"/>
</g>
<!-- 5 -->
<g id="node15" class="node"><title>5</title>
<ellipse fill="lightblue" stroke="black" cx="723.644" cy="-195.037" rx="14.7" ry="14.7"/>
<text text-anchor="middle" x="723.644" y="-192.837" font-family="Times New Roman,serif" font-size="9.00">5</text>
</g>
<!-- &#45;1&#45;&gt;5 -->
<g id="edge5" class="edge"><title>&#45;1&#45;&gt;5</title>
<path fill="none" stroke="red" stroke-width="0.567354" stroke-dasharray="1,5" d="M1266.43,-368.395C1187.42,-368.404 750.664,-366.541 711.644,-324.375 684.995,-295.578 700.477,-246.028 712.881,-217.659"/>
<polygon fill="red" stroke="red" stroke-width="0.567354" points="716.06,-219.123 717.066,-208.576 709.702,-216.194 716.06,-219.123"/>
</g>
<!-- 7 -->
<g id="node17" class="node"><title>7</title>
<ellipse fill="lightblue" stroke="black" cx="658.644" cy="-195.037" rx="14.7" ry="14.7"/>
<text text-anchor="middle" x="658.644" y="-192.837" font-family="Times New Roman,serif" font-size="9.00">7</text>
</g>
<!-- &#45;1&#45;&gt;7 -->
<g id="edge6" class="edge"><title>&#45;1&#45;&gt;7</title>
<path fill="none" stroke="red" stroke-width="0.851441" stroke-dasharray="1,5" d="M1266.43,-368.287C1186.47,-367.608 739.407,-362.13 693.644,-324.375 662.999,-299.092 657.735,-249.838 657.579,-220.244"/>
<polygon fill="red" stroke="red" stroke-width="0.851441" points="661.083,-220.005 657.727,-209.956 654.083,-219.905 661.083,-220.005"/>
</g>
<!-- 8 -->
<g id="node18" class="node"><title>8</title>
<ellipse fill="lightblue" stroke="black" cx="1100.64" cy="-195.037" rx="14.7" ry="14.7"/>
<text text-anchor="middle" x="1100.64" y="-192.837" font-family="Times New Roman,serif" font-size="9.00">8</text>
</g>
<!-- &#45;1&#45;&gt;8 -->
<g id="edge7" class="edge"><title>&#45;1&#45;&gt;8</title>
<path fill="none" stroke="green" stroke-width="0.154134" stroke-dasharray="1,5" d="M1290.76,-367.131C1312.59,-364.164 1358.07,-354.497 1377.64,-324.375 1392.71,-301.186 1394.78,-283.856 1377.64,-262.149 1369.66,-252.04 1191.11,-214.578 1124.99,-200.995"/>
<polygon fill="green" stroke="green" stroke-width="0.154134" points="1125.54,-197.535 1115.04,-198.958 1124.13,-204.393 1125.54,-197.535"/>
</g>
<!-- 245645 -->
<g id="node19" class="node"><title>245645</title>
<ellipse fill="white" stroke="black" cx="1493.64" cy="-293.262" rx="31.2258" ry="31.2258"/>
<text text-anchor="middle" x="1493.64" y="-291.062" font-family="Times New Roman,serif" font-size="9.00">245645</text>
</g>
<!-- &#45;1&#45;&gt;245645 -->
<g id="edge84" class="edge"><title>&#45;1&#45;&gt;245645</title>
<path fill="none" stroke="green" stroke-width="0.262154" d="M1290.64,-366.69C1319.09,-362.399 1392.45,-349.57 1448.64,-324.375 1452.71,-322.551 1456.81,-320.371 1460.8,-318.028"/>
<polygon fill="green" stroke="green" stroke-width="0.262154" points="1462.67,-320.989 1469.29,-312.714 1458.95,-315.056 1462.67,-320.989"/>
</g>
<!-- &#45;2 -->
<g id="node2" class="node"><title>&#45;2</title>
<polygon fill="lightgray" stroke="black" points="432.644,-302.262 408.644,-302.262 408.644,-284.262 432.644,-284.262 432.644,-302.262"/>
<text text-anchor="middle" x="420.644" y="-291.062" font-family="Times New Roman,serif" font-size="9.00">&#45;2</text>
</g>
<!-- &#45;2&#45;&gt;1 -->
<g id="edge8" class="edge"><title>&#45;2&#45;&gt;1</title>
<path fill="none" stroke="red" stroke-width="0.834457" stroke-dasharray="1,5" d="M420.644,-284.058C420.644,-270.047 420.644,-241 420.644,-220.101"/>
<polygon fill="red" stroke="red" stroke-width="0.834457" points="424.144,-220.038 420.644,-210.038 417.144,-220.038 424.144,-220.038"/>
</g>
<!-- &#45;2&#45;&gt;5 -->
<g id="edge9" class="edge"><title>&#45;2&#45;&gt;5</title>
<path fill="none" stroke="green" stroke-width="0.305351" stroke-dasharray="1,5" d="M432.833,-284.679C444.447,-277.79 462.636,-267.856 479.644,-262.149 566.515,-233.002 598.408,-262.211 682.644,-226.149 690.636,-222.728 698.544,-217.485 705.251,-212.328"/>
<polygon fill="green" stroke="green" stroke-width="0.305351" points="707.487,-215.02 713.02,-205.985 703.06,-209.598 707.487,-215.02"/>
</g>
<!-- 6 -->
<g id="node16" class="node"><title>6</title>
<ellipse fill="lightblue" stroke="black" cx="886.644" cy="-195.037" rx="14.7" ry="14.7"/>
<text text-anchor="middle" x="886.644" y="-192.837" font-family="Times New Roman,serif" font-size="9.00">6</text>
</g>
<!-- &#45;2&#45;&gt;6 -->
<g id="edge10" class="edge"><title>&#45;2&#45;&gt;6</title>
<path fill="none" stroke="green" stroke-width="0.119744" stroke-dasharray="1,5" d="M432.78,-284.515C444.357,-277.51 462.52,-267.498 479.644,-262.149 594.36,-226.321 629.266,-246.889 747.644,-226.149 788.01,-219.077 834.459,-208.518 862.138,-201.966"/>
<polygon fill="green" stroke="green" stroke-width="0.119744" points="863.196,-205.312 872.11,-199.586 861.571,-198.503 863.196,-205.312"/>
</g>
<!-- &#45;2&#45;&gt;7 -->
<g id="edge11" class="edge"><title>&#45;2&#45;&gt;7</title>
<path fill="none" stroke="green" stroke-width="0.240168" stroke-dasharray="1,5" d="M425.595,-284.101C430.199,-277.213 437.686,-267.624 446.644,-262.149 504.406,-226.847 530.805,-248.674 594.644,-226.149 609.081,-221.055 624.635,-213.781 636.794,-207.658"/>
<polygon fill="green" stroke="green" stroke-width="0.240168" points="638.442,-210.747 645.732,-203.059 635.238,-204.523 638.442,-210.747"/>
</g>
<!-- &#45;2&#45;&gt;8 -->
<g id="edge12" class="edge"><title>&#45;2&#45;&gt;8</title>
<path fill="none" stroke="green" stroke-width="0.584736" stroke-dasharray="1,5" d="M432.695,-284.227C444.212,-277.017 462.335,-266.867 479.644,-262.149 607.875,-227.202 958.698,-287.412 1076.64,-226.149 1080.97,-223.905 1084.77,-220.499 1088,-216.775"/>
<polygon fill="green" stroke="green" stroke-width="0.584736" points="1091.03,-218.569 1094.15,-208.442 1085.4,-214.416 1091.03,-218.569"/>
</g>
<!-- 192813 -->
<g id="node21" class="node"><title>192813</title>
<ellipse fill="white" stroke="black" cx="658.644" cy="-96.8112" rx="31.2258" ry="31.2258"/>
<text text-anchor="middle" x="658.644" y="-94.6112" font-family="Times New Roman,serif" font-size="9.00">192813</text>
</g>
<!-- &#45;2&#45;&gt;192813 -->
<g id="edge77" class="edge"><title>&#45;2&#45;&gt;192813</title>
<path fill="none" stroke="green" stroke-width="0.199373" stroke-dasharray="1,5" d="M430.567,-284.154C463.872,-256.944 572.615,-168.099 627.032,-123.639"/>
<polygon fill="green" stroke="green" stroke-width="0.199373" points="629.436,-126.194 634.965,-117.157 625.007,-120.774 629.436,-126.194"/>
</g>
<!-- 271095 -->
<g id="node27" class="node"><title>271095</title>
<ellipse fill="white" stroke="black" cx="525.644" cy="-96.8112" rx="31.2258" ry="31.2258"/>
<text text-anchor="middle" x="525.644" y="-94.6112" font-family="Times New Roman,serif" font-size="9.00">271095</text>
</g>
<!-- &#45;2&#45;&gt;271095 -->
<g id="edge88" class="edge"><title>&#45;2&#45;&gt;271095</title>
<path fill="none" stroke="green" stroke-width="0.327468" d="M425.156,-283.907C438.992,-258.282 481.408,-179.732 506.492,-133.279"/>
<polygon fill="green" stroke="green" stroke-width="0.327468" points="509.593,-134.903 511.264,-124.441 503.433,-131.577 509.593,-134.903"/>
</g>
<!-- &#45;3 -->
<g id="node3" class="node"><title>&#45;3</title>
<polygon fill="lightgray" stroke="black" points="1018.64,-302.262 994.644,-302.262 994.644,-284.262 1018.64,-284.262 1018.64,-302.262"/>
<text text-anchor="middle" x="1006.64" y="-291.062" font-family="Times New Roman,serif" font-size="9.00">&#45;3</text>
</g>
<!-- &#45;3&#45;&gt;1 -->
<g id="edge13" class="edge"><title>&#45;3&#45;&gt;1</title>
<path fill="none" stroke="green" stroke-width="0.755577" stroke-dasharray="1,5" d="M1003.33,-284.101C999.984,-277.014 994.103,-267.128 985.644,-262.149 918.072,-222.374 712.48,-235.614 634.644,-226.149 565.875,-217.787 484.982,-205.823 445.227,-199.802"/>
<polygon fill="green" stroke="green" stroke-width="0.755577" points="445.562,-196.313 435.15,-198.27 444.51,-203.234 445.562,-196.313"/>
</g>
<!-- 2 -->
<g id="node12" class="node"><title>2</title>
<ellipse fill="lightblue" stroke="black" cx="1043.64" cy="-14.8492" rx="14.7" ry="14.7"/>
<text text-anchor="middle" x="1043.64" y="-12.6492" font-family="Times New Roman,serif" font-size="9.00">2</text>
</g>
<!-- &#45;3&#45;&gt;2 -->
<g id="edge14" class="edge"><title>&#45;3&#45;&gt;2</title>
<path fill="none" stroke="red" stroke-width="0.142304" stroke-dasharray="1,5" d="M1007.75,-283.989C1012.65,-247.365 1032.51,-99.0308 1040.39,-40.1286"/>
<polygon fill="red" stroke="red" stroke-width="0.142304" points="1043.9,-40.2842 1041.76,-29.9082 1036.97,-39.3554 1043.9,-40.2842"/>
</g>
<!-- &#45;3&#45;&gt;3 -->
<g id="edge15" class="edge"><title>&#45;3&#45;&gt;3</title>
<path fill="none" stroke="green" stroke-width="0.606071" stroke-dasharray="1,5" d="M1010.57,-284.058C1017.51,-269.541 1032.16,-238.879 1042.21,-217.867"/>
<polygon fill="green" stroke="green" stroke-width="0.606071" points="1045.43,-219.244 1046.58,-208.712 1039.11,-216.225 1045.43,-219.244"/>
</g>
<!-- &#45;3&#45;&gt;4 -->
<g id="edge16" class="edge"><title>&#45;3&#45;&gt;4</title>
<path fill="none" stroke="red" stroke-width="0.206067" stroke-dasharray="1,5" d="M1018.95,-287.877C1060.82,-272.956 1198.22,-223.985 1253.4,-204.319"/>
<polygon fill="red" stroke="red" stroke-width="0.206067" points="1254.76,-207.553 1263,-200.899 1252.41,-200.959 1254.76,-207.553"/>
</g>
<!-- &#45;3&#45;&gt;5 -->
<g id="edge17" class="edge"><title>&#45;3&#45;&gt;5</title>
<path fill="none" stroke="red" stroke-width="0.156295" stroke-dasharray="1,5" d="M1003.01,-284.117C999.524,-277.239 993.615,-267.655 985.644,-262.149 965.845,-248.473 809.479,-214.25 748.178,-201.201"/>
<polygon fill="red" stroke="red" stroke-width="0.156295" points="748.723,-197.739 738.215,-199.089 747.271,-204.587 748.723,-197.739"/>
</g>
<!-- &#45;3&#45;&gt;6 -->
<g id="edge18" class="edge"><title>&#45;3&#45;&gt;6</title>
<path fill="none" stroke="red" stroke-width="0.183074" d="M1002.18,-284.231C998.347,-277.785 992.381,-268.752 985.644,-262.149 962.219,-239.192 929.793,-219.292 908.527,-207.48"/>
<polygon fill="red" stroke="red" stroke-width="0.183074" points="910.072,-204.336 899.614,-202.64 906.732,-210.488 910.072,-204.336"/>
</g>
<!-- &#45;3&#45;&gt;7 -->
<g id="edge19" class="edge"><title>&#45;3&#45;&gt;7</title>
<path fill="none" stroke="red" stroke-width="0.589561" stroke-dasharray="1,5" d="M1003.3,-284.148C999.938,-277.091 994.045,-267.225 985.644,-262.149 875.992,-195.894 818.65,-273.592 699.644,-226.149 691.453,-222.884 683.415,-217.585 676.656,-212.336"/>
<polygon fill="red" stroke="red" stroke-width="0.589561" points="678.794,-209.562 668.864,-205.87 674.324,-214.949 678.794,-209.562"/>
</g>
<!-- &#45;3&#45;&gt;8 -->
<g id="edge20" class="edge"><title>&#45;3&#45;&gt;8</title>
<path fill="none" stroke="green" stroke-width="0.650577" stroke-dasharray="1,5" d="M1016.1,-284.098C1029.95,-271.986 1056.28,-248.299 1076.64,-226.149 1079.7,-222.827 1082.81,-219.164 1085.74,-215.57"/>
<polygon fill="green" stroke="green" stroke-width="0.650577" points="1088.66,-217.517 1092.12,-207.502 1083.17,-213.175 1088.66,-217.517"/>
</g>
<!-- &#45;4 -->
<g id="node4" class="node"><title>&#45;4</title>
<polygon fill="lightgray" stroke="black" points="620.644,-378.375 596.644,-378.375 596.644,-360.375 620.644,-360.375 620.644,-378.375"/>
<text text-anchor="middle" x="608.644" y="-367.175" font-family="Times New Roman,serif" font-size="9.00">&#45;4</text>
</g>
<!-- &#45;4&#45;&gt;0 -->
<g id="edge21" class="edge"><title>&#45;4&#45;&gt;0</title>
<path fill="none" stroke="green" stroke-width="0.705385" d="M596.464,-365.923C587.435,-364.176 574.811,-361.879 563.644,-360.375 520.406,-354.551 202.045,-356.608 172.644,-324.375 95.166,-239.436 94.3117,-149.85 172.644,-65.6985 219.104,-15.7862 722.871,-15.1255 842.34,-15.6776"/>
<polygon fill="green" stroke="green" stroke-width="0.705385" points="842.655,-19.1792 852.674,-15.7332 842.693,-12.1793 842.655,-19.1792"/>
</g>
<!-- &#45;4&#45;&gt;1 -->
<g id="edge22" class="edge"><title>&#45;4&#45;&gt;1</title>
<path fill="none" stroke="green" stroke-width="1.40516" stroke-dasharray="1,5" d="M596.447,-366.04C587.41,-364.35 574.783,-362.075 563.644,-360.375 501.192,-350.843 323.391,-371.79 281.644,-324.375 263.368,-303.618 266.874,-285.53 281.644,-262.149 306.776,-222.366 363.102,-206.032 395.816,-199.711"/>
<polygon fill="green" stroke="green" stroke-width="1.40516" points="396.684,-203.112 405.926,-197.932 395.471,-196.218 396.684,-203.112"/>
</g>
<!-- &#45;4&#45;&gt;2 -->
<g id="edge23" class="edge"><title>&#45;4&#45;&gt;2</title>
<path fill="none" stroke="green" stroke-width="0.347941" stroke-dasharray="1,5" d="M596.45,-366.017C587.415,-364.317 574.788,-362.037 563.644,-360.375 497.67,-350.533 309.892,-374.29 265.644,-324.375 247.298,-303.68 254.343,-287.391 265.644,-262.149 319.209,-142.506 365.352,-117.792 485.644,-65.6985 568.761,-29.7041 801.431,-37.8078 891.644,-29.6985 936.539,-25.6628 988.884,-20.8754 1018.96,-18.1172"/>
<polygon fill="green" stroke="green" stroke-width="0.347941" points="1019.33,-21.5973 1028.97,-17.198 1018.69,-14.6266 1019.33,-21.5973"/>
</g>
<!-- &#45;4&#45;&gt;3 -->
<g id="edge24" class="edge"><title>&#45;4&#45;&gt;3</title>
<path fill="none" stroke="green" stroke-width="0.661998" d="M620.741,-368.144C689.606,-366.711 1030.18,-357.948 1060.64,-324.375 1086.7,-295.662 1073.72,-246.842 1062.68,-218.41"/>
<polygon fill="green" stroke="green" stroke-width="0.661998" points="1065.82,-216.846 1058.77,-208.933 1059.35,-219.512 1065.82,-216.846"/>
</g>
<!-- &#45;4&#45;&gt;4 -->
<g id="edge25" class="edge"><title>&#45;4&#45;&gt;4</title>
<path fill="none" stroke="red" stroke-width="0.604983" stroke-dasharray="1,5" d="M620.877,-368.148C717.199,-366.305 1350.5,-353.116 1377.64,-324.375 1396.63,-304.268 1390.8,-286.478 1377.64,-262.149 1361.34,-231.984 1324.61,-213.371 1300.24,-203.866"/>
<polygon fill="red" stroke="red" stroke-width="0.604983" points="1301.23,-200.503 1290.64,-200.343 1298.82,-207.075 1301.23,-200.503"/>
</g>
<!-- &#45;4&#45;&gt;5 -->
<g id="edge26" class="edge"><title>&#45;4&#45;&gt;5</title>
<path fill="none" stroke="red" stroke-width="1.81262" d="M613.872,-360.352C625.454,-342.599 654.186,-298.667 678.644,-262.149 689.065,-246.59 700.996,-229.074 709.954,-215.983"/>
<polygon fill="red" stroke="red" stroke-width="1.81262" points="712.86,-217.932 715.625,-207.704 707.086,-213.976 712.86,-217.932"/>
</g>
<!-- &#45;4&#45;&gt;6 -->
<g id="edge27" class="edge"><title>&#45;4&#45;&gt;6</title>
<path fill="none" stroke="green" stroke-width="0.207665" d="M620.95,-368.041C651.482,-366.676 732.169,-359.724 786.644,-324.375 828.369,-297.299 860.007,-246.748 875.693,-217.828"/>
<polygon fill="green" stroke="green" stroke-width="0.207665" points="878.825,-219.393 880.393,-208.915 872.633,-216.129 878.825,-219.393"/>
</g>
<!-- &#45;4&#45;&gt;7 -->
<g id="edge28" class="edge"><title>&#45;4&#45;&gt;7</title>
<path fill="none" stroke="green" stroke-width="0.111016" stroke-dasharray="1,5" d="M596.577,-366.096C567.266,-360.289 493.688,-344.004 479.644,-324.375 463.551,-301.883 463.268,-284.435 479.644,-262.149 511.357,-218.991 544.742,-245.595 594.644,-226.149 608.908,-220.591 624.458,-213.304 636.658,-207.291"/>
<polygon fill="green" stroke="green" stroke-width="0.111016" points="638.259,-210.404 645.635,-202.8 635.126,-204.144 638.259,-210.404"/>
</g>
<!-- 338601 -->
<g id="node20" class="node"><title>338601</title>
<ellipse fill="white" stroke="black" cx="321.644" cy="-293.262" rx="31.2258" ry="31.2258"/>
<text text-anchor="middle" x="321.644" y="-291.062" font-family="Times New Roman,serif" font-size="9.00">338601</text>
</g>
<!-- &#45;4&#45;&gt;338601 -->
<g id="edge94" class="edge"><title>&#45;4&#45;&gt;338601</title>
<path fill="none" stroke="green" stroke-width="0.167279" d="M596.464,-366.194C547.743,-357.469 369.377,-325.482 366.644,-324.375 362.513,-322.702 358.37,-320.616 354.359,-318.327"/>
<polygon fill="green" stroke="green" stroke-width="0.167279" points="356.197,-315.349 345.849,-313.075 352.52,-321.306 356.197,-315.349"/>
</g>
<!-- 313279 -->
<g id="node23" class="node"><title>313279</title>
<ellipse fill="white" stroke="black" cx="1337.64" cy="-293.262" rx="31.2258" ry="31.2258"/>
<text text-anchor="middle" x="1337.64" y="-291.062" font-family="Times New Roman,serif" font-size="9.00">313279</text>
</g>
<!-- &#45;4&#45;&gt;313279 -->
<g id="edge91" class="edge"><title>&#45;4&#45;&gt;313279</title>
<path fill="none" stroke="green" stroke-width="0.174745" d="M620.775,-368.45C701.454,-368.824 1161.22,-368.949 1292.64,-324.375 1296.75,-322.982 1300.84,-321.114 1304.78,-318.986"/>
<polygon fill="green" stroke="green" stroke-width="0.174745" points="1306.88,-321.804 1313.65,-313.654 1303.28,-315.804 1306.88,-321.804"/>
</g>
<!-- &#45;5 -->
<g id="node5" class="node"><title>&#45;5</title>
<polygon fill="lightgray" stroke="black" points="1534.64,-378.375 1510.64,-378.375 1510.64,-360.375 1534.64,-360.375 1534.64,-378.375"/>
<text text-anchor="middle" x="1522.64" y="-367.175" font-family="Times New Roman,serif" font-size="9.00">&#45;5</text>
</g>
<!-- &#45;5&#45;&gt;0 -->
<g id="edge29" class="edge"><title>&#45;5&#45;&gt;0</title>
<path fill="none" stroke="red" stroke-width="0.615243" d="M1535,-361.501C1546.91,-354.092 1564.19,-341.081 1571.64,-324.375 1582.91,-299.118 1578.09,-289.042 1571.64,-262.149 1542.43,-140.371 1487.86,-107.03 1369.64,-65.6985 1358.23,-61.7065 992.514,-27.4668 892.633,-18.1701"/>
<polygon fill="red" stroke="red" stroke-width="0.615243" points="892.835,-14.6739 882.554,-17.2327 892.187,-21.6438 892.835,-14.6739"/>
</g>
<!-- &#45;5&#45;&gt;3 -->
<g id="edge30" class="edge"><title>&#45;5&#45;&gt;3</title>
<path fill="none" stroke="red" stroke-width="0.494117" stroke-dasharray="1,5" d="M1510.59,-368.138C1456.56,-366.882 1236.89,-359.654 1179.64,-324.375 1151.24,-306.869 1161.94,-285.017 1137.64,-262.149 1114.72,-240.574 1100.4,-246.801 1076.64,-226.149 1073.09,-223.056 1069.67,-219.382 1066.58,-215.681"/>
<polygon fill="red" stroke="red" stroke-width="0.494117" points="1069.32,-213.508 1060.43,-207.753 1063.79,-217.799 1069.32,-213.508"/>
</g>
<!-- &#45;5&#45;&gt;4 -->
<g id="edge31" class="edge"><title>&#45;5&#45;&gt;4</title>
<path fill="none" stroke="green" stroke-width="1.43098" d="M1530.83,-360.155C1538.42,-351.911 1549.18,-338.449 1553.64,-324.375 1562,-298.011 1570.78,-283.856 1553.64,-262.149 1522.29,-222.429 1363.96,-203.958 1301.77,-198.151"/>
<polygon fill="green" stroke="green" stroke-width="1.43098" points="1301.93,-194.652 1291.66,-197.241 1301.3,-201.624 1301.93,-194.652"/>
</g>
<!-- &#45;5&#45;&gt;5 -->
<g id="edge32" class="edge"><title>&#45;5&#45;&gt;5</title>
<path fill="none" stroke="green" stroke-width="0.284672" d="M1510.63,-367.98C1428.95,-365.24 956.483,-348.429 897.644,-324.375 858.182,-308.242 858.769,-287.702 824.644,-262.149 798.022,-242.215 765.594,-221.589 744.788,-208.79"/>
<polygon fill="green" stroke="green" stroke-width="0.284672" points="746.468,-205.715 736.109,-203.491 742.82,-211.689 746.468,-205.715"/>
</g>
<!-- &#45;5&#45;&gt;6 -->
<g id="edge33" class="edge"><title>&#45;5&#45;&gt;6</title>
<path fill="none" stroke="green" stroke-width="0.292494" stroke-dasharray="1,5" d="M1510.57,-367.808C1429.57,-363.962 967.688,-341.335 943.644,-324.375 909.222,-300.094 895.3,-250.127 889.886,-220.207"/>
<polygon fill="green" stroke="green" stroke-width="0.292494" points="893.314,-219.484 888.254,-210.176 886.405,-220.608 893.314,-219.484"/>
</g>
<!-- &#45;5&#45;&gt;7 -->
<g id="edge34" class="edge"><title>&#45;5&#45;&gt;7</title>
<path fill="none" stroke="red" stroke-width="0.545528" stroke-dasharray="1,5" d="M1510.57,-367.836C1420.62,-363.793 857.686,-338.007 824.644,-324.375 785.856,-308.372 786.95,-287.67 753.644,-262.149 730.748,-244.606 723.274,-242.691 699.644,-226.149 692.68,-221.274 685.157,-215.809 678.48,-210.885"/>
<polygon fill="red" stroke="red" stroke-width="0.545528" points="680.146,-207.764 670.03,-204.614 675.974,-213.385 680.146,-207.764"/>
</g>
<!-- &#45;5&#45;&gt;8 -->
<g id="edge35" class="edge"><title>&#45;5&#45;&gt;8</title>
<path fill="none" stroke="red" stroke-width="0.245296" stroke-dasharray="1,5" d="M1527.06,-360.234C1537.02,-340.643 1558.51,-290.403 1533.64,-262.149 1492.05,-214.89 1314.78,-236.272 1252.64,-226.149 1207.48,-218.791 1155.22,-207.915 1125.24,-201.446"/>
<polygon fill="red" stroke="red" stroke-width="0.245296" points="1125.77,-197.98 1115.26,-199.277 1124.29,-204.82 1125.77,-197.98"/>
</g>
<!-- &#45;5&#45;&gt;245645 -->
<g id="edge93" class="edge"><title>&#45;5&#45;&gt;245645</title>
<path fill="none" stroke="red" stroke-width="0.259575" stroke-dasharray="1,5" d="M1519.43,-360.16C1516.72,-353.235 1512.63,-342.793 1508.51,-332.25"/>
<polygon fill="red" stroke="red" stroke-width="0.259575" points="1511.65,-330.675 1504.75,-322.638 1505.13,-333.226 1511.65,-330.675"/>
</g>
<!-- 144834 -->
<g id="node24" class="node"><title>144834</title>
<ellipse fill="white" stroke="black" cx="1822.64" cy="-195.037" rx="31.2258" ry="31.2258"/>
<text text-anchor="middle" x="1822.64" y="-192.837" font-family="Times New Roman,serif" font-size="9.00">144834</text>
</g>
<!-- &#45;5&#45;&gt;144834 -->
<g id="edge75" class="edge"><title>&#45;5&#45;&gt;144834</title>
<path fill="none" stroke="red" stroke-width="0.461899" stroke-dasharray="1,5" d="M1534.81,-368.305C1583.72,-367.76 1765.22,-363.118 1803.64,-324.375 1826.24,-301.585 1829.57,-264.401 1828.08,-235.909"/>
<polygon fill="red" stroke="red" stroke-width="0.461899" points="1831.56,-235.564 1827.34,-225.848 1824.58,-236.078 1831.56,-235.564"/>
</g>
<!-- 253897 -->
<g id="node25" class="node"><title>253897</title>
<ellipse fill="white" stroke="black" cx="1763.64" cy="-293.262" rx="31.2258" ry="31.2258"/>
<text text-anchor="middle" x="1763.64" y="-291.062" font-family="Times New Roman,serif" font-size="9.00">253897</text>
</g>
<!-- &#45;5&#45;&gt;253897 -->
<g id="edge86" class="edge"><title>&#45;5&#45;&gt;253897</title>
<path fill="none" stroke="red" stroke-width="0.246972" d="M1535.06,-367.188C1566.78,-363.821 1652.94,-352.563 1718.64,-324.375 1722.74,-322.618 1726.86,-320.479 1730.86,-318.16"/>
<polygon fill="red" stroke="red" stroke-width="0.246972" points="1732.71,-321.128 1739.35,-312.873 1729.02,-315.185 1732.71,-321.128"/>
</g>
<!-- &#45;6 -->
<g id="node6" class="node"><title>&#45;6</title>
<polygon fill="lightgray" stroke="black" points="744.644,-302.262 720.644,-302.262 720.644,-284.262 744.644,-284.262 744.644,-302.262"/>
<text text-anchor="middle" x="732.644" y="-291.062" font-family="Times New Roman,serif" font-size="9.00">&#45;6</text>
</g>
<!-- &#45;6&#45;&gt;0 -->
<g id="edge36" class="edge"><title>&#45;6&#45;&gt;0</title>
<path fill="none" stroke="green" stroke-width="0.261295" stroke-dasharray="1,5" d="M736.684,-283.989C754.812,-246.874 828.971,-95.0315 856.92,-37.8072"/>
<polygon fill="green" stroke="green" stroke-width="0.261295" points="860.188,-39.0899 861.432,-28.5683 853.898,-36.0178 860.188,-39.0899"/>
</g>
<!-- &#45;6&#45;&gt;1 -->
<g id="edge37" class="edge"><title>&#45;6&#45;&gt;1</title>
<path fill="none" stroke="red" stroke-width="0.100615" stroke-dasharray="1,5" d="M720.413,-288.49C673.765,-274.103 506.523,-222.523 444.239,-203.314"/>
<polygon fill="red" stroke="red" stroke-width="0.100615" points="445.115,-199.921 434.527,-200.318 443.052,-206.61 445.115,-199.921"/>
</g>
<!-- &#45;6&#45;&gt;3 -->
<g id="edge38" class="edge"><title>&#45;6&#45;&gt;3</title>
<path fill="none" stroke="red" stroke-width="0.604184" stroke-dasharray="1,5" d="M744.797,-288.607C792.175,-274.361 964.994,-222.393 1028.78,-203.212"/>
<polygon fill="red" stroke="red" stroke-width="0.604184" points="1030.14,-206.458 1038.71,-200.226 1028.13,-199.754 1030.14,-206.458"/>
</g>
<!-- &#45;6&#45;&gt;4 -->
<g id="edge39" class="edge"><title>&#45;6&#45;&gt;4</title>
<path fill="none" stroke="red" stroke-width="0.185901" stroke-dasharray="1,5" d="M744.859,-290.332C793.138,-282.676 975.297,-253.531 1124.64,-226.149 1169.66,-217.897 1221.96,-207.315 1252,-201.144"/>
<polygon fill="red" stroke="red" stroke-width="0.185901" points="1252.91,-204.529 1262,-199.083 1251.5,-197.673 1252.91,-204.529"/>
</g>
<!-- &#45;6&#45;&gt;5 -->
<g id="edge40" class="edge"><title>&#45;6&#45;&gt;5</title>
<path fill="none" stroke="red" stroke-width="0.228258" d="M731.877,-284.058C730.566,-270.047 727.849,-241 725.895,-220.101"/>
<polygon fill="red" stroke="red" stroke-width="0.228258" points="729.37,-219.669 724.953,-210.038 722.4,-220.321 729.37,-219.669"/>
</g>
<!-- &#45;6&#45;&gt;6 -->
<g id="edge41" class="edge"><title>&#45;6&#45;&gt;6</title>
<path fill="none" stroke="red" stroke-width="0.692407" stroke-dasharray="1,5" d="M738.336,-284.085C743.181,-277.554 750.617,-268.478 758.644,-262.149 776.278,-248.246 832.151,-221.319 863.942,-206.48"/>
<polygon fill="red" stroke="red" stroke-width="0.692407" points="865.742,-209.503 873.339,-202.118 862.795,-203.154 865.742,-209.503"/>
</g>
<!-- &#45;6&#45;&gt;7 -->
<g id="edge42" class="edge"><title>&#45;6&#45;&gt;7</title>
<path fill="none" stroke="red" stroke-width="0.291268" stroke-dasharray="1,5" d="M726.335,-284.058C714.723,-268.958 689.679,-236.393 673.525,-215.387"/>
<polygon fill="red" stroke="red" stroke-width="0.291268" points="676.282,-213.231 667.412,-207.438 670.733,-217.499 676.282,-213.231"/>
</g>
<!-- &#45;6&#45;&gt;8 -->
<g id="edge43" class="edge"><title>&#45;6&#45;&gt;8</title>
<path fill="none" stroke="green" stroke-width="0.457217" stroke-dasharray="1,5" d="M744.88,-290.426C802.739,-281.674 1047.31,-243.89 1076.64,-226.149 1080.74,-223.669 1084.43,-220.217 1087.61,-216.531"/>
<polygon fill="green" stroke="green" stroke-width="0.457217" points="1090.53,-218.474 1093.74,-208.377 1084.93,-214.27 1090.53,-218.474"/>
</g>
<!-- &#45;7 -->
<g id="node7" class="node"><title>&#45;7</title>
<polygon fill="lightgray" stroke="black" points="976.644,-302.262 952.644,-302.262 952.644,-284.262 976.644,-284.262 976.644,-302.262"/>
<text text-anchor="middle" x="964.644" y="-291.062" font-family="Times New Roman,serif" font-size="9.00">&#45;7</text>
</g>
<!-- &#45;7&#45;&gt;0 -->
<g id="edge44" class="edge"><title>&#45;7&#45;&gt;0</title>
<path fill="none" stroke="green" stroke-width="0.293532" stroke-dasharray="1,5" d="M961.741,-283.989C948.802,-247.12 896.135,-97.039 875.753,-38.9573"/>
<polygon fill="green" stroke="green" stroke-width="0.293532" points="878.954,-37.5077 872.34,-29.2308 872.349,-39.8256 878.954,-37.5077"/>
</g>
<!-- &#45;7&#45;&gt;1 -->
<g id="edge45" class="edge"><title>&#45;7&#45;&gt;1</title>
<path fill="none" stroke="green" stroke-width="0.143226" stroke-dasharray="1,5" d="M952.519,-290.117C883.534,-277.915 540.251,-217.193 445.121,-200.366"/>
<polygon fill="green" stroke="green" stroke-width="0.143226" points="445.715,-196.917 435.258,-198.622 444.495,-203.81 445.715,-196.917"/>
</g>
<!-- &#45;7&#45;&gt;2 -->
<g id="edge46" class="edge"><title>&#45;7&#45;&gt;2</title>
<path fill="none" stroke="green" stroke-width="0.172901" d="M966.613,-283.96C973.733,-254.181 999.12,-150.019 1025.64,-65.6985 1028.47,-56.7127 1031.91,-46.9418 1035.03,-38.4508"/>
<polygon fill="green" stroke="green" stroke-width="0.172901" points="1038.39,-39.4598 1038.61,-28.8671 1031.83,-37.0135 1038.39,-39.4598"/>
</g>
<!-- &#45;7&#45;&gt;3 -->
<g id="edge47" class="edge"><title>&#45;7&#45;&gt;3</title>
<path fill="none" stroke="red" stroke-width="0.112753" stroke-dasharray="1,5" d="M969.788,-284.043C973.823,-277.817 979.728,-269.166 985.644,-262.149 1000.79,-244.186 1020.06,-225.546 1034.04,-212.656"/>
<polygon fill="red" stroke="red" stroke-width="0.112753" points="1036.55,-215.1 1041.59,-205.779 1031.84,-209.925 1036.55,-215.1"/>
</g>
<!-- &#45;7&#45;&gt;4 -->
<g id="edge48" class="edge"><title>&#45;7&#45;&gt;4</title>
<path fill="none" stroke="green" stroke-width="0.219081" stroke-dasharray="1,5" d="M968.247,-284.07C971.711,-277.162 977.608,-267.56 985.644,-262.149 996.887,-254.579 1184.27,-215.194 1252.25,-201.078"/>
<polygon fill="green" stroke="green" stroke-width="0.219081" points="1253.01,-204.495 1262.09,-199.038 1251.59,-197.641 1253.01,-204.495"/>
</g>
<!-- &#45;7&#45;&gt;5 -->
<g id="edge49" class="edge"><title>&#45;7&#45;&gt;5</title>
<path fill="none" stroke="red" stroke-width="0.125944" stroke-dasharray="1,5" d="M952.361,-287.358C914.043,-272.058 796.285,-225.04 746.376,-205.113"/>
<polygon fill="red" stroke="red" stroke-width="0.125944" points="747.66,-201.857 737.075,-201.399 745.065,-208.358 747.66,-201.857"/>
</g>
<!-- &#45;7&#45;&gt;6 -->
<g id="edge50" class="edge"><title>&#45;7&#45;&gt;6</title>
<path fill="none" stroke="red" stroke-width="0.423111" d="M957.994,-284.058C945.689,-268.879 919.077,-236.048 902.059,-215.054"/>
<polygon fill="red" stroke="red" stroke-width="0.423111" points="904.65,-212.692 895.634,-207.128 899.212,-217.1 904.65,-212.692"/>
</g>
<!-- &#45;7&#45;&gt;7 -->
<g id="edge51" class="edge"><title>&#45;7&#45;&gt;7</title>
<path fill="none" stroke="red" stroke-width="0.125605" stroke-dasharray="1,5" d="M952.468,-289.517C903.621,-278.465 723.358,-237.284 699.644,-226.149 691.775,-222.454 683.895,-217.149 677.176,-212.017"/>
<polygon fill="red" stroke="red" stroke-width="0.125605" points="679.362,-209.283 669.376,-205.745 674.976,-214.739 679.362,-209.283"/>
</g>
<!-- &#45;7&#45;&gt;8 -->
<g id="edge52" class="edge"><title>&#45;7&#45;&gt;8</title>
<path fill="none" stroke="green" stroke-width="1.38253" stroke-dasharray="1,5" d="M968.607,-284.1C972.225,-277.4 978.146,-268.081 985.644,-262.149 1019.76,-235.165 1041.69,-252.029 1076.64,-226.149 1080.43,-223.344 1083.96,-219.798 1087.07,-216.134"/>
<polygon fill="green" stroke="green" stroke-width="1.38253" points="1089.88,-218.226 1093.19,-208.162 1084.32,-213.965 1089.88,-218.226"/>
</g>
<!-- &#45;8 -->
<g id="node8" class="node"><title>&#45;8</title>
<polygon fill="lightgray" stroke="black" points="1212.64,-302.262 1188.64,-302.262 1188.64,-284.262 1212.64,-284.262 1212.64,-302.262"/>
<text text-anchor="middle" x="1200.64" y="-291.062" font-family="Times New Roman,serif" font-size="9.00">&#45;8</text>
</g>
<!-- &#45;8&#45;&gt;0 -->
<g id="edge53" class="edge"><title>&#45;8&#45;&gt;0</title>
<path fill="none" stroke="green" stroke-width="0.587019" stroke-dasharray="1,5" d="M1194.83,-283.857C1186.33,-271.444 1170.15,-247.387 1157.64,-226.149 1141.76,-199.174 1146.39,-186.444 1124.64,-163.924 1054.17,-90.9295 939.927,-42.578 891.045,-24.1785"/>
<polygon fill="green" stroke="green" stroke-width="0.587019" points="891.977,-20.7917 881.383,-20.6141 889.554,-27.3591 891.977,-20.7917"/>
</g>
<!-- &#45;8&#45;&gt;1 -->
<g id="edge54" class="edge"><title>&#45;8&#45;&gt;1</title>
<path fill="none" stroke="red" stroke-width="0.249728" stroke-dasharray="1,5" d="M1188.53,-289.805C1160.39,-284.174 1088.39,-270.205 1027.64,-262.149 853.768,-239.091 808.872,-246.375 634.644,-226.149 565.831,-218.161 484.957,-206.031 445.217,-199.889"/>
<polygon fill="red" stroke="red" stroke-width="0.249728" points="445.562,-196.401 435.143,-198.324 444.488,-203.318 445.562,-196.401"/>
</g>
<!-- &#45;8&#45;&gt;2 -->
<g id="edge55" class="edge"><title>&#45;8&#45;&gt;2</title>
<path fill="none" stroke="red" stroke-width="0.233739" stroke-dasharray="1,5" d="M1198.9,-284.072C1194.25,-263.158 1180.3,-206.434 1157.64,-163.924 1130.12,-112.291 1084.8,-59.9195 1060.42,-33.4745"/>
<polygon fill="red" stroke="red" stroke-width="0.233739" points="1062.95,-31.0539 1053.57,-26.1293 1057.83,-35.829 1062.95,-31.0539"/>
</g>
<!-- &#45;8&#45;&gt;3 -->
<g id="edge56" class="edge"><title>&#45;8&#45;&gt;3</title>
<path fill="none" stroke="green" stroke-width="0.568138" stroke-dasharray="1,5" d="M1195.34,-284.081C1190.63,-277.37 1183.16,-268.044 1174.64,-262.149 1136.49,-235.746 1114.27,-253.297 1076.64,-226.149 1072.82,-223.391 1069.28,-219.866 1066.16,-216.208"/>
<polygon fill="green" stroke="green" stroke-width="0.568138" points="1068.91,-214.04 1060.05,-208.229 1063.35,-218.296 1068.91,-214.04"/>
</g>
<!-- &#45;8&#45;&gt;4 -->
<g id="edge57" class="edge"><title>&#45;8&#45;&gt;4</title>
<path fill="none" stroke="red" stroke-width="0.391269" stroke-dasharray="1,5" d="M1207.12,-284.058C1219.11,-268.879 1245.04,-236.048 1261.62,-215.054"/>
<polygon fill="red" stroke="red" stroke-width="0.391269" points="1264.43,-217.145 1267.88,-207.128 1258.94,-212.806 1264.43,-217.145"/>
</g>
<!-- &#45;8&#45;&gt;5 -->
<g id="edge58" class="edge"><title>&#45;8&#45;&gt;5</title>
<path fill="none" stroke="red" stroke-width="0.192375" stroke-dasharray="1,5" d="M1188.35,-289.95C1144.22,-281.633 989.723,-252.34 862.644,-226.149 822.507,-217.877 775.989,-207.674 748.234,-201.521"/>
<polygon fill="red" stroke="red" stroke-width="0.192375" points="748.753,-198.051 738.232,-199.298 747.235,-204.884 748.753,-198.051"/>
</g>
<!-- &#45;8&#45;&gt;6 -->
<g id="edge59" class="edge"><title>&#45;8&#45;&gt;6</title>
<path fill="none" stroke="red" stroke-width="0.613799" d="M1188.33,-288.49C1141.39,-274.103 973.074,-222.523 910.391,-203.314"/>
<polygon fill="red" stroke="red" stroke-width="0.613799" points="911.203,-199.902 900.616,-200.318 909.152,-206.595 911.203,-199.902"/>
</g>
<!-- &#45;8&#45;&gt;7 -->
<g id="edge60" class="edge"><title>&#45;8&#45;&gt;7</title>
<path fill="none" stroke="red" stroke-width="0.502902" stroke-dasharray="1,5" d="M1188.52,-289.88C1160.36,-284.409 1088.31,-270.75 1027.64,-262.149 882.442,-241.565 836.298,-279.373 699.644,-226.149 691.427,-222.949 683.383,-217.665 676.627,-212.409"/>
<polygon fill="red" stroke="red" stroke-width="0.502902" points="678.766,-209.635 668.842,-205.925 674.286,-215.014 678.766,-209.635"/>
</g>
<!-- &#45;8&#45;&gt;8 -->
<g id="edge61" class="edge"><title>&#45;8&#45;&gt;8</title>
<path fill="none" stroke="green" stroke-width="0.399641" d="M1194.39,-284.235C1189.34,-277.956 1181.91,-269.145 1174.64,-262.149 1156.2,-244.381 1148.57,-243.41 1129.64,-226.149 1125.53,-222.394 1121.27,-218.182 1117.33,-214.126"/>
<polygon fill="green" stroke="green" stroke-width="0.399641" points="1119.68,-211.52 1110.26,-206.678 1114.6,-216.34 1119.68,-211.52"/>
</g>
<!-- 119034 -->
<g id="node28" class="node"><title>119034</title>
<ellipse fill="white" stroke="black" cx="1240.64" cy="-96.8112" rx="31.2258" ry="31.2258"/>
<text text-anchor="middle" x="1240.64" y="-94.6112" font-family="Times New Roman,serif" font-size="9.00">119034</text>
</g>
<!-- &#45;8&#45;&gt;119034 -->
<g id="edge71" class="edge"><title>&#45;8&#45;&gt;119034</title>
<path fill="none" stroke="red" stroke-width="0.355554" d="M1202.36,-283.907C1207.49,-258.984 1222.92,-183.996 1232.55,-137.167"/>
<polygon fill="red" stroke="red" stroke-width="0.355554" points="1235.98,-137.844 1234.57,-127.344 1229.13,-136.434 1235.98,-137.844"/>
</g>
<!-- &#45;9 -->
<g id="node9" class="node"><title>&#45;9</title>
<polygon fill="lightgray" stroke="black" points="554.644,-378.375 530.644,-378.375 530.644,-360.375 554.644,-360.375 554.644,-378.375"/>
<text text-anchor="middle" x="542.644" y="-367.175" font-family="Times New Roman,serif" font-size="9.00">&#45;9</text>
</g>
<!-- &#45;9&#45;&gt;0 -->
<g id="edge62" class="edge"><title>&#45;9&#45;&gt;0</title>
<path fill="none" stroke="red" stroke-width="0.150426" stroke-dasharray="1,5" d="M530.638,-368.227C459.146,-367.228 91.5018,-360.355 58.6439,-324.375 -18.8829,-239.48 -20.1107,-149.455 58.6439,-65.6985 86.1854,-36.4077 709.491,-19.682 842.726,-16.4345"/>
<polygon fill="red" stroke="red" stroke-width="0.150426" points="842.864,-19.9323 852.777,-16.1926 842.696,-12.9343 842.864,-19.9323"/>
</g>
<!-- &#45;9&#45;&gt;1 -->
<g id="edge63" class="edge"><title>&#45;9&#45;&gt;1</title>
<path fill="none" stroke="green" stroke-width="0.263741" stroke-dasharray="1,5" d="M530.442,-368.435C481.414,-368.392 299.713,-365.431 264.644,-324.375 246.682,-303.346 249.373,-285.207 264.644,-262.149 293.936,-217.921 359.376,-203.198 395.497,-198.358"/>
<polygon fill="green" stroke="green" stroke-width="0.263741" points="396.174,-201.802 405.694,-197.151 395.352,-194.851 396.174,-201.802"/>
</g>
<!-- &#45;9&#45;&gt;2 -->
<g id="edge64" class="edge"><title>&#45;9&#45;&gt;2</title>
<path fill="none" stroke="red" stroke-width="0.355637" d="M530.442,-368.549C479.668,-368.992 286.034,-367.777 248.644,-324.375 166.526,-229.052 251.225,-122.195 363.644,-65.6985 468.726,-12.8888 774.409,-39.0347 891.644,-29.6985 936.578,-26.1201 988.91,-21.1822 1018.97,-18.2716"/>
<polygon fill="red" stroke="red" stroke-width="0.355637" points="1019.37,-21.7496 1028.98,-17.2973 1018.69,-14.7825 1019.37,-21.7496"/>
</g>
<!-- &#45;9&#45;&gt;3 -->
<g id="edge65" class="edge"><title>&#45;9&#45;&gt;3</title>
<path fill="none" stroke="green" stroke-width="0.925322" stroke-dasharray="1,5" d="M554.819,-365.889C563.846,-364.125 576.469,-361.822 587.644,-360.375 636.29,-354.075 991.092,-357.087 1027.64,-324.375 1056.74,-298.334 1058.02,-249.34 1055.73,-220"/>
<polygon fill="green" stroke="green" stroke-width="0.925322" points="1059.19,-219.415 1054.73,-209.806 1052.22,-220.1 1059.19,-219.415"/>
</g>
<!-- &#45;9&#45;&gt;4 -->
<g id="edge66" class="edge"><title>&#45;9&#45;&gt;4</title>
<path fill="none" stroke="green" stroke-width="0.19445" d="M554.809,-365.801C563.83,-363.992 576.451,-361.673 587.644,-360.375 659.936,-351.99 1185.04,-370.123 1241.64,-324.375 1272.54,-299.401 1277.72,-250.041 1277.79,-220.344"/>
<polygon fill="green" stroke="green" stroke-width="0.19445" points="1281.28,-219.955 1277.61,-210.017 1274.29,-220.077 1281.28,-219.955"/>
</g>
<!-- &#45;9&#45;&gt;5 -->
<g id="edge67" class="edge"><title>&#45;9&#45;&gt;5</title>
<path fill="none" stroke="red" stroke-width="1.39145" stroke-dasharray="1,5" d="M548.79,-360.114C562.842,-341.504 598.874,-295.337 634.644,-262.149 637.736,-259.28 678.339,-229.331 703.621,-210.74"/>
<polygon fill="red" stroke="red" stroke-width="1.39145" points="705.853,-213.443 711.838,-204.701 701.708,-207.802 705.853,-213.443"/>
</g>
<!-- &#45;9&#45;&gt;6 -->
<g id="edge68" class="edge"><title>&#45;9&#45;&gt;6</title>
<path fill="none" stroke="red" stroke-width="0.404035" stroke-dasharray="1,5" d="M554.672,-366.159C598.215,-358.1 745.492,-330.5 753.644,-324.375 778.671,-305.57 765.602,-285.327 786.644,-262.149 808.965,-237.562 842.311,-217.94 864.266,-206.646"/>
<polygon fill="red" stroke="red" stroke-width="0.404035" points="866.084,-209.651 873.471,-202.055 862.96,-203.386 866.084,-209.651"/>
</g>
<!-- &#45;9&#45;&gt;7 -->
<g id="edge69" class="edge"><title>&#45;9&#45;&gt;7</title>
<path fill="none" stroke="green" stroke-width="0.732403" stroke-dasharray="1,5" d="M530.548,-368.299C483.578,-367.726 314.28,-362.974 281.644,-324.375 263.788,-303.256 263.857,-283.327 281.644,-262.149 293.147,-248.453 552.033,-211.022 633.995,-199.475"/>
<polygon fill="green" stroke="green" stroke-width="0.732403" points="634.511,-202.937 643.927,-198.081 633.537,-196.005 634.511,-202.937"/>
</g>
<!-- &#45;9&#45;&gt;8 -->
<g id="edge70" class="edge"><title>&#45;9&#45;&gt;8</title>
<path fill="none" stroke="green" stroke-width="0.548496" stroke-dasharray="1,5" d="M554.809,-365.806C563.831,-364.001 576.452,-361.682 587.644,-360.375 657.725,-352.185 1173.19,-375.661 1221.64,-324.375 1240.64,-304.272 1235.75,-285.935 1221.64,-262.149 1200.76,-226.943 1153.79,-209.271 1124.9,-201.418"/>
<polygon fill="green" stroke="green" stroke-width="0.548496" points="1125.71,-198.013 1115.15,-198.955 1123.99,-204.799 1125.71,-198.013"/>
</g>
<!-- 129461 -->
<g id="node22" class="node"><title>129461</title>
<ellipse fill="white" stroke="black" cx="519.644" cy="-293.262" rx="31.2258" ry="31.2258"/>
<text text-anchor="middle" x="519.644" y="-291.062" font-family="Times New Roman,serif" font-size="9.00">129461</text>
</g>
<!-- &#45;9&#45;&gt;129461 -->
<g id="edge73" class="edge"><title>&#45;9&#45;&gt;129461</title>
<path fill="none" stroke="green" stroke-width="0.377689" d="M540.095,-360.16C538.003,-353.42 534.877,-343.348 531.695,-333.094"/>
<polygon fill="green" stroke="green" stroke-width="0.377689" points="534.966,-331.824 528.659,-323.311 528.28,-333.899 534.966,-331.824"/>
</g>
<!-- 4&#45;&gt;119034 -->
<g id="edge83" class="edge"><title>4&#45;&gt;119034</title>
<path fill="none" stroke="red" stroke-width="0.242311" stroke-dasharray="1,5" d="M1271.64,-180.657C1267.29,-169.025 1260.76,-151.593 1254.82,-135.716"/>
<polygon fill="red" stroke="red" stroke-width="0.242311" points="1258.01,-134.236 1251.23,-126.097 1251.45,-136.689 1258.01,-134.236"/>
</g>
<!-- 7&#45;&gt;192813 -->
<g id="edge79" class="edge"><title>7&#45;&gt;192813</title>
<path fill="none" stroke="red" stroke-width="0.119132" d="M658.644,-179.838C658.644,-168.794 658.644,-152.9 658.644,-138.037"/>
<polygon fill="red" stroke="red" stroke-width="0.119132" points="662.144,-137.985 658.644,-127.985 655.144,-137.985 662.144,-137.985"/>
</g>
<!-- 245645&#45;&gt;8 -->
<g id="edge85" class="edge"><title>245645&#45;&gt;8</title>
<path fill="none" stroke="red" stroke-width="0.301997" d="M1469.44,-273.458C1462.97,-269.181 1455.79,-265.049 1448.64,-262.149 1366.58,-228.83 1339.64,-242.756 1252.64,-226.149 1207.69,-217.569 1155.37,-207.096 1125.31,-201.034"/>
<polygon fill="red" stroke="red" stroke-width="0.301997" points="1125.8,-197.561 1115.3,-199.011 1124.41,-204.422 1125.8,-197.561"/>
</g>
<!-- 338601&#45;&gt;1 -->
<g id="edge95" class="edge"><title>338601&#45;&gt;1</title>
<path fill="none" stroke="green" stroke-width="1.26343" d="M343.615,-270.906C361.435,-253.586 386.233,-229.483 402.831,-213.35"/>
<polygon fill="green" stroke="green" stroke-width="1.26343" points="405.522,-215.615 410.254,-206.136 400.643,-210.596 405.522,-215.615"/>
</g>
<!-- 192813&#45;&gt;0 -->
<g id="edge78" class="edge"><title>192813&#45;&gt;0</title>
<path fill="none" stroke="red" stroke-width="0.811158" d="M687.704,-84.6928C729.534,-68.689 805.895,-39.4739 844.289,-24.7845"/>
<polygon fill="red" stroke="red" stroke-width="0.811158" points="845.963,-27.8918 854.052,-21.0495 843.461,-21.354 845.963,-27.8918"/>
</g>
<!-- 129461&#45;&gt;5 -->
<g id="edge82" class="edge"><title>129461&#45;&gt;5</title>
<path fill="none" stroke="green" stroke-width="0.163314" stroke-dasharray="1,5" d="M548.536,-281.534C588.598,-266.49 658.783,-239.478 682.644,-226.149 690.065,-222.004 697.702,-216.719 704.342,-211.737"/>
<polygon fill="green" stroke="green" stroke-width="0.163314" points="706.919,-214.168 712.667,-205.268 702.624,-208.641 706.919,-214.168"/>
</g>
<!-- 129461&#45;&gt;7 -->
<g id="edge74" class="edge"><title>129461&#45;&gt;7</title>
<path fill="none" stroke="green" stroke-width="0.261119" stroke-dasharray="1,5" d="M544.816,-274.836C571.711,-256.217 613.807,-227.075 638.566,-209.936"/>
<polygon fill="green" stroke="green" stroke-width="0.261119" points="640.613,-212.776 646.842,-204.206 636.628,-207.021 640.613,-212.776"/>
</g>
<!-- 313279&#45;&gt;4 -->
<g id="edge92" class="edge"><title>313279&#45;&gt;4</title>
<path fill="none" stroke="red" stroke-width="0.233483" d="M1321.3,-266.475C1311.4,-250.857 1298.94,-231.206 1289.7,-216.631"/>
<polygon fill="red" stroke="red" stroke-width="0.233483" points="1292.46,-214.451 1284.15,-207.879 1286.55,-218.199 1292.46,-214.451"/>
</g>
<!-- 144834&#45;&gt;2 -->
<g id="edge76" class="edge"><title>144834&#45;&gt;2</title>
<path fill="none" stroke="red" stroke-width="0.282916" d="M1827.75,-164.286C1830.95,-134.699 1830.31,-90.2748 1803.64,-65.6985 1748.49,-14.8648 1194.06,-14.9814 1068.73,-15.6647"/>
<polygon fill="red" stroke="red" stroke-width="0.282916" points="1068.56,-12.1656 1058.58,-15.7267 1068.6,-19.1654 1068.56,-12.1656"/>
</g>
<!-- 209134 -->
<g id="node26" class="node"><title>209134</title>
<ellipse fill="white" stroke="black" cx="1763.64" cy="-96.8112" rx="31.2258" ry="31.2258"/>
<text text-anchor="middle" x="1763.64" y="-94.6112" font-family="Times New Roman,serif" font-size="9.00">209134</text>
</g>
<!-- 144834&#45;&gt;209134 -->
<g id="edge80" class="edge"><title>144834&#45;&gt;209134</title>
<path fill="none" stroke="green" stroke-width="0.135653" d="M1806.68,-167.997C1799.99,-157.086 1792.11,-144.241 1784.94,-132.543"/>
<polygon fill="green" stroke="green" stroke-width="0.135653" points="1787.83,-130.568 1779.62,-123.872 1781.87,-134.227 1787.83,-130.568"/>
</g>
<!-- 253897&#45;&gt;144834 -->
<g id="edge87" class="edge"><title>253897&#45;&gt;144834</title>
<path fill="none" stroke="red" stroke-width="0.605184" d="M1779.61,-266.222C1786.3,-255.311 1794.18,-242.466 1801.35,-230.768"/>
<polygon fill="red" stroke="red" stroke-width="0.605184" points="1804.42,-232.452 1806.66,-222.097 1798.45,-228.793 1804.42,-232.452"/>
</g>
<!-- 253897&#45;&gt;209134 -->
<g id="edge90" class="edge"><title>253897&#45;&gt;209134</title>
<path fill="none" stroke="red" stroke-width="0.1634" stroke-dasharray="1,5" d="M1763.64,-261.879C1763.64,-228.63 1763.64,-175.168 1763.64,-138.359"/>
<polygon fill="red" stroke="red" stroke-width="0.1634" points="1767.14,-137.981 1763.64,-127.981 1760.14,-137.981 1767.14,-137.981"/>
</g>
<!-- 209134&#45;&gt;2 -->
<g id="edge81" class="edge"><title>209134&#45;&gt;2</title>
<path fill="none" stroke="red" stroke-width="0.420144" d="M1739.64,-76.4671C1733.17,-72.2006 1725.93,-68.2089 1718.64,-65.6985 1594.98,-23.101 1175.94,-16.8928 1068.77,-15.9981"/>
<polygon fill="red" stroke="red" stroke-width="0.420144" points="1068.62,-12.4969 1058.59,-15.9217 1068.56,-19.4967 1068.62,-12.4969"/>
</g>
<!-- 271095&#45;&gt;2 -->
<g id="edge89" class="edge"><title>271095&#45;&gt;2</title>
<path fill="none" stroke="green" stroke-width="0.169825" d="M554.56,-84.8236C572.716,-78.3335 596.758,-70.4768 618.644,-65.6985 696.109,-48.7861 939.878,-25.4191 1018.75,-18.1202"/>
<polygon fill="green" stroke="green" stroke-width="0.169825" points="1019.12,-21.6016 1028.76,-17.1993 1018.48,-14.6311 1019.12,-21.6016"/>
</g>
<!-- 119034&#45;&gt;2 -->
<g id="edge72" class="edge"><title>119034&#45;&gt;2</title>
<path fill="none" stroke="green" stroke-width="0.208207" d="M1215.67,-77.3527C1209.33,-73.1678 1202.4,-68.992 1195.64,-65.6985 1152.54,-44.7003 1098.44,-29.3524 1067.79,-21.5839"/>
<polygon fill="green" stroke="green" stroke-width="0.208207" points="1068.52,-18.161 1057.97,-19.1554 1066.84,-24.9559 1068.52,-18.161"/>
</g>
</g>
</svg>
